<?xml version="1.0" encoding="UTF-8" standalone="no"?>
<!-- Generator: Adobe Illustrator 20.1.0, SVG Export Plug-In . SVG Version: 6.00 Build 0)  -->

<svg
   xmlns:dc="http://purl.org/dc/elements/1.1/"
   xmlns:cc="http://creativecommons.org/ns#"
   xmlns:rdf="http://www.w3.org/1999/02/22-rdf-syntax-ns#"
   xmlns:svg="http://www.w3.org/2000/svg"
   xmlns="http://www.w3.org/2000/svg"
   xmlns:sodipodi="http://sodipodi.sourceforge.net/DTD/sodipodi-0.dtd"
   xmlns:inkscape="http://www.inkscape.org/namespaces/inkscape"
   version="1.1"
   id="Layer_1"
   x="0px"
   y="0px"
   viewBox="0 0 14.248312 26"
   xml:space="preserve"
   inkscape:version="0.91 r13725"
   sodipodi:docname="Adult.svg"
   width="14.248312"
   height="26"><metadata
     id="metadata11"><rdf:RDF><cc:Work
         rdf:about=""><dc:format>image/svg+xml</dc:format><dc:type
           rdf:resource="http://purl.org/dc/dcmitype/StillImage" /><dc:title></dc:title></cc:Work></rdf:RDF></metadata><defs
     id="defs9" /><sodipodi:namedview
     pagecolor="#ffffff"
     bordercolor="#666666"
     borderopacity="1"
     objecttolerance="10"
     gridtolerance="10"
     guidetolerance="10"
     inkscape:pageopacity="0"
     inkscape:pageshadow="2"
     inkscape:window-width="742"
     inkscape:window-height="480"
     id="namedview7"
     showgrid="false"
     fit-margin-top="0"
     fit-margin-left="0"
     fit-margin-right="0"
     fit-margin-bottom="0"
     inkscape:zoom="9.0769231"
     inkscape:cx="7.1444443"
     inkscape:cy="13"
     inkscape:window-x="0"
     inkscape:window-y="0"
     inkscape:window-maximized="0"
     inkscape:current-layer="Layer_1" /><style
     type="text/css"
     id="style3">
	.st0{fill:#ffffff;}
</style><path
     class="st0 mainpath"
     d="M 7,6.3 C 8.8,6.3 10.2,4.9 10.2,3.1 10.2,1.3 8.7,0 7,0 5.3,0 3.8,1.4 3.8,3.2 3.8,5 5.2,6.3 7,6.3 Z M 14,14 10.6,8.4 C 10.5,7.9 10.1,7.5 9.5,7.5 l -4.7,0 C 4.7,7.5 4.5,7.5 4.4,7.6 4.1,7.6 3.9,7.8 3.7,8 l -3.6,6 c -0.3,0.5 -0.1,1.1 0.3,1.4 l 0.4,0.3 c 0.5,0.3 1.1,0.1 1.4,-0.3 l 1.4,-2.4 0,4.8 c 0,0.5 0.3,0.9 0.7,1 l 0,6.2 c 0,0.5 0.4,1 1,1 l 0.5,0 c 0.5,0 1,-0.4 1,-1 l 0,-6.2 0.5,0 0,6.2 c 0,0.5 0.4,1 1,1 l 0.5,0 c 0.5,0 1,-0.4 1,-1 l 0,-6.3 c 0.4,-0.2 0.7,-0.5 0.7,-1 l 0,-4.4 1.2,2 c 0.3,0.5 0.9,0.6 1.4,0.3 l 0.4,-0.3 C 14.2,15.1 14.4,14.4 14,14 Z"
     id="mainpath"
     inkscape:connector-curvature="0"
     transform="translate(0.04444444,0)" /></svg>