<?xml version="1.0" encoding="UTF-8" standalone="no"?>
<!-- Generator: Adobe Illustrator 20.1.0, SVG Export Plug-In . SVG Version: 6.00 Build 0)  -->

<svg
   xmlns:dc="http://purl.org/dc/elements/1.1/"
   xmlns:cc="http://creativecommons.org/ns#"
   xmlns:rdf="http://www.w3.org/1999/02/22-rdf-syntax-ns#"
   xmlns:svg="http://www.w3.org/2000/svg"
   xmlns="http://www.w3.org/2000/svg"
   xmlns:sodipodi="http://sodipodi.sourceforge.net/DTD/sodipodi-0.dtd"
   xmlns:inkscape="http://www.inkscape.org/namespaces/inkscape"
   version="1.1"
   id="Layer_1"
   x="0px"
   y="0px"
   viewBox="0 0 9.909017 18"
   xml:space="preserve"
   inkscape:version="0.91 r13725"
   sodipodi:docname="Adult price green.svg"
   width="9.9090166"
   height="18"><metadata
     id="metadata11"><rdf:RDF><cc:Work
         rdf:about=""><dc:format>image/svg+xml</dc:format><dc:type
           rdf:resource="http://purl.org/dc/dcmitype/StillImage" /><dc:title></dc:title></cc:Work></rdf:RDF></metadata><defs
     id="defs9" /><sodipodi:namedview
     pagecolor="#ffffff"
     bordercolor="#666666"
     borderopacity="1"
     objecttolerance="10"
     gridtolerance="10"
     guidetolerance="10"
     inkscape:pageopacity="0"
     inkscape:pageshadow="2"
     inkscape:window-width="1920"
     inkscape:window-height="1137"
     id="namedview7"
     showgrid="false"
     fit-margin-top="0"
     fit-margin-left="0"
     fit-margin-right="0"
     fit-margin-bottom="0"
     inkscape:zoom="13.111111"
     inkscape:cx="4.9499998"
     inkscape:cy="9"
     inkscape:window-x="-8"
     inkscape:window-y="-8"
     inkscape:window-maximized="1"
     inkscape:current-layer="Layer_1" /><style
     type="text/css"
     id="style3">
	.st0{fill:#86B419;}
</style><path
     class="st0"
     d="M 4.9,4.4 C 6.1,4.4 7.1,3.4 7.1,2.2 7.1,1 6.1,0 4.9,0 3.7,0 2.7,1 2.7,2.2 2.7,3.4 3.6,4.4 4.9,4.4 Z M 9.8,9.7 7.4,5.8 C 7.4,5.4 7,5.2 6.7,5.2 l -3.3,0 C 3.3,5.2 3.2,5.2 3.1,5.3 2.9,5.3 2.7,5.4 2.6,5.5 L 0.1,9.7 c -0.2,0.3 -0.1,0.8 0.3,1 l 0.3,0.2 c 0.3,0.1 0.7,0 0.9,-0.3 l 1,-1.6 0,3.3 c 0,0.3 0.2,0.6 0.5,0.7 l 0,4.3 c 0,0.4 0.3,0.7 0.7,0.7 l 0.4,0 c 0.4,0 0.7,-0.3 0.7,-0.7 l 0,-4.3 0.4,0 0,4.3 C 5.3,17.7 5.6,18 6,18 l 0.4,0 c 0.4,0 0.7,-0.3 0.7,-0.7 l 0,-4.3 c 0.3,-0.1 0.5,-0.4 0.5,-0.7 l 0,-3.1 0.8,1.4 c 0.2,0.3 0.6,0.4 1,0.2 L 9.7,10.6 C 9.9,10.4 10,10 9.8,9.7 Z"
     id="path5"
     inkscape:connector-curvature="0"
     style="fill:#86b419" /></svg>