<?xml version="1.0" encoding="UTF-8" standalone="no"?>
<!-- Created with Inkscape (http://www.inkscape.org/) -->

<svg
   xmlns:dc="http://purl.org/dc/elements/1.1/"
   xmlns:cc="http://creativecommons.org/ns#"
   xmlns:rdf="http://www.w3.org/1999/02/22-rdf-syntax-ns#"
   xmlns:svg="http://www.w3.org/2000/svg"
   xmlns="http://www.w3.org/2000/svg"
   xmlns:sodipodi="http://sodipodi.sourceforge.net/DTD/sodipodi-0.dtd"
   xmlns:inkscape="http://www.inkscape.org/namespaces/inkscape"
   width="24"
   height="21"
   viewBox="0 0 24 21"
   id="svg4184"
   version="1.1"
   inkscape:version="0.91 r13725"
   sodipodi:docname="Calendar-2.svg">
  <defs
     id="defs4186" />
  <sodipodi:namedview
     id="base"
     pagecolor="#ffffff"
     bordercolor="#666666"
     borderopacity="1.0"
     inkscape:pageopacity="0.0"
     inkscape:pageshadow="2"
     inkscape:zoom="22.4"
     inkscape:cx="0.015600856"
     inkscape:cy="16.363961"
     inkscape:document-units="px"
     inkscape:current-layer="layer1"
     showgrid="true"
     units="px"
     inkscape:snap-nodes="true"
     inkscape:snap-others="true"
     inkscape:snap-object-midpoints="true"
     inkscape:snap-center="true"
     inkscape:snap-bbox="true"
     inkscape:window-width="1920"
     inkscape:window-height="975"
     inkscape:window-x="1912"
     inkscape:window-y="604"
     inkscape:window-maximized="1"
     showguides="false">
    <inkscape:grid
       type="xygrid"
       id="grid4732" />
  </sodipodi:namedview>
  <metadata
     id="metadata4189">
    <rdf:RDF>
      <cc:Work
         rdf:about="">
        <dc:format>image/svg+xml</dc:format>
        <dc:type
           rdf:resource="http://purl.org/dc/dcmitype/StillImage" />
        <dc:title></dc:title>
      </cc:Work>
    </rdf:RDF>
  </metadata>
  <g
     inkscape:label="Layer 1"
     inkscape:groupmode="layer"
     id="layer1"
     transform="translate(0,-1031.3622)">
    <path
       style="fill:#a7a7a7;fill-opacity:0.58937198"
       d="M 5,0 C 4.446,0 4,0.446 4,1 L 4,2 3,2 C 1.338,2 0,3.338 0,5 l 0,13 c 0,1.662 1.338,3 3,3 l 14,0 c 1.662,0 3,-1.338 3,-3 l 0,-1 -2,0 0,0.6875 C 18,18.414625 17.414625,19 16.6875,19 L 3.3125,19 C 2.585375,19 2,18.414625 2,17.6875 L 2,5.3125 C 2,4.585375 2.585375,4 3.3125,4 L 4,4 4,5 C 4,5.554 4.446,6 5,6 5.554,6 6,5.554 6,5 L 6,4 9,4 9,5 c 0,0.554 0.446,1 1,1 0.554,0 1,-0.446 1,-1 l 0,-1 3,0 0,1 c 0,0.554 0.446,1 1,1 0.554,0 1,-0.446 1,-1 l 0,-1 0.6875,0 C 17.414625,4 18,4.585375 18,5.3125 L 18,6 20,6 20,5 C 20,3.338 18.662,2 17,2 L 16,2 16,1 C 16,0.446 15.554,0 15,0 14.446,0 14,0.446 14,1 l 0,1 -3,0 0,-1 C 11,0.446 10.554,0 10,0 9.446,0 9,0.446 9,1 L 9,2 6,2 6,1 C 6,0.446 5.554,0 5,0 Z"
       transform="matrix(-1,0,0,1,24,1031.3622)"
       id="rect4734"
       inkscape:connector-curvature="0" />
    <rect
       style="fill:#a7a7a7;fill-opacity:0.58937198"
       id="rect4797"
       width="3"
       height="2"
       x="4"
       y="8"
       transform="matrix(-1,0,0,1,23.955357,1031.3622)"
       ry="0" />
    <rect
       style="fill:#a7a7a7;fill-opacity:0.58937198"
       id="rect4814"
       width="3"
       height="2"
       x="4"
       y="11"
       transform="matrix(-1,0,0,1,24,1031.3622)" />
    <rect
       style="fill:#a7a7a7;fill-opacity:0.58937198"
       id="rect4816"
       width="3"
       height="2"
       x="4"
       y="14"
       transform="matrix(-1,0,0,1,24,1031.3622)" />
    <rect
       style="fill:#a7a7a7;fill-opacity:0.58937198"
       id="rect4820"
       width="3"
       height="2"
       x="9"
       y="8"
       transform="matrix(-1,0,0,1,24,1031.3622)" />
    <rect
       style="fill:#a7a7a7;fill-opacity:0.58937198"
       id="rect4822"
       width="3"
       height="2"
       x="9"
       y="11"
       transform="matrix(-1,0,0,1,24,1031.3622)" />
    <rect
       style="fill:#a7a7a7;fill-opacity:0.58937198"
       id="rect4824"
       width="3"
       height="2"
       x="9"
       y="14"
       transform="matrix(-1,0,0,1,24,1031.3622)" />
    <path
       style="fill:#ff6700;fill-opacity:1;fill-rule:evenodd;stroke:none;stroke-width:1px;stroke-linecap:butt;stroke-linejoin:miter;stroke-opacity:1"
       d="M 24,11.5 18,6 l 0,3 -4,0 0,5 4,0 0,3 6,-5.5"
       id="path4826"
       inkscape:connector-curvature="0"
       transform="matrix(-1,0,0,1,25,1031.3622)"
       sodipodi:nodetypes="cccccccc" />
  </g>
</svg>
