<?xml version="1.0" encoding="UTF-8" standalone="no"?>
<!-- Generator: Adobe Illustrator 20.1.0, SVG Export Plug-In . SVG Version: 6.00 Build 0)  -->

<svg
   xmlns:dc="http://purl.org/dc/elements/1.1/"
   xmlns:cc="http://creativecommons.org/ns#"
   xmlns:rdf="http://www.w3.org/1999/02/22-rdf-syntax-ns#"
   xmlns:svg="http://www.w3.org/2000/svg"
   xmlns="http://www.w3.org/2000/svg"
   xmlns:sodipodi="http://sodipodi.sourceforge.net/DTD/sodipodi-0.dtd"
   xmlns:inkscape="http://www.inkscape.org/namespaces/inkscape"
   version="1.1"
   id="Layer_1"
   x="0px"
   y="0px"
   viewBox="0 0 24.4 21"
   xml:space="preserve"
   inkscape:version="0.91 r13725"
   sodipodi:docname="Calendar-1.svg"
   width="24.4"
   height="21"><metadata
     id="metadata29"><rdf:RDF><cc:Work
         rdf:about=""><dc:format>image/svg+xml</dc:format><dc:type
           rdf:resource="http://purl.org/dc/dcmitype/StillImage" /><dc:title></dc:title></cc:Work></rdf:RDF></metadata><defs
     id="defs27" /><sodipodi:namedview
     pagecolor="#ffffff"
     bordercolor="#666666"
     borderopacity="1"
     objecttolerance="10"
     gridtolerance="10"
     guidetolerance="10"
     inkscape:pageopacity="0"
     inkscape:pageshadow="2"
     inkscape:window-width="1684"
     inkscape:window-height="965"
     id="namedview25"
     showgrid="false"
     fit-margin-top="0"
     fit-margin-left="0"
     fit-margin-right="0"
     fit-margin-bottom="0"
     inkscape:zoom="11.238095"
     inkscape:cx="12.2"
     inkscape:cy="10.5"
     inkscape:window-x="0"
     inkscape:window-y="0"
     inkscape:window-maximized="0"
     inkscape:current-layer="Layer_1" /><style
     type="text/css"
     id="style3">
	.st0{fill:#068FC6;}
	.st1{fill:#A7A7A7;}
</style><g
     id="g5"><polygon
       class="st0"
       points="13.8,9.4 13.8,11.9 13.8,14.3 19.6,14.3 19.6,16.3 24.4,11.9 19.6,7.5 19.6,9.4 "
       id="polygon7"
       style="fill:#068fc6" /><g
       id="g9"><rect
         x="4.5999999"
         y="7.8000002"
         class="st1"
         width="2.5999999"
         height="2"
         id="rect11"
         style="fill:#a7a7a7" /><rect
         x="9.1999998"
         y="7.8000002"
         class="st1"
         width="2.5999999"
         height="2"
         id="rect13"
         style="fill:#a7a7a7" /><rect
         x="4.5999999"
         y="11"
         class="st1"
         width="2.5999999"
         height="2"
         id="rect15"
         style="fill:#a7a7a7" /><rect
         x="9.1999998"
         y="11"
         class="st1"
         width="2.5999999"
         height="2"
         id="rect17"
         style="fill:#a7a7a7" /><rect
         x="4.5999999"
         y="14.3"
         class="st1"
         width="2.5999999"
         height="2"
         id="rect19"
         style="fill:#a7a7a7" /><rect
         x="9.1999998"
         y="14.3"
         class="st1"
         width="2.5999999"
         height="2"
         id="rect21"
         style="fill:#a7a7a7" /><path
         class="st1"
         d="M 21,6.2 21,4.5 C 21,3.1 19.9,2 18.5,2 l -2.1,0 0,-1.3 C 16.4,0.3 16.1,0 15.7,0 15.3,0 15,0.3 15,0.7 l 0,1.4 -3.9,0 0,-1.4 C 11.1,0.3 10.8,0 10.4,0 10,0 9.8,0.3 9.8,0.7 l 0,1.4 -3.9,0 0,-1.4 C 5.9,0.3 5.6,0 5.3,0 5,0 4.6,0.3 4.6,0.7 l 0,1.4 -2.1,0 C 1.1,2.1 0,3.2 0,4.5 l 0,14 C 0,19.9 1.1,21 2.5,21 l 16.1,0 c 1.4,0 2.5,-1.1 2.5,-2.5 l 0,-0.9 -1.4,0 0,0.9 c 0,0.6 -0.5,1 -1,1 l -16.2,0 c -0.6,0 -1,-0.5 -1,-1 l 0,-14 c 0,-0.6 0.5,-1 1,-1 l 2.1,0 0,1.1 C 4.6,5 4.9,5.3 5.3,5.3 5.7,5.3 5.9,5 5.9,4.6 l 0,-1.1 3.9,0 0,1.1 c 0,0.4 0.3,0.7 0.7,0.7 0.4,0 0.7,-0.3 0.7,-0.7 l 0,-1.1 3.9,0 0,1.1 c 0,0.4 0.3,0.7 0.7,0.7 0.4,0 0.7,-0.3 0.7,-0.7 l 0,-1.1 2.1,0 c 0.6,0 1,0.5 1,1 l 0,1.6 1.4,0 z"
         id="path23"
         inkscape:connector-curvature="0"
         style="fill:#a7a7a7" /></g></g></svg>