<?xml version="1.0" encoding="UTF-8" standalone="no"?>
<!-- Generator: Adobe Illustrator 20.1.0, SVG Export Plug-In . SVG Version: 6.00 Build 0)  -->

<svg
   xmlns:dc="http://purl.org/dc/elements/1.1/"
   xmlns:cc="http://creativecommons.org/ns#"
   xmlns:rdf="http://www.w3.org/1999/02/22-rdf-syntax-ns#"
   xmlns:svg="http://www.w3.org/2000/svg"
   xmlns="http://www.w3.org/2000/svg"
   xmlns:sodipodi="http://sodipodi.sourceforge.net/DTD/sodipodi-0.dtd"
   xmlns:inkscape="http://www.inkscape.org/namespaces/inkscape"
   version="1.1"
   id="Layer_1"
   x="0px"
   y="0px"
   viewBox="0 0 24.5 21.1"
   xml:space="preserve"
   inkscape:version="0.91 r13725"
   sodipodi:docname="Calendar-2.svg"
   width="24.5"
   height="21.1"><metadata
     id="metadata29"><rdf:RDF><cc:Work
         rdf:about=""><dc:format>image/svg+xml</dc:format><dc:type
           rdf:resource="http://purl.org/dc/dcmitype/StillImage" /><dc:title></dc:title></cc:Work></rdf:RDF></metadata><defs
     id="defs27" /><sodipodi:namedview
     pagecolor="#ffffff"
     bordercolor="#666666"
     borderopacity="1"
     objecttolerance="10"
     gridtolerance="10"
     guidetolerance="10"
     inkscape:pageopacity="0"
     inkscape:pageshadow="2"
     inkscape:window-width="742"
     inkscape:window-height="480"
     id="namedview25"
     showgrid="false"
     fit-margin-top="0"
     fit-margin-left="0"
     fit-margin-right="0"
     fit-margin-bottom="0"
     inkscape:zoom="11.238095"
     inkscape:cx="12.2"
     inkscape:cy="10.6"
     inkscape:window-x="0"
     inkscape:window-y="0"
     inkscape:window-maximized="0"
     inkscape:current-layer="Layer_1" /><style
     type="text/css"
     id="style3">
	.st0{fill:#F0692F;}
	.st1{fill:#A7A7A7;}
</style><g
     id="g5"><polygon
       class="st0"
       points="10.7,9.4 10.7,11.9 10.7,14.3 4.9,14.3 4.9,16.3 0,11.9 4.9,7.5 4.9,9.4 "
       id="polygon7"
       style="fill:#f0692f" /><g
       id="g9"><rect
         x="17.200001"
         y="7.8000002"
         class="st1"
         width="2.5999999"
         height="2"
         id="rect11"
         style="fill:#a7a7a7" /><rect
         x="12.6"
         y="7.8000002"
         class="st1"
         width="2.5999999"
         height="2"
         id="rect13"
         style="fill:#a7a7a7" /><rect
         x="17.200001"
         y="11"
         class="st1"
         width="2.5999999"
         height="2"
         id="rect15"
         style="fill:#a7a7a7" /><rect
         x="12.6"
         y="11"
         class="st1"
         width="2.5999999"
         height="2"
         id="rect17"
         style="fill:#a7a7a7" /><rect
         x="17.200001"
         y="14.3"
         class="st1"
         width="2.5999999"
         height="2"
         id="rect19"
         style="fill:#a7a7a7" /><rect
         x="12.6"
         y="14.3"
         class="st1"
         width="2.5999999"
         height="2"
         id="rect21"
         style="fill:#a7a7a7" /><path
         class="st1"
         d="m 3.4,6.2 0,-1.7 C 3.4,3.1 4.5,2 5.9,2 L 8,2 8,0.7 C 8,0.3 8.3,0 8.7,0 9.1,0 9.4,0.3 9.4,0.7 l 0,1.4 3.9,0 0,-1.4 C 13.3,0.3 13.6,0 14,0 c 0.4,0 0.7,0.3 0.7,0.7 l 0,1.4 3.9,0 0,-1.4 C 18.6,0.3 18.9,0 19.3,0 19.7,0 20,0.3 20,0.7 l 0,1.4 2,0 c 1.4,0 2.5,1.1 2.5,2.5 l 0,14 c 0,1.4 -1.1,2.5 -2.5,2.5 l -16.1,0 C 4.5,21.1 3.4,20 3.4,18.6 l 0,-0.9 1.4,0 0,0.9 c 0,0.6 0.5,1 1,1 l 16.2,0 c 0.6,0 1,-0.5 1,-1 l 0,-14 c 0,-0.6 -0.5,-1 -1,-1 l -2.1,0 0,1.1 c 0,0.4 -0.3,0.7 -0.7,0.7 -0.4,0 -0.7,-0.3 -0.7,-0.7 l 0,-1.2 -3.9,0 0,1.1 C 14.6,5 14.3,5.3 13.9,5.3 13.5,5.3 13.2,5 13.2,4.6 l 0,-1.1 -3.8,0 0,1.1 C 9.4,5 9.1,5.3 8.7,5.3 8.3,5.3 8,5 8,4.6 l 0,-1.1 -2.1,0 c -0.6,0 -1,0.5 -1,1 l 0,1.6 -1.5,0 z"
         id="path23"
         inkscape:connector-curvature="0"
         style="fill:#a7a7a7" /></g></g></svg>