<?xml version="1.0" encoding="UTF-8" standalone="no"?>
<!-- Generator: Adobe Illustrator 20.1.0, SVG Export Plug-In . SVG Version: 6.00 Build 0)  -->

<svg
   xmlns:dc="http://purl.org/dc/elements/1.1/"
   xmlns:cc="http://creativecommons.org/ns#"
   xmlns:rdf="http://www.w3.org/1999/02/22-rdf-syntax-ns#"
   xmlns:svg="http://www.w3.org/2000/svg"
   xmlns="http://www.w3.org/2000/svg"
   xmlns:sodipodi="http://sodipodi.sourceforge.net/DTD/sodipodi-0.dtd"
   xmlns:inkscape="http://www.inkscape.org/namespaces/inkscape"
   version="1.1"
   id="Layer_1"
   x="0px"
   y="0px"
   viewBox="0 0 8.4627415 14.1"
   xml:space="preserve"
   inkscape:version="0.91 r13725"
   sodipodi:docname="Child price grey.svg"
   width="8.4627419"
   height="14.1"><metadata
     id="metadata15"><rdf:RDF><cc:Work
         rdf:about=""><dc:format>image/svg+xml</dc:format><dc:type
           rdf:resource="http://purl.org/dc/dcmitype/StillImage" /><dc:title></dc:title></cc:Work></rdf:RDF></metadata><defs
     id="defs13" /><sodipodi:namedview
     pagecolor="#ffffff"
     bordercolor="#666666"
     borderopacity="1"
     objecttolerance="10"
     gridtolerance="10"
     guidetolerance="10"
     inkscape:pageopacity="0"
     inkscape:pageshadow="2"
     inkscape:window-width="742"
     inkscape:window-height="480"
     id="namedview11"
     showgrid="false"
     fit-margin-top="0"
     fit-margin-left="0"
     fit-margin-right="0"
     fit-margin-bottom="0"
     inkscape:zoom="16.857143"
     inkscape:cx="4.231371"
     inkscape:cy="7"
     inkscape:window-x="0"
     inkscape:window-y="0"
     inkscape:window-maximized="0"
     inkscape:current-layer="Layer_1" /><style
     type="text/css"
     id="style3">
	.st0{fill:#8E8E8E;}
</style><g
     id="g5"
     transform="translate(-0.06862915,0.1)"><path
       class="st0"
       d="M 8.4,8 6.6,5.8 C 6.4,5.6 6.2,5.5 6,5.5 l -1.7,0 -1.7,0 C 2.4,5.5 2.1,5.6 2,5.8 L 0.2,8 C 0,8.2 0,8.7 0.4,9 l 0.2,0.2 c 0.3,0.2 0.7,0.2 1,-0.1 l 0.3,-0.5 0,1.5 c 0,0.3 0.1,0.6 0.3,0.7 l 0,2.5 C 2.2,13.7 2.6,14 3,14 l 0.3,0 C 3.7,14 4,13.7 4,13.3 l 0,-2.4 0.2,0 0.2,0 0,2.4 c 0,0.4 0.3,0.7 0.7,0.7 l 0.3,0 c 0.4,0 0.7,-0.3 0.7,-0.7 l 0,-2.5 C 6.3,10.7 6.4,10.5 6.4,10.1 L 6.4,8.6 7,9.1 C 7.2,9.4 7.7,9.4 8,9.2 L 8.2,9 C 8.6,8.7 8.6,8.2 8.4,8 Z"
       id="path7"
       inkscape:connector-curvature="0"
       style="fill:#8e8e8e" /><path
       class="st0"
       d="M 4.3,4.7 C 5.5,4.6 6.6,3.6 6.6,2.3 6.6,1 5.6,0 4.3,-0.1 3,0.1 2,1.1 2,2.4 2,3.6 3,4.7 4.3,4.7 Z"
       id="path9"
       inkscape:connector-curvature="0"
       style="fill:#8e8e8e" /></g></svg>