<?xml version="1.0" encoding="UTF-8" standalone="no"?>
<!-- Generator: Adobe Illustrator 20.1.0, SVG Export Plug-In . SVG Version: 6.00 Build 0)  -->

<svg
   xmlns:dc="http://purl.org/dc/elements/1.1/"
   xmlns:cc="http://creativecommons.org/ns#"
   xmlns:rdf="http://www.w3.org/1999/02/22-rdf-syntax-ns#"
   xmlns:svg="http://www.w3.org/2000/svg"
   xmlns="http://www.w3.org/2000/svg"
   xmlns:sodipodi="http://sodipodi.sourceforge.net/DTD/sodipodi-0.dtd"
   xmlns:inkscape="http://www.inkscape.org/namespaces/inkscape"
   version="1.1"
   id="Layer_1"
   x="0px"
   y="0px"
   viewBox="0 0 10.409476 17"
   xml:space="preserve"
   inkscape:version="0.91 r13725"
   sodipodi:docname="Child.svg"
   width="10.409475"
   height="17"><metadata
     id="metadata15"><rdf:RDF><cc:Work
         rdf:about=""><dc:format>image/svg+xml</dc:format><dc:type
           rdf:resource="http://purl.org/dc/dcmitype/StillImage" /><dc:title></dc:title></cc:Work></rdf:RDF></metadata><defs
     id="defs13" /><sodipodi:namedview
     pagecolor="#ffffff"
     bordercolor="#666666"
     borderopacity="1"
     objecttolerance="10"
     gridtolerance="10"
     guidetolerance="10"
     inkscape:pageopacity="0"
     inkscape:pageshadow="2"
     inkscape:window-width="742"
     inkscape:window-height="480"
     id="namedview11"
     showgrid="false"
     fit-margin-top="0"
     fit-margin-left="0"
     fit-margin-right="0"
     fit-margin-bottom="0"
     inkscape:zoom="13.882353"
     inkscape:cx="5.2047373"
     inkscape:cy="8.5"
     inkscape:window-x="0"
     inkscape:window-y="0"
     inkscape:window-maximized="0"
     inkscape:current-layer="Layer_1" /><style
     type="text/css"
     id="style3">
	.st0{fill:#058FC7;}
</style><g
     id="g5"
     transform="translate(0.00473751,0)"><path
       class="st0"
       d="M 10.2,9.7 8,7 C 7.8,6.8 7.5,6.7 7.3,6.7 l -2.1,0 -2.1,0 C 2.9,6.7 2.6,6.8 2.4,7 L 0.2,9.7 c -0.3,0.3 -0.3,0.9 0.2,1.2 l 0.3,0.3 c 0.4,0.3 0.9,0.3 1.2,-0.1 l 0.4,-0.6 0,1.8 c 0,0.4 0.1,0.7 0.4,0.8 l 0,3 c 0,0.5 0.4,0.9 0.9,0.9 L 4,17 c 0.5,0 0.9,-0.4 0.9,-0.9 l 0,-2.9 0.3,0 0.3,0 0,2.9 c 0,0.5 0.4,0.9 0.9,0.9 l 0.4,0 c 0.5,0 0.9,-0.4 0.9,-0.9 l 0,-3 C 8,13 8.1,12.7 8.1,12.3 l 0,-1.8 0.4,0.6 c 0.3,0.4 0.8,0.4 1.2,0.1 L 10,10.9 c 0.5,-0.3 0.5,-0.9 0.2,-1.2 z"
       id="path7"
       inkscape:connector-curvature="0"
       style="fill:#058fc7" /><path
       class="st0"
       d="M 5.2,5.8 C 6.7,5.7 8,4.4 8,2.9 8,1.4 6.8,0.1 5.2,0 3.6,0.1 2.4,1.4 2.4,2.9 c 0,1.5 1.3,2.8 2.8,2.9 z"
       id="path9"
       inkscape:connector-curvature="0"
       style="fill:#058fc7" /></g></svg>