<?xml version="1.0" encoding="UTF-8" standalone="no"?>
<!-- Generator: Adobe Illustrator 20.1.0, SVG Export Plug-In . SVG Version: 6.00 Build 0)  -->

<svg
   xmlns:dc="http://purl.org/dc/elements/1.1/"
   xmlns:cc="http://creativecommons.org/ns#"
   xmlns:rdf="http://www.w3.org/1999/02/22-rdf-syntax-ns#"
   xmlns:svg="http://www.w3.org/2000/svg"
   xmlns="http://www.w3.org/2000/svg"
   xmlns:sodipodi="http://sodipodi.sourceforge.net/DTD/sodipodi-0.dtd"
   xmlns:inkscape="http://www.inkscape.org/namespaces/inkscape"
   version="1.1"
   id="Layer_1"
   x="0px"
   y="0px"
   viewBox="0 0 10.407742 15.108"
   xml:space="preserve"
   inkscape:version="0.91 r13725"
   sodipodi:docname="Infant.svg"
   width="10.407742"
   height="15.108"><metadata
     id="metadata11"><rdf:RDF><cc:Work
         rdf:about=""><dc:format>image/svg+xml</dc:format><dc:type
           rdf:resource="http://purl.org/dc/dcmitype/StillImage" /><dc:title></dc:title></cc:Work></rdf:RDF></metadata><defs
     id="defs9" /><sodipodi:namedview
     pagecolor="#ffffff"
     bordercolor="#666666"
     borderopacity="1"
     objecttolerance="10"
     gridtolerance="10"
     guidetolerance="10"
     inkscape:pageopacity="0"
     inkscape:pageshadow="2"
     inkscape:window-width="742"
     inkscape:window-height="480"
     id="namedview7"
     showgrid="false"
     fit-margin-top="0"
     fit-margin-left="0"
     fit-margin-right="0"
     fit-margin-bottom="0"
     inkscape:zoom="15.733333"
     inkscape:cx="5.1999998"
     inkscape:cy="7.608"
     inkscape:window-x="0"
     inkscape:window-y="0"
     inkscape:window-maximized="0"
     inkscape:current-layer="Layer_1" /><style
     type="text/css"
     id="style3">
	.st0{fill:#058FC7;}
</style><path
     class="st0"
     d="M 5.2,4.2 C 6.4,4.2 7.3,3.3 7.3,2.1 7.3,0.9 6.3,0 5.2,0 4.1,0 3.1,0.9 3.1,2.1 3.1,3.3 4,4.2 5.2,4.2 Z m 2.4,5.8 -2.1,1.4 1.3,1.4 -1.4,1.3 c -0.2,0.4 0.2,0.7 0.2,0.7 0.5,0.4 1.1,0.1 1.1,0.1 L 8.4,13.2 C 9.3,12.5 8.8,11.3 8.8,11.3 L 7.6,10 Z M 5.2,4.6 C 0.3,5.2 0,8.6 0,8.6 0,9.2 0.8,8.9 0.9,8.8 1.4,8.2 2.1,6.9 2.8,7.1 c 0,0 0,1.5 0,1.5 l 4.8,0 c 0,0 0,-1.5 0,-1.5 0.6,-0.2 1.4,1.2 1.9,1.7 0.1,0.1 1,0.4 0.9,-0.2 0,0 -0.3,-3.4 -5.2,-4 z M 3.6,12.8 4.9,11.4 2.8,10 1.7,11.4 c 0,0 -0.5,1.1 0.4,1.9 L 3.8,15 c 0,0 0.6,0.3 1.1,-0.1 0,0 0.4,-0.3 0.2,-0.7 L 3.6,12.8 Z"
     id="path5"
     inkscape:connector-curvature="0"
     style="fill:#058fc7" /></svg>