<?xml version="1.0" encoding="utf-8"?>
<!-- Generator: Adobe Illustrator 20.1.0, SVG Export Plug-In . SVG Version: 6.00 Build 0)  -->
<svg version="1.1" id="Layer_1" xmlns="http://www.w3.org/2000/svg" xmlns:xlink="http://www.w3.org/1999/xlink" x="0px" y="0px"
	 viewBox="0 0 18 16.9" style="enable-background:new 0 0 18 16.9;" xml:space="preserve">
<style type="text/css">
	.st0{fill:#058FC7;}
</style>
<path class="st0" d="M8.1,8.2L8.1,8.2c0,0-0.1,0-0.1,0L4.7,9.4l-1.4,3l-1,0.4c0,0-0.1,0-0.1,0c-0.1,0-0.1-0.1-0.2-0.2
	c0-0.1,0-0.1,0-0.2l0.3-1.9c0-0.1,0-0.1,0-0.1c0,0-0.1-0.1-0.1-0.1c-0.1,0-0.2,0-0.3,0c-0.1,0.1-0.2,0.1-0.3,0.1
	c-0.2,0.1-0.5,0.1-0.8-0.1c-0.2-0.1-0.3-0.3-0.2-0.5c0.1-0.1,0.1-0.2,0.2-0.3C1,9.4,1.1,9.3,1.2,9.3l0.4-0.2c0,0,0,0,0,0
	c0,0,0,0,0,0c0,0,0.1,0,0.1-0.1c0,0,0-0.1,0-0.1c0-0.1-0.1-0.1-0.1-0.1L0.1,7.5C0,7.4,0,7.3,0,7.2l0,0c0,0,0,0,0.1-0.1L1,6.7
	c0,0,0.1,0,0.1,0c0,0,0.1,0,0.1,0L4,7.9c0,0,0,0,0.1,0c0,0,0.1,0,0.1,0l3-1.3c0,0,0.1,0,0.1-0.1c0-0.1,0-0.2,0-0.3L1.1,0.7
	c0,0-0.1-0.1-0.1-0.1c0-0.1,0-0.1,0-0.1l0-0.1c0,0,0-0.1,0.1-0.1L2,0c0,0,0.1,0,0.1,0c0,0,0.1,0,0.1,0l10,4.3l3.6-1.5
	c0.3-0.1,0.5-0.2,0.8-0.1c0.3,0,0.6,0.1,0.8,0.2c0.2,0.1,0.3,0.2,0.4,0.3C18,3.2,18,3.4,18,3.6l-0.1,0.1l-0.1,0.1
	c-0.1,0.2-0.2,0.4-0.4,0.6c-0.2,0.2-0.4,0.4-0.6,0.4l-3.7,1.4c0,0-0.1,0-0.1,0.1c0,0,0,0.1-0.1,0.1l-4.1,9.6c0,0,0,0.1-0.1,0.2
	c-0.1,0.1-0.1,0.1-0.1,0.2c0,0,0,0-0.1,0.1c0,0-0.1,0-0.1,0l-0.7,0.3c-0.1,0-0.2,0-0.2,0c-0.1,0-0.2-0.1-0.1-0.3l0.7-8.1
	c0-0.1,0-0.1,0-0.2C8.1,8.3,8.1,8.2,8.1,8.2z"/>
</svg>
