<?xml version="1.0" encoding="utf-8"?>
<!-- Generator: Adobe Illustrator 20.1.0, SVG Export Plug-In . SVG Version: 6.00 Build 0)  -->
<svg version="1.1" id="Layer_1" xmlns="http://www.w3.org/2000/svg" xmlns:xlink="http://www.w3.org/1999/xlink" x="0px" y="0px"
	 viewBox="0 0 52.2 50.1" style="enable-background:new 0 0 52.2 50.1;" xml:space="preserve">
<style type="text/css">
	.st0{fill:#B6B6B6;}
</style>
<g>
	<path class="st0" d="M12.5,50.1l-0.2,0c-0.7-0.1-1.2-0.3-1.5-0.7c-0.7-0.7-0.9-1.8-0.4-2.8l8.8-17.3l-6.1-0.2l-6.2,5.9l-3.5,0
		c-0.6,0-1.1-0.3-1.6-0.7C1.2,33.5,1,32.7,1.1,32c0.1-0.4,0.2-0.7,0.3-1l1.6-2.7C2.2,28,1.5,27.6,0.9,27c-1.2-1.2-1.2-2.8,0-4
		c0.4-0.4,0.8-0.7,1.3-0.9c0.3-0.1,0.6-0.3,0.9-0.3L1.4,19c-0.6-1.2-0.3-2.3,0.5-3.1c0.2-0.2,0.4-0.3,0.6-0.4l0.4-0.3l3.7,0.1
		c0.4,0.1,0.9,0.2,1.2,0.6l5.2,5.2l6.2-0.2L10.5,3.6c-0.5-0.8-0.4-1.7,0.2-2.4C10.8,1,11,0.9,11.1,0.8l0.2-0.2
		C11.6,0.2,12.2,0,12.7,0l2.1,0c0.4,0,0.7,0,0.9,0.1c0.5,0.1,0.8,0.3,1.1,0.6l19.5,19.7l9.4-0.2c1,0,2,0.2,3,0.7
		c0.9,0.4,1.7,1,2.3,1.6c0.5,0.5,0.9,1.1,1.1,1.8c0.2,0.6,0.3,1.6-0.4,2.8l-0.8,0.9c-0.5,0.5-1.2,1-1.9,1.4c-1,0.6-1.9,0.8-2.9,0.7
		l-9.8-0.2L17.2,48.8c0,0-0.2,0.2-0.5,0.5l-0.3,0.2c-0.2,0.2-0.6,0.4-0.9,0.5c-0.3,0.1-0.6,0.1-0.8,0.1L12.5,50.1z M22.2,25.7h0.1
		l0.6,0.6c0.4,0.5,0.7,1.1,0.7,1.7c0,0.5-0.1,1-0.4,1.4l-8.6,16.8l0.1-0.1L34,27c0.1-0.1,0.2-0.2,0.4-0.3c0.4-0.4,1-0.5,1.6-0.5
		l10.3,0.3c0.3,0,0.6-0.1,0.9-0.2c0.5-0.3,0.9-0.6,1.2-0.9l0.2-0.2c0-0.1-0.1-0.1-0.2-0.2c-0.3-0.3-0.8-0.6-1.3-0.9
		c-0.5-0.2-0.9-0.3-1.3-0.3L34.8,24L14.7,3.8l8.8,17.5c0.3,0.9,0.1,1.9-0.6,2.6c-0.6,0.6-1.1,0.7-1.5,0.7l-8.5,0.3
		c-0.3,0-0.7,0-1.1-0.2l-0.4-0.1l-0.5-0.4l-5.3-5.3l1.6,2.6c0.2,0.4,0.3,0.8,0.4,1.2c0,0.7-0.2,1.3-0.7,1.8
		c-0.1,0.1-0.3,0.3-0.6,0.4L6.1,25c0.3,0.1,0.5,0.3,0.7,0.5c0.3,0.3,0.5,0.6,0.6,1c0.2,0.6,0.1,1.4-0.3,1.9l-1.6,2.6l6.2-5.9
		L22.2,25.7z M5,28.4C5,28.4,5,28.4,5,28.4C5,28.4,5,28.4,5,28.4z M20,27.6C20,27.6,20,27.6,20,27.6L20,27.6
		C20,27.6,20,27.6,20,27.6z M4.1,26.6C4.1,26.6,4,26.6,4.1,26.6L4.1,26.6z M21.2,20.9C21.2,20.9,21.2,20.9,21.2,20.9L21.2,20.9z"/>
</g>
</svg>
