<?xml version="1.0" encoding="UTF-8" standalone="no"?>
<!-- Generator: Adobe Illustrator 20.1.0, SVG Export Plug-In . SVG Version: 6.00 Build 0)  -->

<svg
   xmlns:dc="http://purl.org/dc/elements/1.1/"
   xmlns:cc="http://creativecommons.org/ns#"
   xmlns:rdf="http://www.w3.org/1999/02/22-rdf-syntax-ns#"
   xmlns:svg="http://www.w3.org/2000/svg"
   xmlns="http://www.w3.org/2000/svg"
   xmlns:sodipodi="http://sodipodi.sourceforge.net/DTD/sodipodi-0.dtd"
   xmlns:inkscape="http://www.inkscape.org/namespaces/inkscape"
   version="1.1"
   id="Layer_1"
   x="0px"
   y="0px"
   viewBox="0 0 17.9 16.8"
   xml:space="preserve"
   inkscape:version="0.91 r13725"
   sodipodi:docname="Plaine down.svg"
   width="17.9"
   height="16.799999"><metadata
     id="metadata11"><rdf:RDF><cc:Work
         rdf:about=""><dc:format>image/svg+xml</dc:format><dc:type
           rdf:resource="http://purl.org/dc/dcmitype/StillImage" /><dc:title></dc:title></cc:Work></rdf:RDF></metadata><defs
     id="defs9" /><sodipodi:namedview
     pagecolor="#ffffff"
     bordercolor="#666666"
     borderopacity="1"
     objecttolerance="10"
     gridtolerance="10"
     guidetolerance="10"
     inkscape:pageopacity="0"
     inkscape:pageshadow="2"
     inkscape:window-width="742"
     inkscape:window-height="480"
     id="namedview7"
     showgrid="false"
     fit-margin-top="0"
     fit-margin-left="0"
     fit-margin-right="0"
     fit-margin-bottom="0"
     inkscape:zoom="13.964497"
     inkscape:cx="9"
     inkscape:cy="8.3500002"
     inkscape:window-x="0"
     inkscape:window-y="0"
     inkscape:window-maximized="0"
     inkscape:current-layer="Layer_1" /><style
     type="text/css"
     id="style3">
	.st0{fill:#058FC7;}
</style><path
     class="st0"
     d="m 8.1,8.6 0,0 c 0,0 -0.1,0 -0.1,0 L 4.7,7.5 3.3,4.5 2.3,4.1 c 0,0 -0.1,0 -0.1,0 C 2.1,4.1 2.1,4.2 2,4.3 2,4.4 2,4.4 2,4.5 l 0.3,1.9 c 0,0.1 0,0.1 0,0.1 0,0 -0.1,0.1 -0.1,0.1 -0.1,0 -0.2,0 -0.3,0 C 1.8,6.5 1.8,6.5 1.7,6.5 1.4,6.4 1.2,6.4 0.9,6.5 0.7,6.6 0.6,6.8 0.7,7 0.8,7.1 0.8,7.2 0.9,7.3 1,7.5 1.1,7.6 1.2,7.6 l 0.4,0.2 c 0,0 0,0 0,0 0,0 0,0 0,0 0,0 0.1,0 0.1,0.1 0,0 0,0.1 0,0.1 0,0.1 -0.1,0.1 -0.1,0.1 L 0.1,9.4 C 0,9.5 0,9.6 0,9.7 l 0,0 c 0,0 0,0 0.1,0.1 L 1,10.2 c 0,0 0.1,0 0.1,0 0,0 0.1,0 0.1,0 L 4,9 c 0,0 0,0 0.1,0 0,0 0.1,0 0.1,0 l 3,1.3 c 0,0 0.1,0 0.1,0.1 0,0.1 0,0.2 0,0.3 l -6.2,5.4 c 0,0 -0.1,0.1 -0.1,0.1 0,0.1 0,0.1 0,0.1 l 0,0.1 c 0,0 0,0.1 0.1,0.1 L 2,16.8 c 0,0 0.1,0 0.1,0 0,0 0.1,0 0.1,0 l 10,-4.3 3.6,1.5 c 0.3,0.1 0.5,0.2 0.8,0.1 0.3,0 0.6,-0.1 0.8,-0.2 0.2,-0.1 0.3,-0.2 0.4,-0.3 0.1,-0.1 0.1,-0.3 0.1,-0.5 L 17.8,13 17.9,13 C 17.8,12.8 17.7,12.6 17.5,12.4 17.3,12.2 17.1,12 16.9,12 l -3.7,-1.4 c 0,0 -0.1,0 -0.1,-0.1 0,0 0,-0.1 -0.1,-0.1 L 8.9,0.8 c 0,0 0,-0.1 -0.1,-0.2 0,-0.1 -0.1,-0.2 -0.1,-0.2 0,0 0,0 -0.1,-0.1 0,0 -0.1,0 -0.1,0 L 7.8,0 C 7.7,0 7.7,0 7.6,0 7.5,0 7.4,0.1 7.5,0.3 l 0.7,8.1 c 0,0.1 0,0.1 0,0.2 -0.1,0 -0.1,0 -0.1,0 z"
     id="path5"
     inkscape:connector-curvature="0"
     style="fill:#058fc7" /></svg>