<?xml version="1.0" encoding="utf-8"?>
<!-- Generator: Adobe Illustrator 20.1.0, SVG Export Plug-In . SVG Version: 6.00 Build 0)  -->
<svg version="1.1" id="Layer_1" xmlns="http://www.w3.org/2000/svg" xmlns:xlink="http://www.w3.org/1999/xlink" x="0px" y="0px"
	 viewBox="0 0 45.5 43.2" style="enable-background:new 0 0 45.5 43.2;" xml:space="preserve">
<style type="text/css">
	.st0{fill:#B6B6B6;}
</style>
<g>
	<path class="st0" d="M37.4,8.2V7.7C37.4,3.4,34,0,29.8,0h-14c-4.2,0-7.7,3.4-7.7,7.7v0.5C3.6,8.5,0,12.2,0,16.8v17.8
		c0,4.8,3.9,8.6,8.6,8.6h28.3c4.8,0,8.6-3.9,8.6-8.6V16.8C45.5,12.2,41.9,8.5,37.4,8.2z M15.7,5h14c1.5,0,2.7,1.2,2.7,2.7v0.5H13.1
		V7.7C13.1,6.2,14.3,5,15.7,5z M40.5,34.6c0,2-1.6,3.6-3.6,3.6H8.6c-2,0-3.6-1.6-3.6-3.6V16.8c0-2,1.6-3.6,3.6-3.6h28.3
		c2,0,3.6,1.6,3.6,3.6V34.6z"/>
	<path class="st0" d="M28.5,17.1H17c-1.8,0-3.2,1.4-3.2,3.2s1.4,3.2,3.2,3.2h11.6c1.8,0,3.2-1.4,3.2-3.2S30.3,17.1,28.5,17.1z"/>
</g>
</svg>
