<?xml version="1.0" encoding="utf-8"?>
<!-- Generator: Adobe Illustrator 20.1.0, SVG Export Plug-In . SVG Version: 6.00 Build 0)  -->
<svg version="1.1" id="Layer_1" xmlns="http://www.w3.org/2000/svg" xmlns:xlink="http://www.w3.org/1999/xlink" x="0px" y="0px"
	 viewBox="0 0 52.3 46.1" style="enable-background:new 0 0 52.3 46.1;" xml:space="preserve">
<style type="text/css">
	.st0{fill:#B6B6B6;}
</style>
<path class="st0" d="M50,31.8c-0.7-0.8-1.5-1.4-2.4-1.8v-5.7H20.4L15.1,7.1L15,6.9C14.8,6.6,11.1,0,3.1,0H0l9.4,46.1h42.2L52,44
	C52.1,43.2,53.2,35.7,50,31.8z M6.3,5.6c2.5,1,3.9,2.9,4.2,3.5l6.2,20.2h25.9v0.1H11.1L6.3,5.6z M47.2,41.1H13.5l-1.4-6.7H45
	c0.5,0,0.8,0.2,1.1,0.5C47.1,36.1,47.3,38.8,47.2,41.1z"/>
</svg>
