<svg id="Слой_1" data-name="Слой 1" xmlns="http://www.w3.org/2000/svg" width="211.5" height="51.12" viewBox="0 0 211.5 51.12"><title>1000r</title><polygon points="25.56 0 22.49 2.25 18.95 0.87 16.56 3.83 12.78 3.42 11.24 6.9 7.49 7.49 6.91 11.24 3.42 12.78 3.83 16.56 0.87 18.95 2.25 22.49 0 25.56 2.25 28.63 0.87 32.18 3.83 34.56 3.42 38.34 6.91 39.88 7.49 43.63 11.24 44.22 12.78 47.7 16.56 47.29 18.95 50.25 22.49 48.88 25.56 51.12 28.63 48.88 32.18 50.25 34.56 47.29 38.34 47.7 39.88 44.22 43.63 43.63 44.22 39.88 47.7 38.34 47.29 34.56 50.25 32.18 48.88 28.63 51.12 25.56 48.88 22.49 50.25 18.95 47.29 16.56 47.7 12.78 44.22 11.24 43.63 7.49 39.88 6.9 38.34 3.42 34.56 3.83 32.18 0.87 28.63 2.25 25.56 0" fill="#f9f200"/><path d="M8.36,31.34V22.19a5.57,5.57,0,0,1-1.29.55A8.83,8.83,0,0,1,5.56,23V20.19a9.94,9.94,0,0,0,2.23-.64,11.49,11.49,0,0,0,2.11-1.2h2.23v13H8.36Z" transform="translate(0 -0.07)" fill="#231f20"/><path d="M23.94,24.88a8.38,8.38,0,0,1-1.25,5,4.22,4.22,0,0,1-3.64,1.71A4.33,4.33,0,0,1,15.4,30a7.94,7.94,0,0,1-1.21-4.86,8.15,8.15,0,0,1,1.31-5,4.47,4.47,0,0,1,3.78-1.71Q23.94,18.41,23.94,24.88Zm-3.72,0a10.76,10.76,0,0,0-.27-2.8,1,1,0,0,0-.86-0.9q-1.16,0-1.16,3.88a10.8,10.8,0,0,0,.27,2.82,1,1,0,0,0,.86.92Q20.22,28.8,20.22,24.88Z" transform="translate(0 -0.07)" fill="#231f20"/><path d="M34.82,24.88a8.38,8.38,0,0,1-1.25,5,4.22,4.22,0,0,1-3.64,1.71A4.33,4.33,0,0,1,26.28,30a7.94,7.94,0,0,1-1.21-4.86,8.15,8.15,0,0,1,1.31-5,4.47,4.47,0,0,1,3.78-1.71Q34.82,18.41,34.82,24.88Zm-3.72,0a10.76,10.76,0,0,0-.27-2.8,1,1,0,0,0-.86-0.9q-1.16,0-1.16,3.88a10.8,10.8,0,0,0,.27,2.82,1,1,0,0,0,.86.92Q31.1,28.8,31.1,24.88Z" transform="translate(0 -0.07)" fill="#231f20"/><path d="M45.7,24.88a8.38,8.38,0,0,1-1.25,5,4.22,4.22,0,0,1-3.64,1.71A4.33,4.33,0,0,1,37.16,30a7.94,7.94,0,0,1-1.21-4.86,8.15,8.15,0,0,1,1.31-5A4.47,4.47,0,0,1,41,18.41Q45.7,18.41,45.7,24.88Zm-3.72,0a10.76,10.76,0,0,0-.27-2.8,1,1,0,0,0-.86-0.9q-1.16,0-1.16,3.88A10.8,10.8,0,0,0,40,27.88a1,1,0,0,0,.86.92Q42,28.8,42,24.88Z" transform="translate(0 -0.07)" fill="#231f20"/><path d="M199.26,25.33a6.65,6.65,0,0,1-2.91,5.3,6.9,6.9,0,0,0-1.4,1.38,2.56,2.56,0,0,0-.41,1.48V34H190V32.77a4.86,4.86,0,0,1,1.64-3.89A17.44,17.44,0,0,0,193,27.63a2.32,2.32,0,0,0,.43-0.65,1.91,1.91,0,0,0,.13-0.73,1.06,1.06,0,0,0-.45-0.87,1.86,1.86,0,0,0-1.17-.35,7.87,7.87,0,0,0-4.58,1.75V21.45a9.4,9.4,0,0,1,2.38-.87,11.47,11.47,0,0,1,2.69-.37,8.4,8.4,0,0,1,5.08,1.31A4.45,4.45,0,0,1,199.26,25.33Zm-3.61,12.5a2.52,2.52,0,0,1-.87,2,3.42,3.42,0,0,1-2.35.77,3.36,3.36,0,0,1-2.32-.79,2.51,2.51,0,0,1-.89-2,2.41,2.41,0,0,1,.87-1.93,4.07,4.07,0,0,1,4.68,0A2.39,2.39,0,0,1,195.65,37.82Z" transform="translate(0 -0.07)" fill="#231f20"/><path d="M56.42,23.24v3.37h-0.8V18h2.23a3.94,3.94,0,0,1,1.21.17,2.46,2.46,0,0,1,.89.49,2.06,2.06,0,0,1,.55.79,2.83,2.83,0,0,1,.19,1.06,2.88,2.88,0,0,1-.21,1.11,2.51,2.51,0,0,1-.61.88,2.8,2.8,0,0,1-1,.58,3.71,3.71,0,0,1-1.29.21h-1.2Zm0-4.55v3.82h1.15a2.46,2.46,0,0,0,1.7-.52,1.87,1.87,0,0,0,.58-1.47q0-1.83-2.14-1.83H56.42Z" transform="translate(0 -0.07)" fill="#231f20"/><path d="M65.27,24.17a11,11,0,0,1-.58,1.15,4.08,4.08,0,0,1-.6.81,2.18,2.18,0,0,1-.68.48,2,2,0,0,1-.8.16,2.81,2.81,0,0,1-.54,0,2.09,2.09,0,0,1-.44-0.13V25.75a2.3,2.3,0,0,0,.47.21,1.56,1.56,0,0,0,.46.08,1.26,1.26,0,0,0,.54-0.12,1.54,1.54,0,0,0,.46-0.34A3.36,3.36,0,0,0,64,25q0.21-.34.42-0.79L61.52,18h0.91l2.12,4.76L64.68,23l0.16,0.39h0L65,23.05l0.13-.31,2-4.79H68Z" transform="translate(0 -0.07)" fill="#231f20"/><path d="M74.29,24.07a2.77,2.77,0,0,1-.18,1,2.27,2.27,0,0,1-.53.81,2.39,2.39,0,0,1-.85.53,3.24,3.24,0,0,1-1.14.19H69.11V18h4.49v0.74H69.91v3h1.81a3.62,3.62,0,0,1,1.06.14,2.18,2.18,0,0,1,.82.44,2,2,0,0,1,.52.74A2.66,2.66,0,0,1,74.29,24.07Zm-0.85.05a1.53,1.53,0,0,0-.51-1.28,2.39,2.39,0,0,0-1.5-.4H69.91v3.43h1.55a2.76,2.76,0,0,0,.88-0.13A1.71,1.71,0,0,0,73,25.4a1.42,1.42,0,0,0,.37-0.55A2,2,0,0,0,73.45,24.13Z" transform="translate(0 -0.07)" fill="#231f20"/><path d="M81.07,26.61V18.7H78.49q-0.09.73-.19,1.42l-0.19,1.31Q78,22,77.94,22.58t-0.16,1q-0.14.76-.3,1.36a4.09,4.09,0,0,1-.39,1,1.76,1.76,0,0,1-.57.62,1.53,1.53,0,0,1-.84.21,2.47,2.47,0,0,1-.39,0L75,26.63V25.85a1.3,1.3,0,0,0,.62.15,0.69,0.69,0,0,0,.48-0.18,1.82,1.82,0,0,0,.38-0.51,4.52,4.52,0,0,0,.29-0.88q0.16-.63.34-1.58t0.36-2.19q0.19-1.24.37-2.71h4v8.66h-0.8Z" transform="translate(0 -0.07)" fill="#231f20"/><path d="M84.11,26.61V18h4.22v0.74H84.92v3.18h3.16v0.72H84.92v3.29h3.61v0.73H84.11Z" transform="translate(0 -0.07)" fill="#231f20"/><path d="M96.28,26.61V20.1q0-.3,0-0.55t0-.43h0a2.25,2.25,0,0,1-.15.28L96,19.66l-4.81,6.95H90.33V18h0.8v6.44q0,0.32,0,.58c0,0.17,0,.31,0,0.42h0l0.16-.27,0.19-.29L96.21,18h0.88v8.66H96.28Zm-2.56-9.86a1.47,1.47,0,0,0,.52-0.09,1.35,1.35,0,0,0,.43-0.25A1.38,1.38,0,0,0,95,16a1.22,1.22,0,0,0,.14-0.47H95.9a2.15,2.15,0,0,1-.23.7,1.91,1.91,0,0,1-.45.56,2.07,2.07,0,0,1-.66.37,2.49,2.49,0,0,1-.85.14,2.44,2.44,0,0,1-.84-0.14,1.9,1.9,0,0,1-.63-0.37,1.78,1.78,0,0,1-.42-0.56,2.2,2.2,0,0,1-.2-0.7h0.78a1.61,1.61,0,0,0,.12.49,1.11,1.11,0,0,0,.65.62A1.53,1.53,0,0,0,93.73,16.75Z" transform="translate(0 -0.07)" fill="#231f20"/><path d="M56,43V31.45h3.17a4.06,4.06,0,0,1,1.3.19,2.91,2.91,0,0,1,1,.55,2.37,2.37,0,0,1,.63.85,2.65,2.65,0,0,1,.22,1.08,3.11,3.11,0,0,1-.14.94,2.79,2.79,0,0,1-.4.8,2.64,2.64,0,0,1-.63.62,3.19,3.19,0,0,1-.85.42v0a3.16,3.16,0,0,1,1.06.28,2.67,2.67,0,0,1,.82.59,2.58,2.58,0,0,1,.53.85,3,3,0,0,1,.19,1.07,3.33,3.33,0,0,1-.27,1.35,3.09,3.09,0,0,1-.75,1.05,3.41,3.41,0,0,1-1.14.68,4.24,4.24,0,0,1-1.46.24H56Zm1.08-10.61v4.12h1.5a3.47,3.47,0,0,0,1.07-.15A2.34,2.34,0,0,0,60.46,36a2,2,0,0,0,.52-0.7,2.28,2.28,0,0,0,.18-0.93q0-1.89-2.35-1.89H57.07Zm0,5.09v4.55h2a2.92,2.92,0,0,0,2-.6,2.15,2.15,0,0,0,.69-1.71q0-2.23-3-2.23H57.07Z" transform="translate(0 -0.07)" fill="#231f20"/><path d="M77.19,43V32.42H70.87V43H69.79V31.45h8.48V43H77.19Z" transform="translate(0 -0.07)" fill="#231f20"/><path d="M86,43.25a5.39,5.39,0,0,1-2.26-.46A5,5,0,0,1,82,41.54,5.57,5.57,0,0,1,81,39.68a6.9,6.9,0,0,1-.38-2.3A7.83,7.83,0,0,1,81,34.89,5.44,5.44,0,0,1,82.06,33a5,5,0,0,1,1.76-1.25,6,6,0,0,1,2.38-.45,5.32,5.32,0,0,1,2.21.44,4.84,4.84,0,0,1,1.67,1.22,5.45,5.45,0,0,1,1.06,1.85,7.08,7.08,0,0,1,.37,2.32,8,8,0,0,1-.36,2.45,5.62,5.62,0,0,1-1.06,2,4.91,4.91,0,0,1-1.72,1.29A5.6,5.6,0,0,1,86,43.25Zm0.09-11a4.17,4.17,0,0,0-1.86.4,4.07,4.07,0,0,0-1.37,1.08,4.74,4.74,0,0,0-.85,1.6,6.68,6.68,0,0,0-.3,2A6.52,6.52,0,0,0,82,39.16a4.8,4.8,0,0,0,.79,1.59,3.88,3.88,0,0,0,1.34,1.1,4.11,4.11,0,0,0,1.89.41,4.53,4.53,0,0,0,1.91-.38,3.8,3.8,0,0,0,1.37-1,4.52,4.52,0,0,0,.83-1.59,6.93,6.93,0,0,0,.28-2,7.39,7.39,0,0,0-.25-1.93,4.57,4.57,0,0,0-.77-1.6A3.73,3.73,0,0,0,88,32.63,4.34,4.34,0,0,0,86.09,32.23Z" transform="translate(0 -0.07)" fill="#231f20"/><path d="M102.08,46.16V43H93.41v3.11h-1V42.07H93.3q0.39-.73.75-1.57t0.68-1.74q0.32-.9.59-1.84t0.47-1.88q0.2-.94.32-1.85a16.38,16.38,0,0,0,.15-1.76h5.23V42.07h1.59v4.09h-1Zm-1.66-13.72h-3.2a13.88,13.88,0,0,1-.15,1.43q-0.12.78-.32,1.63T96.3,37.24q-0.25.89-.55,1.74t-0.62,1.64q-0.32.79-.66,1.45h5.95V32.44Z" transform="translate(0 -0.07)" fill="#231f20"/><path d="M112.47,43l-1.28-3.43h-5L105,43h-1.2l4.42-11.6h1.08L113.66,43h-1.2Zm-3.54-9.57q-0.06-.15-0.12-0.36a3.45,3.45,0,0,1-.1-0.46h0a4.46,4.46,0,0,1-.11.46q-0.06.2-.12,0.36l-1.88,5.16h4.25Z" transform="translate(0 -0.07)" fill="#231f20"/><path d="M116.57,38.54V43h-1.08V31.45h3a5.29,5.29,0,0,1,1.62.23,3.3,3.3,0,0,1,1.19.66,2.75,2.75,0,0,1,.74,1.05,3.79,3.79,0,0,1,.25,1.42A3.86,3.86,0,0,1,122,36.3a3.37,3.37,0,0,1-.81,1.18,3.74,3.74,0,0,1-1.29.78,5,5,0,0,1-1.72.28h-1.6Zm0-6.1v5.11h1.54a3.3,3.3,0,0,0,2.27-.7,2.5,2.5,0,0,0,.78-2q0-2.45-2.86-2.45h-1.72Z" transform="translate(0 -0.07)" fill="#231f20"/><path d="M129.28,43.25A5.38,5.38,0,0,1,127,42.8a5,5,0,0,1-1.7-1.25,5.57,5.57,0,0,1-1.08-1.86,6.9,6.9,0,0,1-.38-2.3,7.83,7.83,0,0,1,.38-2.49,5.44,5.44,0,0,1,1.1-1.93,5,5,0,0,1,1.76-1.25,6,6,0,0,1,2.38-.45,5.32,5.32,0,0,1,2.21.44,4.84,4.84,0,0,1,1.67,1.22,5.45,5.45,0,0,1,1.06,1.85,7.08,7.08,0,0,1,.37,2.32,8,8,0,0,1-.36,2.45,5.63,5.63,0,0,1-1.06,2,4.91,4.91,0,0,1-1.72,1.29A5.6,5.6,0,0,1,129.28,43.25Zm0.09-11a4.17,4.17,0,0,0-1.86.4,4.07,4.07,0,0,0-1.37,1.08,4.74,4.74,0,0,0-.85,1.6,6.67,6.67,0,0,0-.3,2,6.51,6.51,0,0,0,.25,1.89,4.8,4.8,0,0,0,.79,1.59,3.88,3.88,0,0,0,1.34,1.1,4.11,4.11,0,0,0,1.89.41,4.53,4.53,0,0,0,1.91-.38,3.8,3.8,0,0,0,1.37-1,4.53,4.53,0,0,0,.83-1.59,6.93,6.93,0,0,0,.28-2,7.39,7.39,0,0,0-.25-1.93,4.56,4.56,0,0,0-.77-1.6,3.73,3.73,0,0,0-1.33-1.08A4.34,4.34,0,0,0,129.37,32.23Z" transform="translate(0 -0.07)" fill="#231f20"/><path d="M143.18,43l-4.72-5.43a3,3,0,0,1-.25-0.33h0V43H137.1V31.45h1.08v5.46h0l0.12-.17,0.14-.17L143,31.45h1.37l-5,5.6,5.36,6h-1.5Z" transform="translate(0 -0.07)" fill="#231f20"/><line x1="35.77" y1="37.69" x2="52.12" y2="37.69" fill="none" stroke="#231f20" stroke-miterlimit="10"/><polyline points="150.51 50.34 164.37 31.85 150.51 13.36" fill="none" stroke="#b2b2b2" stroke-miterlimit="10"/><circle cx="192.51" cy="31.85" r="18.49" fill="none" stroke="#b2b2b2" stroke-miterlimit="10"/></svg>