<?xml version="1.0" encoding="utf-8"?>
<!-- Generator: Adobe Illustrator 17.0.2, SVG Export Plug-In . SVG Version: 6.00 Build 0)  -->
<!DOCTYPE svg PUBLIC "-//W3C//DTD SVG 1.1//EN" "http://www.w3.org/Graphics/SVG/1.1/DTD/svg11.dtd">
<svg version="1.1" id="Layer_1" xmlns="http://www.w3.org/2000/svg" xmlns:xlink="http://www.w3.org/1999/xlink" x="0px" y="0px"
	 width="68.969px" height="63.943px" viewBox="0 0 68.969 63.943" enable-background="new 0 0 68.969 63.943" xml:space="preserve">
<g>
	<path fill="#BBBBBB" d="M59.75,44.956v11.125c0,2.601-2.116,4.717-4.717,4.717H7.862c-2.601,0-4.717-2.116-4.717-4.717V14.099
		c0-2.601,2.116-4.717,4.717-4.717h5.857v4.219c0,1.086,0.88,1.965,1.966,1.965c1.085,0,1.965-0.88,1.965-1.965V9.382h11.832v4.219
		c0,1.086,0.88,1.965,1.965,1.965c1.086,0,1.966-0.88,1.966-1.965V9.382h11.832v4.219c0,1.086,0.88,1.965,1.965,1.965
		s1.965-0.88,1.965-1.965V9.382h5.857c2.601,0,4.717,2.116,4.717,4.717v14.975h3.145V14.099c0-4.335-3.527-7.862-7.862-7.862h-5.857
		V1.965C49.176,0.88,48.296,0,47.211,0s-1.965,0.88-1.965,1.965v4.272H33.413V1.965C33.413,0.88,32.533,0,31.447,0
		c-1.085,0-1.965,0.88-1.965,1.965v4.272H17.65V1.965C17.65,0.88,16.77,0,15.684,0c-1.086,0-1.966,0.88-1.966,1.965v4.272H7.862
		C3.527,6.237,0,9.764,0,14.099v41.982c0,4.335,3.527,7.862,7.862,7.862h47.171c4.335,0,7.862-3.527,7.862-7.862V44.956H59.75z"/>
	<rect x="27.202" y="33.596" fill="#BBBBBB" width="8.491" height="6.918"/>
	<polygon fill="#BBBBBB" points="49.176,47.644 45.512,44.603 40.685,44.603 40.685,51.521 49.176,51.521 	"/>
	<rect x="27.202" y="44.603" fill="#BBBBBB" width="8.491" height="6.918"/>
	<polygon fill="#BBBBBB" points="49.176,22.59 40.685,22.59 40.685,29.508 45.414,29.508 49.176,26.386 	"/>
	<rect x="13.719" y="22.59" fill="#BBBBBB" width="8.491" height="6.918"/>
	<rect x="27.202" y="22.59" fill="#BBBBBB" width="8.491" height="6.918"/>
	<rect x="13.719" y="44.603" fill="#BBBBBB" width="8.491" height="6.918"/>
	<rect x="13.719" y="33.596" fill="#BBBBBB" width="8.491" height="6.918"/>
</g>
<polygon fill="#BBBBBB" points="40.623,37.015 53.473,27.502 53.473,31.567 68.969,31.567 68.969,37.015 68.969,42.463 
	53.473,42.463 53.473,46.527 "/>
</svg>
