<?xml version="1.0" encoding="utf-8"?>
<!-- Generator: Adobe Illustrator 17.0.2, SVG Export Plug-In . SVG Version: 6.00 Build 0)  -->
<!DOCTYPE svg PUBLIC "-//W3C//DTD SVG 1.1//EN" "http://www.w3.org/Graphics/SVG/1.1/DTD/svg11.dtd">
<svg version="1.1" id="Layer_1" xmlns="http://www.w3.org/2000/svg" xmlns:xlink="http://www.w3.org/1999/xlink" x="0px" y="0px"
	 width="54.548px" height="51.767px" viewBox="0 0 54.548 51.767" enable-background="new 0 0 54.548 51.767" xml:space="preserve">
<path fill="#FFFFFF" d="M44.874,9.826V9.194C44.874,4.125,40.749,0,35.68,0H18.868c-5.069,0-9.194,4.125-9.194,9.194v0.633
	C4.284,10.17,0,14.652,0,20.127v21.305c0,5.698,4.637,10.334,10.335,10.334h33.878c5.698,0,10.335-4.636,10.335-10.334V20.127
	C54.548,14.652,50.264,10.17,44.874,9.826z M15.674,9.194C15.674,7.433,17.106,6,18.868,6H35.68c1.762,0,3.194,1.433,3.194,3.194
	v0.599h-23.2V9.194z M48.548,41.433c0,2.39-1.944,4.334-4.335,4.334H10.335C7.944,45.767,6,43.823,6,41.433V20.127
	c0-2.39,1.944-4.334,4.335-4.334h33.878c2.391,0,4.335,1.944,4.335,4.334V41.433z M34.2,20.519H20.347
	c-2.135,0-3.866,1.731-3.866,3.866s1.731,3.866,3.866,3.866H34.2c2.135,0,3.866-1.731,3.866-3.866S36.335,20.519,34.2,20.519z"/>
</svg>
