<?xml version="1.0" encoding="utf-8"?>
<!-- Generator: Adobe Illustrator 17.0.2, SVG Export Plug-In . SVG Version: 6.00 Build 0)  -->
<!DOCTYPE svg PUBLIC "-//W3C//DTD SVG 1.1//EN" "http://www.w3.org/Graphics/SVG/1.1/DTD/svg11.dtd">
<svg version="1.1" id="Layer_1" xmlns="http://www.w3.org/2000/svg" xmlns:xlink="http://www.w3.org/1999/xlink" x="0px" y="0px"
	 width="77.039px" height="67.996px" viewBox="0 0 77.039 67.996" enable-background="new 0 0 77.039 67.996" xml:space="preserve">
<path fill="#FFFFFF" d="M73.77,47.637c-1.033-1.255-2.307-2.166-3.762-2.703v-8.272H29.225l-8.106-26.377l-0.149-0.271
	C20.743,9.605,15.312,0,3.675,0H0l13.893,67.996h62.354l0.393-2.542C76.83,64.219,78.372,53.229,73.77,47.637z M15.58,12.688
	l9.211,29.975h39.217v1.708H15.19L7.457,6.525C12.321,7.926,14.967,11.712,15.58,12.688z M70.973,61.996H18.791l-2.375-11.625
	h50.491c0.96,0.043,1.648,0.374,2.227,1.076C70.885,53.57,71.199,58.311,70.973,61.996z"/>
</svg>
