<?xml version="1.0" encoding="UTF-8" standalone="no"?>
<!-- Created with Inkscape (http://www.inkscape.org/) -->

<svg
   xmlns:dc="http://purl.org/dc/elements/1.1/"
   xmlns:cc="http://creativecommons.org/ns#"
   xmlns:rdf="http://www.w3.org/1999/02/22-rdf-syntax-ns#"
   xmlns:svg="http://www.w3.org/2000/svg"
   xmlns="http://www.w3.org/2000/svg"
   xmlns:sodipodi="http://sodipodi.sourceforge.net/DTD/sodipodi-0.dtd"
   xmlns:inkscape="http://www.inkscape.org/namespaces/inkscape"
   width="20"
   height="21"
   viewBox="0 0 20 21"
   id="svg3359"
   version="1.1"
   inkscape:version="0.91 r13725"
   sodipodi:docname="common-plane.svg">
  <defs
     id="defs3361" />
  <sodipodi:namedview
     id="base"
     pagecolor="#ffffff"
     bordercolor="#666666"
     borderopacity="1.0"
     inkscape:pageopacity="0.0"
     inkscape:pageshadow="2"
     inkscape:zoom="22.4"
     inkscape:cx="0.36534172"
     inkscape:cy="17.34527"
     inkscape:document-units="px"
     inkscape:current-layer="svg3359"
     showgrid="false"
     units="px"
     inkscape:window-width="1920"
     inkscape:window-height="975"
     inkscape:window-x="1912"
     inkscape:window-y="604"
     inkscape:window-maximized="1" />
  <metadata
     id="metadata3364">
    <rdf:RDF>
      <cc:Work
         rdf:about="">
        <dc:format>image/svg+xml</dc:format>
        <dc:type
           rdf:resource="http://purl.org/dc/dcmitype/StillImage" />
        <dc:title />
      </cc:Work>
    </rdf:RDF>
  </metadata>
  <path
     d="M 8.924,0 8.93848,0.0148 C 8.938156,0.052 8.95686,0.0887 8.99462,0.12583 L 9.121655,3.93278 6.557874,6.61244 6.557605,7.81179 c 9.53e-4,0.0375 0.02872,0.0841 0.08377,0.13968 0.07444,0.0737 0.15159,0.10427 0.231217,0.0904 0.07859,-0.0142 0.154665,-0.0399 0.229795,-0.0765 L 8.914403,6.87609 c 0.05584,-0.0375 0.110931,-0.0468 0.167074,-0.0281 0.05562,0.0185 0.09766,0.0412 0.125827,0.0694 0.09303,0.0934 0.132489,0.20266 0.118368,0.32791 -0.01308,0.12475 -0.01924,0.2347 -0.02004,0.32723 0.02695,0.2888 0.158416,0.54931 0.390751,0.78125 0.214245,0.21378 0.423009,0.21794 0.627847,0.0136 0.100978,-0.10131 0.188044,-0.2215 0.257245,-0.35593 0.0705,-0.13442 0.108967,-0.27094 0.118789,-0.41162 l 0.02676,-0.50131 c 0.0093,-0.01 0.01401,-0.0228 0.01341,-0.0426 9.53e-4,-0.018 0.0052,-0.0317 0.01495,-0.0413 4.46e-4,-0.056 0.0139,-0.0982 0.04229,-0.12605 0.03655,-0.037 0.08987,-0.053 0.159175,-0.0491 0.07086,0.006 0.128585,0.0217 0.175523,0.0498 l 1.855609,1.12735 c 0.138895,0.0653 0.269998,0.0372 0.39017,-0.0831 l 0.01368,-0.0137 c 0.0094,-0.01 0.02821,-0.0371 0.05625,-0.0834 l -4.85e-4,-1.14358 c -0.0094,-0.0286 -0.02157,-0.0677 -0.03521,-0.11866 -0.01336,-0.0514 -0.02483,-0.0816 -0.03517,-0.0917 l -2.427227,-2.4245 c -0.0098,-0.01 -0.02444,-0.037 -0.04306,-0.0841 -0.01786,-0.0455 -0.02352,-0.0839 -0.0139,-0.11092 l 0.121982,-3.7245 c 0.0014,-0.037 0.0244,-0.0782 0.07042,-0.12477 0.09414,-0.0938 0.195773,-0.12082 0.307285,-0.0841 l 8.231573,4.17858 c 0.05572,0.0381 0.106293,0.0374 0.152758,-5.1e-4 0.04723,-0.0362 0.08297,-0.0697 0.110851,-0.0976 l 0.07047,-0.0697 c 0.0276,-0.0277 0.04171,-0.06 0.04203,-0.0977 l -0.01485,-0.96227 c 0.0096,-0.0281 0.0068,-0.0664 -0.0068,-0.11841 -0.01415,-0.0507 -0.03027,-0.0852 -0.04889,-0.10391 l -8.680078,-8.66949 0.123373,-4.366 c 0.0087,-0.30701 -0.05826,-0.61622 -0.204142,-0.92769 -0.143287,-0.31015 -0.321909,-0.57368 -0.536162,-0.78668 -0.139809,-0.14015 -0.298241,-0.23694 -0.474749,-0.29347 -0.177037,-0.0555 -0.371531,-0.022 -0.586331,0.0987 l -0.110706,0.11087 -0.111239,0.11215 c -0.176702,0.17626 -0.344431,0.39977 -0.50239,0.66924 -0.15797,0.2705 -0.226739,0.53528 -0.207885,0.79586 l 0.09959,4.47665 c 0.0098,0.0461 -0.0042,0.0919 -0.04213,0.13909 -0.03664,0.0472 -0.06402,0.079 -0.08348,0.0978 L 0.335318,2.40417 c -0.0194,0.0189 -0.065,0.0748 -0.13987,0.16771 -0.0741,0.0936 -0.12068,0.14858 -0.13909,0.1677 -0.019,0.0189 -0.0322,0.0455 -0.0427,0.083 -0.008,0.0374 -0.008,0.07 9.5e-4,0.0983 l -0.0143,0.90675 c 0.0187,0.11146 0.047,0.18549 0.084,0.22257 0.0931,0.0929 0.20945,0.1066 0.34842,0.0416 l 8.114706,-4.10484 c 0.05558,-0.0375 0.12144,-0.0563 0.195468,-0.0556 0.07351,-2.1e-4 0.134309,0.0232 0.180573,0.0689"
     style="fill:#058fc7;fill-opacity:1;fill-rule:nonzero;stroke:none"
     id="path3372"
     inkscape:connector-curvature="0"
     transform="translate(0,12.482554)" />
</svg>
