<?xml version="1.0" encoding="UTF-8" standalone="no"?>
<!-- Created with Inkscape (http://www.inkscape.org/) -->

<svg
   xmlns:dc="http://purl.org/dc/elements/1.1/"
   xmlns:cc="http://creativecommons.org/ns#"
   xmlns:rdf="http://www.w3.org/1999/02/22-rdf-syntax-ns#"
   xmlns:svg="http://www.w3.org/2000/svg"
   xmlns="http://www.w3.org/2000/svg"
   xmlns:sodipodi="http://sodipodi.sourceforge.net/DTD/sodipodi-0.dtd"
   xmlns:inkscape="http://www.inkscape.org/namespaces/inkscape"
   id="svg4136"
   version="1.1"
   inkscape:version="0.91 r13725"
   xml:space="preserve"
   width="25"
   height="17.567541"
   viewBox="0 0 25 17.567541"
   sodipodi:docname="envelope.svg"><metadata
     id="metadata4142"><rdf:RDF><cc:Work
         rdf:about=""><dc:format>image/svg+xml</dc:format><dc:type
           rdf:resource="http://purl.org/dc/dcmitype/StillImage" /><dc:title></dc:title></cc:Work></rdf:RDF></metadata><defs
     id="defs4140"><clipPath
       clipPathUnits="userSpaceOnUse"
       id="clipPath4154"><path
         d="m 0,44.371 63.143,0 L 63.143,0 0,0 0,44.371 Z"
         id="path4156"
         inkscape:connector-curvature="0" /></clipPath><clipPath
       clipPathUnits="userSpaceOnUse"
       id="clipPath4184"><path
         d="m 0,44.371 63.143,0 L 63.143,0 0,0 0,44.371 Z"
         id="path4186"
         inkscape:connector-curvature="0" /></clipPath></defs><sodipodi:namedview
     pagecolor="#ffffff"
     bordercolor="#666666"
     borderopacity="1"
     objecttolerance="10"
     gridtolerance="10"
     guidetolerance="10"
     inkscape:pageopacity="0"
     inkscape:pageshadow="2"
     inkscape:window-width="1920"
     inkscape:window-height="975"
     id="namedview4138"
     showgrid="false"
     fit-margin-top="0"
     fit-margin-left="0"
     fit-margin-right="0"
     fit-margin-bottom="0"
     inkscape:zoom="8"
     inkscape:cx="19.948297"
     inkscape:cy="3.9324651"
     inkscape:window-x="1912"
     inkscape:window-y="604"
     inkscape:window-maximized="1"
     inkscape:current-layer="g4144" /><g
     id="g4144"
     inkscape:groupmode="layer"
     inkscape:label="envelope"
     transform="matrix(1.25,0,0,-1.25,0,17.567541)"><g
       id="g4146"
       transform="matrix(0.31673986,0,0,0.31673986,1.1610733,0)"
       style="fill:#a2a2a2;fill-opacity:1"><path
         d="M 0,0 55.809,0 35.065,18.832 27.906,12.332 20.745,18.833 0,0 Z"
         style="fill:#a2a2a2;fill-opacity:1;fill-rule:nonzero;stroke:none"
         id="path4148"
         inkscape:connector-curvature="0" /></g><g
       id="g4150"
       style="fill:#a2a2a2;fill-opacity:1"><g
         id="g4152"
         clip-path="url(#clipPath4154)"
         style="fill:#a2a2a2;fill-opacity:1"><g
           id="g4158"
           transform="translate(63.1431,44.3707)"
           style="fill:#a2a2a2;fill-opacity:1"><path
             d="M 0,0 0,0 0,0 Z"
             style="fill:#a2a2a2;fill-opacity:1;fill-rule:nonzero;stroke:none"
             id="path4160"
             inkscape:connector-curvature="0" /></g></g></g><g
       id="g4162"
       transform="matrix(0.31673986,0,0,0.31673986,13.445702,7.0340004)"
       style="fill:#a2a2a2;fill-opacity:1"><path
         d="m 0,0 20.693,-18.786 0,37.573 L 0,0 Z"
         style="fill:#a2a2a2;fill-opacity:1;fill-rule:nonzero;stroke:none"
         id="path4164"
         inkscape:connector-curvature="0" /></g><g
       id="g4166"
       transform="matrix(0.31673986,0,0,0.31673986,1.1778922,14.054033)"
       style="fill:#a2a2a2;fill-opacity:1"><path
         d="M 0,0 27.853,-25.285 55.705,0 0,0 Z"
         style="fill:#a2a2a2;fill-opacity:1;fill-rule:nonzero;stroke:none"
         id="path4168"
         inkscape:connector-curvature="0" /></g><path
       d="M 0,0 0.044,0 0,0.049 0,0 Z"
       style="fill:#a2a2a2;fill-opacity:1;fill-rule:nonzero;stroke:none"
       id="path4170"
       inkscape:connector-curvature="0"
       transform="scale(0.31673986,0.31673986)" /><g
       id="g4172"
       transform="matrix(0.31673986,0,0,0.31673986,19.985113,0)"
       style="fill:#a2a2a2;fill-opacity:1"><path
         d="m 0,0 0.047,0 0,0.052 L 0,0 Z"
         style="fill:#a2a2a2;fill-opacity:1;fill-rule:nonzero;stroke:none"
         id="path4174"
         inkscape:connector-curvature="0" /></g><g
       id="g4176"
       transform="matrix(0.31673986,0,0,0.31673986,0,1.0846757)"
       style="fill:#a2a2a2;fill-opacity:1"><path
         d="M 0,0 20.692,18.785 0,37.57 0,0 Z"
         style="fill:#a2a2a2;fill-opacity:1;fill-rule:nonzero;stroke:none"
         id="path4178"
         inkscape:connector-curvature="0" /></g><g
       id="g4180"
       transform="scale(0.31673986,0.31673986)"
       style="fill:#a2a2a2;fill-opacity:1"><g
         id="g4182"
         clip-path="url(#clipPath4184)"
         style="fill:#a2a2a2;fill-opacity:1"><g
           id="g4188"
           transform="translate(2e-4,44.3709)"
           style="fill:#a2a2a2;fill-opacity:1"><path
             d="M 0,0 0,0 0,0 Z"
             style="fill:#a2a2a2;fill-opacity:1;fill-rule:nonzero;stroke:none"
             id="path4190"
             inkscape:connector-curvature="0" /></g></g></g></g></svg>