<?xml version="1.0" encoding="utf-8"?>
<!-- Generator: Adobe Illustrator 17.0.2, SVG Export Plug-In . SVG Version: 6.00 Build 0)  -->
<!DOCTYPE svg PUBLIC "-//W3C//DTD SVG 1.1//EN" "http://www.w3.org/Graphics/SVG/1.1/DTD/svg11.dtd">
<svg version="1.1" id="Layer_1" xmlns="http://www.w3.org/2000/svg" xmlns:xlink="http://www.w3.org/1999/xlink" x="0px" y="0px"
	 width="76.728px" height="80.196px" viewBox="0 0 76.728 80.196" enable-background="new 0 0 76.728 80.196" xml:space="preserve">
<path fill="#BBBBBB" d="M76.639,58.246c0.036-0.107,0.023-0.255-0.03-0.454c-0.056-0.193-0.119-0.326-0.191-0.397L42.83,24.427
	l0.328-16.753c0.023-1.178-0.244-2.362-0.813-3.552c-0.561-1.185-1.254-2.189-2.083-3c-0.541-0.533-1.152-0.899-1.831-1.11
	C38.409,0.005,38.386,0.006,38.364,0c-0.022,0.006-0.045,0.005-0.067,0.012c-0.679,0.211-1.29,0.577-1.831,1.11
	c-0.829,0.811-1.522,1.815-2.083,3c-0.569,1.19-0.837,2.375-0.813,3.552l0.328,16.753L0.311,57.395
	c-0.072,0.071-0.136,0.204-0.191,0.397c-0.054,0.199-0.067,0.347-0.03,0.454L0,61.938c0,0.144,0.054,0.269,0.158,0.376l0.268,0.27
	c0.106,0.107,0.242,0.237,0.422,0.378c0.178,0.146,0.371,0.15,0.587,0.006l31.717-15.756c0.429-0.137,0.818-0.03,1.176,0.333
	c0.175,0.179,0.262,0.338,0.266,0.48l0.345,14.292c0.035,0.104,0.013,0.252-0.058,0.425c-0.073,0.18-0.13,0.284-0.168,0.321
	l-9.392,9.22c-0.04,0.039-0.085,0.154-0.138,0.351c-0.055,0.195-0.102,0.345-0.14,0.454l-0.04,4.387
	c0.107,0.179,0.177,0.285,0.213,0.322l0.053,0.053c0.457,0.466,0.959,0.578,1.493,0.332l7.156-4.264
	c0.182-0.105,0.403-0.166,0.675-0.185c0.267-0.013,0.471,0.05,0.609,0.193c0.108,0.108,0.158,0.27,0.158,0.485
	c0.037,0.037,0.053,0.09,0.056,0.159c-0.003,0.076,0.015,0.128,0.05,0.164l0.086,1.924c0.033,0.54,0.177,1.065,0.442,1.583
	c0.261,0.518,0.591,0.981,0.975,1.373c0.457,0.465,0.921,0.646,1.394,0.559c0.473,0.087,0.938-0.094,1.394-0.559
	c0.385-0.392,0.715-0.856,0.975-1.373c0.266-0.518,0.409-1.043,0.442-1.583l0.086-1.924c0.035-0.036,0.053-0.088,0.05-0.164
	c0.003-0.069,0.018-0.122,0.056-0.159c0-0.215,0.05-0.377,0.158-0.485c0.139-0.144,0.343-0.207,0.609-0.193
	c0.271,0.019,0.493,0.079,0.675,0.185l7.156,4.264c0.534,0.246,1.036,0.134,1.493-0.332l0.053-0.053
	c0.036-0.037,0.106-0.143,0.213-0.322l-0.04-4.387c-0.037-0.109-0.085-0.259-0.14-0.454c-0.053-0.197-0.098-0.312-0.138-0.351
	l-9.392-9.22c-0.038-0.037-0.095-0.141-0.168-0.321c-0.07-0.174-0.093-0.321-0.058-0.425l0.345-14.292
	c0.004-0.142,0.091-0.301,0.266-0.48c0.357-0.363,0.747-0.47,1.176-0.333l31.717,15.756c0.216,0.144,0.409,0.141,0.587-0.006
	c0.18-0.14,0.315-0.27,0.422-0.378l0.268-0.27c0.105-0.107,0.158-0.232,0.158-0.376L76.639,58.246z"/>
</svg>
