<?xml version="1.0" encoding="utf-8"?>
<!-- Generator: Adobe Illustrator 17.0.2, SVG Export Plug-In . SVG Version: 6.00 Build 0)  -->
<!DOCTYPE svg PUBLIC "-//W3C//DTD SVG 1.1//EN" "http://www.w3.org/Graphics/SVG/1.1/DTD/svg11.dtd">
<svg version="1.1" id="Layer_1" xmlns="http://www.w3.org/2000/svg" xmlns:xlink="http://www.w3.org/1999/xlink" x="0px" y="0px"
	 width="32.221px" height="32.324px" viewBox="0 0 32.221 32.324" enable-background="new 0 0 32.221 32.324" xml:space="preserve">
<g>
	<path fill="#BBBBBB" d="M16.216,19.596c0.139-0.015,0.372-0.027,0.599-0.071c0.208-0.04,0.415-0.101,0.614-0.174
		c1.347-0.494,2.243-1.746,2.273-3.174c0.019-0.879-0.276-1.65-0.854-2.303c-0.6-0.679-1.361-1.074-2.263-1.187
		c-0.897-0.112-1.73,0.077-2.479,0.576c-0.745,0.496-1.246,1.181-1.457,2.062c-0.269,1.123-0.015,2.134,0.72,3.004
		C14.081,19.171,15.02,19.574,16.216,19.596z"/>
	<path fill="#BBBBBB" d="M21.478,14.946c0.049,0.251,0.117,0.5,0.145,0.753c0.164,1.5-0.234,2.841-1.199,3.998
		c-0.766,0.919-1.743,1.52-2.908,1.809c-1.198,0.297-2.372,0.215-3.518-0.236c-0.66-0.26-1.246-0.643-1.759-1.132
		c-0.393-0.375-0.725-0.801-0.988-1.278c-0.244-0.442-0.424-0.909-0.533-1.404c-0.153-0.695-0.167-1.391-0.039-2.091
		c0.034-0.188,0.081-0.375,0.125-0.571c-0.551,0-1.08,0-1.62,0c-0.004,0.049-0.011,0.09-0.011,0.132
		c0,2.444-0.002,4.888,0.001,7.332c0.001,0.48,0.299,0.77,0.777,0.77c4.091,0.001,8.181,0.001,12.272,0
		c0.499,0,0.783-0.286,0.783-0.787c0.001-2.43,0-4.859,0-7.289c0-0.05,0-0.101,0-0.154c-0.53,0-1.039,0-1.562,0
		C21.459,14.855,21.469,14.9,21.478,14.946z"/>
	<path fill="#BBBBBB" d="M20.256,12.755c0.308,0.003,0.617,0,0.925,0c0.318,0,0.636,0.002,0.953,0
		c0.542-0.004,0.865-0.33,0.866-0.873c0.002-0.588,0.001-1.176,0-1.765C23,9.562,22.671,9.228,22.119,9.225
		c-0.617-0.003-1.233-0.003-1.85,0c-0.556,0.002-0.884,0.33-0.886,0.886c-0.002,0.588-0.002,1.176,0,1.765
		C19.385,12.43,19.703,12.75,20.256,12.755z"/>
	<path fill="#BBBBBB" d="M16.111,0C7.185,0-0.051,7.236-0.051,16.162s7.236,16.162,16.162,16.162
		c8.926,0,16.162-7.236,16.162-16.162S25.037,0,16.111,0z M25.024,23.082c-0.015,0.054-0.033,0.106-0.044,0.161
		c-0.145,0.715-0.523,1.262-1.187,1.578c-0.248,0.118-0.526,0.171-0.791,0.254c-4.604,0-9.207,0-13.811,0
		c-0.049-0.014-0.097-0.031-0.146-0.041c-0.918-0.2-1.525-0.732-1.769-1.653c-0.026-0.099-0.052-0.199-0.078-0.298
		c0-4.613,0-9.226,0-13.839c0.014-0.049,0.031-0.097,0.041-0.147C7.38,8.374,7.76,7.822,8.429,7.503
		c0.248-0.118,0.526-0.171,0.791-0.254c4.594,0,9.188,0,13.782,0c0.064,0.015,0.127,0.032,0.192,0.045
		c0.86,0.186,1.446,0.682,1.72,1.526c0.045,0.138,0.074,0.281,0.11,0.421C25.024,13.855,25.024,18.469,25.024,23.082z"/>
</g>
</svg>
