<?xml version="1.0" encoding="utf-8"?>
<!-- Generator: Adobe Illustrator 20.1.0, SVG Export Plug-In . SVG Version: 6.00 Build 0)  -->
<svg version="1.1" id="Layer_1" xmlns="http://www.w3.org/2000/svg" xmlns:xlink="http://www.w3.org/1999/xlink" x="0px" y="0px"
	 viewBox="0 0 284.7 284.7" style="enable-background:new 0 0 284.7 284.7;" xml:space="preserve">
<style type="text/css">
	.st0{fill:#0480B4;}
	.st1{fill:url(#SVGID_1_);}
	.st2{fill:#FFFFFF;}
</style>
<g>
	<circle class="st0" cx="142.3" cy="142.3" r="142.3"/>
	<linearGradient id="SVGID_1_" gradientUnits="userSpaceOnUse" x1="232.7467" y1="253.2029" x2="79.98" y2="100.4361">
		<stop  offset="0" style="stop-color:#0480B4"/>
		<stop  offset="0.2842" style="stop-color:#057FB3"/>
		<stop  offset="1" style="stop-color:#18528F"/>
	</linearGradient>
	<path class="st1" d="M263.8,205.3c-0.2-0.2-0.5-0.5-0.8-1c-0.4-0.5-0.5-0.9-0.4-1.4l1.3-43.6c0.2-2.5-0.4-5.1-2-7.8
		c-1.5-2.6-3.1-4.8-4.8-6.6l-1.1-1.1L147.9,41.1c-2.1-1.2-4-1.5-5.7-1c-1.7,0.5-3.3,1.5-4.7,2.8c-2.1,2.1-3.9,4.6-5.3,7.6
		c-1.4,3-2.1,6-2.1,9l0.8,42.5l-85.3,83.7c-0.2,0.2-0.3,0.5-0.5,1c-0.1,0.5-0.2,0.9-0.1,1.2l-0.2,9.4c0,0.4,0.1,0.7,0.4,1
		c0,0,0.2,0.2,0.4,0.4l90.3,85.8c2.1,0.1,4.2,0.1,6.3,0.1c54.3,0,101.5-30.4,125.5-75.2L263.8,205.3z"/>
	<path class="st2" d="M153.1,160.9L153,161c0,0.4-0.2,0.7-0.6,1.1l-1.6,37.1l24.8,26.3l-0.1,11.7c0,0.4-0.3,0.8-0.8,1.4
		c-0.7,0.7-1.5,1-2.3,0.9c-0.8-0.1-1.5-0.4-2.2-0.8l-17.6-10.8c-0.5-0.4-1.1-0.5-1.6-0.3c-0.5,0.2-1,0.4-1.2,0.7
		c-0.9,0.9-1.3,2-1.2,3.2c0.1,1.2,0.2,2.3,0.2,3.2c-0.3,2.8-1.6,5.3-3.9,7.6c-2.1,2.1-4.1,2.1-6.1,0.1c-1-1-1.8-2.2-2.5-3.5
		c-0.7-1.3-1-2.6-1.1-4l-0.2-4.9c-0.1-0.1-0.1-0.2-0.1-0.4c0-0.2,0-0.3-0.1-0.4c0-0.5-0.1-1-0.4-1.2c-0.4-0.4-0.9-0.5-1.5-0.5
		c-0.7,0-1.3,0.2-1.7,0.5l-18.2,10.8c-1.4,0.6-2.6,0.3-3.8-0.8l-0.1-0.1c-0.1-0.1-0.3-0.4-0.5-0.8l0.1-11.1c0.1-0.3,0.2-0.7,0.4-1.2
		c0.1-0.5,0.2-0.8,0.3-0.9l23.9-23.4c0.1-0.1,0.2-0.4,0.4-0.8c0.2-0.4,0.2-0.8,0.1-1.1l-0.9-36.3c0-0.4-0.2-0.8-0.7-1.2
		c-0.9-0.9-1.9-1.2-3-0.8l-80.6,40c-0.5,0.4-1,0.4-1.5,0c-0.5-0.4-0.8-0.7-1.1-1l-0.7-0.7c-0.3-0.3-0.4-0.6-0.4-1l0.2-9.4
		c-0.1-0.3-0.1-0.6,0.1-1.2c0.1-0.5,0.3-0.8,0.5-1l85.3-83.7l-0.8-42.5c-0.1-3,0.6-6,2.1-9c1.4-3,3.2-5.6,5.3-7.6
		c1.4-1.4,2.9-2.3,4.7-2.8c1.7-0.5,3.6-0.2,5.7,1l1.1,1.1l1.1,1.1c1.7,1.7,3.3,3.9,4.8,6.6c1.5,2.6,2.2,5.2,2,7.8l-1.3,43.6
		c-0.1,0.4,0,0.9,0.4,1.4c0.4,0.5,0.6,0.8,0.8,1l80,81.5c0.2,0.2,0.6,0.7,1.3,1.6c0.7,0.9,1.2,1.5,1.3,1.6c0.2,0.2,0.3,0.4,0.4,0.8
		c0.1,0.4,0.1,0.7,0,1l0.1,8.8c-0.2,1.1-0.5,1.8-0.8,2.2c-0.9,0.9-2.1,1-3.4,0.4l-78.7-40.7c-0.5-0.4-1.2-0.6-1.9-0.6
		C154.2,160.2,153.6,160.4,153.1,160.9z"/>
</g>
</svg>
