<?xml version="1.0" encoding="utf-8"?>
<!-- Generator: Adobe Illustrator 17.0.2, SVG Export Plug-In . SVG Version: 6.00 Build 0)  -->
<!DOCTYPE svg PUBLIC "-//W3C//DTD SVG 1.1//EN" "http://www.w3.org/Graphics/SVG/1.1/DTD/svg11.dtd">
<svg version="1.1" id="Layer_1" xmlns="http://www.w3.org/2000/svg" xmlns:xlink="http://www.w3.org/1999/xlink" x="0px" y="0px"
	 width="40.334px" height="67.399px" viewBox="0 0 40.334 67.399" enable-background="new 0 0 40.334 67.399" xml:space="preserve">
<g>
	<path fill="#FFFFFF" d="M30.334,11.667h-1.917V7.833C30.096,7.358,31.334,5.831,31.334,4c0-2.209-1.791-4-4-4H13
		c-2.209,0-4,1.791-4,4c0,1.831,1.238,3.358,2.917,3.833v3.834H10c-5.514,0-10,4.486-10,10V54c0,4.141,2.531,7.702,6.126,9.218
		c-0.004,0.073-0.022,0.142-0.022,0.216c0,2.19,1.775,3.965,3.965,3.965c1.996,0,3.632-1.48,3.908-3.399h12.377
		c0.277,1.92,1.912,3.399,3.908,3.399c2.19,0,3.965-1.775,3.965-3.965c0-0.074-0.018-0.143-0.022-0.216
		c3.596-1.517,6.126-5.077,6.126-9.218V21.667C40.334,16.153,35.848,11.667,30.334,11.667z M17.917,8h4.5v3.667h-4.5V8z M34.334,54
		c0,2.206-1.794,4-4,4H10c-2.206,0-4-1.794-4-4V21.667c0-2.206,1.794-4,4-4h20.334c2.206,0,4,1.794,4,4V54z"/>
	<path fill="#FFFFFF" d="M25.943,20.943H14.391c-1.781,0-3.224,1.443-3.224,3.224s1.443,3.224,3.224,3.224h11.552
		c1.781,0,3.224-1.443,3.224-3.224S27.724,20.943,25.943,20.943z"/>
</g>
</svg>
