<?xml version="1.0" encoding="UTF-8" standalone="no"?>
<!-- Created with Inkscape (http://www.inkscape.org/) -->

<svg
   xmlns:dc="http://purl.org/dc/elements/1.1/"
   xmlns:cc="http://creativecommons.org/ns#"
   xmlns:rdf="http://www.w3.org/1999/02/22-rdf-syntax-ns#"
   xmlns:svg="http://www.w3.org/2000/svg"
   xmlns="http://www.w3.org/2000/svg"
   xmlns:sodipodi="http://sodipodi.sourceforge.net/DTD/sodipodi-0.dtd"
   xmlns:inkscape="http://www.inkscape.org/namespaces/inkscape"
   width="14"
   height="23.888607"
   viewBox="0 0 14 23.888607"
   id="svg3354"
   version="1.1"
   inkscape:version="0.91 r13725"
   sodipodi:docname="Luggage.svg">
  <defs
     id="defs3356" />
  <sodipodi:namedview
     id="base"
     pagecolor="#ffffff"
     bordercolor="#666666"
     borderopacity="1.0"
     inkscape:pageopacity="0.0"
     inkscape:pageshadow="2"
     inkscape:zoom="5.6"
     inkscape:cx="21.991986"
     inkscape:cy="-31.817348"
     inkscape:document-units="px"
     inkscape:current-layer="layer1"
     showgrid="false"
     fit-margin-top="0"
     fit-margin-left="0"
     fit-margin-right="0"
     fit-margin-bottom="0"
     units="px"
     inkscape:window-width="1920"
     inkscape:window-height="1137"
     inkscape:window-x="-8"
     inkscape:window-y="-8"
     inkscape:window-maximized="1" />
  <metadata
     id="metadata3359">
    <rdf:RDF>
      <cc:Work
         rdf:about="">
        <dc:format>image/svg+xml</dc:format>
        <dc:type
           rdf:resource="http://purl.org/dc/dcmitype/StillImage" />
        <dc:title></dc:title>
      </cc:Work>
    </rdf:RDF>
  </metadata>
  <g
     inkscape:label="Layer 1"
     inkscape:groupmode="layer"
     id="layer1"
     transform="translate(-173.42857,-922.50058)">
    <g
       id="g5"
       transform="matrix(0.35443038,0,0,0.35443038,173.42857,922.50058)">
      <path
         class="st0"
         d="m 29.8,12.2 -2.4,0 0,-4.3 C 29.3,7.7 30.8,6 30.8,4 30.8,1.8 29,0 26.8,0 L 12.5,0 c -2.2,0 -4,1.8 -4,4 0,2 1.5,3.7 3.4,3.9 l 0,4.2 -2.4,0 C 4.3,12.1 0,16.4 0,21.6 L 0,54 c 0,3.9 2.3,7.2 5.7,8.7 0,0.2 -0.1,0.5 -0.1,0.7 0,2.2 1.8,4 4,4 2.2,0 3.9,-1.7 4,-3.9 l 12.3,0 c 0,2.2 1.8,3.9 4,3.9 2.2,0 4,-1.8 4,-4 0,-0.3 0,-0.5 -0.1,-0.7 3.3,-1.5 5.7,-4.8 5.7,-8.7 l 0,-32.3 C 39.3,16.4 35.1,12.2 29.8,12.2 Z M 16.9,8 l 5.5,0 0,4.2 -5.5,0 0,-4.2 z m 17.4,46 c 0,2.5 -2,4.5 -4.5,4.5 l -20.3,0 C 7,58.5 5,56.5 5,54 L 5,21.7 c 0,-2.5 2,-4.5 4.5,-4.5 l 20.3,0 c 2.5,0 4.5,2 4.5,4.5 l 0,32.3 z"
         id="path7"
         inkscape:connector-curvature="0"
         style="fill:#b6b6b6" />
      <path
         class="st0"
         d="m 25.4,20.9 -11.5,0 c -1.8,0 -3.2,1.4 -3.2,3.2 0,1.8 1.4,3.2 3.2,3.2 l 11.6,0 c 1.8,0 3.2,-1.4 3.2,-3.2 0,-1.7 -1.5,-3.2 -3.3,-3.2 z"
         id="path9"
         inkscape:connector-curvature="0"
         style="fill:#b6b6b6" />
    </g>
  </g>
</svg>
