<?xml version="1.0" encoding="UTF-8" standalone="no"?>
<!-- Created with Inkscape (http://www.inkscape.org/) -->

<svg
   xmlns:dc="http://purl.org/dc/elements/1.1/"
   xmlns:cc="http://creativecommons.org/ns#"
   xmlns:rdf="http://www.w3.org/1999/02/22-rdf-syntax-ns#"
   xmlns:svg="http://www.w3.org/2000/svg"
   xmlns="http://www.w3.org/2000/svg"
   xmlns:sodipodi="http://sodipodi.sourceforge.net/DTD/sodipodi-0.dtd"
   xmlns:inkscape="http://www.inkscape.org/namespaces/inkscape"
   id="svg2"
   version="1.1"
   inkscape:version="0.91 r13725"
   xml:space="preserve"
   width="201.11401"
   height="269"
   viewBox="0 0 201.11402 269"
   sodipodi:docname="mag.svg"><metadata
     id="metadata8"><rdf:RDF><cc:Work
         rdf:about=""><dc:format>image/svg+xml</dc:format><dc:type
           rdf:resource="http://purl.org/dc/dcmitype/StillImage" /><dc:title></dc:title></cc:Work></rdf:RDF></metadata><defs
     id="defs6"><clipPath
       clipPathUnits="userSpaceOnUse"
       id="clipPath16"><path
         d="m 0,195.958 146.505,0 L 146.505,0 0,0 0,195.958 Z"
         id="path18"
         inkscape:connector-curvature="0" /></clipPath></defs><sodipodi:namedview
     pagecolor="#ffffff"
     bordercolor="#666666"
     borderopacity="1"
     objecttolerance="10"
     gridtolerance="10"
     guidetolerance="10"
     inkscape:pageopacity="0"
     inkscape:pageshadow="2"
     inkscape:window-width="1920"
     inkscape:window-height="1137"
     id="namedview4"
     showgrid="false"
     fit-margin-top="0"
     fit-margin-left="0"
     fit-margin-right="0"
     fit-margin-bottom="0"
     inkscape:zoom="0.96347179"
     inkscape:cx="91.565442"
     inkscape:cy="122.472"
     inkscape:window-x="-8"
     inkscape:window-y="-8"
     inkscape:window-maximized="1"
     inkscape:current-layer="g10" /><g
     id="g10"
     inkscape:groupmode="layer"
     inkscape:label="Векторный смарт-объект"
     transform="matrix(1.25,0,0,-1.25,-1.8641376e-4,269.00175)"><g
       id="g20"
       transform="matrix(1.0982052,0,0,1.0982052,127.70599,172.65551)"><path
         d="m 0,0 c 18.315,-26.881 11.372,-63.521 -15.51,-81.837 -26.882,-18.316 -63.521,-11.372 -81.837,15.509 -18.316,26.882 -11.372,63.522 15.509,81.838 C -54.956,33.826 -18.316,26.882 0,0 Z"
         style="fill:none;stroke:#a0cd48;stroke-width:1;stroke-linecap:butt;stroke-linejoin:miter;stroke-miterlimit:10;stroke-dasharray:none;stroke-opacity:1"
         id="path22"
         inkscape:connector-curvature="0" /></g><g
       id="g24"
       transform="matrix(1.0982052,0,0,1.0982052,84.054415,65.747211)"><path
         d="m 0,0 c -23.609,-3.265 -48.137,6.672 -62.467,27.704 -20.147,29.57 -12.509,69.874 17.062,90.021 29.569,20.148 69.873,12.509 90.02,-17.06 C 58.667,80.042 59.203,54.198 48.21,33.613"
         style="fill:none;stroke:#a0cd48;stroke-width:1;stroke-linecap:butt;stroke-linejoin:miter;stroke-miterlimit:10;stroke-dasharray:5, 5;stroke-dashoffset:0;stroke-opacity:1"
         id="path26"
         inkscape:connector-curvature="0" /></g><g
       id="g28"
       transform="matrix(1.0982052,0,0,1.0982052,55.889295,212.4123)"><path
         d="m 0,0 c 0.425,0.103 0.852,0.203 1.279,0.299 8.65,1.938 17.283,2.216 25.569,1.042"
         style="fill:none;stroke:#37c4e7;stroke-width:1;stroke-linecap:butt;stroke-linejoin:miter;stroke-miterlimit:10;stroke-dasharray:none;stroke-opacity:1"
         id="path30"
         inkscape:connector-curvature="0" /></g><g
       id="g32"
       transform="matrix(1.0982052,0,0,1.0982052,95.949185,211.6295)"><path
         d="M 0,0 C 17.519,-5.03 32.71,-16.681 42.017,-32.7"
         style="fill:none;stroke:#37c4e7;stroke-width:1;stroke-linecap:butt;stroke-linejoin:miter;stroke-miterlimit:10;stroke-dasharray:none;stroke-opacity:1"
         id="path34"
         inkscape:connector-curvature="0" /></g><g
       id="g36"
       transform="matrix(1.0982052,0,0,1.0982052,145.25574,169.67674)"><path
         d="M 0,0 C 1.252,-2.669 2.349,-5.44 3.275,-8.304"
         style="fill:none;stroke:#37c4e7;stroke-width:1;stroke-linecap:butt;stroke-linejoin:miter;stroke-miterlimit:10;stroke-dasharray:none;stroke-opacity:1"
         id="path38"
         inkscape:connector-curvature="0" /></g><g
       id="g40"
       transform="matrix(1.0982052,0,0,1.0982052,93.485691,59.351593)"><path
         d="m 0,0 c -0.425,-0.104 -0.852,-0.203 -1.279,-0.299 -8.65,-1.939 -17.283,-2.216 -25.569,-1.043"
         style="fill:none;stroke:#37c4e7;stroke-width:1;stroke-linecap:butt;stroke-linejoin:miter;stroke-miterlimit:10;stroke-dasharray:none;stroke-opacity:1"
         id="path42"
         inkscape:connector-curvature="0" /></g><g
       id="g44"
       transform="matrix(1.0982052,0,0,1.0982052,53.425911,60.133955)"><path
         d="M 0,0 C -17.519,5.03 -32.71,16.682 -42.017,32.7"
         style="fill:none;stroke:#37c4e7;stroke-width:1;stroke-linecap:butt;stroke-linejoin:miter;stroke-miterlimit:10;stroke-dasharray:none;stroke-opacity:1"
         id="path46"
         inkscape:connector-curvature="0" /></g><g
       id="g48"
       transform="matrix(1.0982052,0,0,1.0982052,4.1192432,102.08671)"><path
         d="M 0,0 C -1.252,2.669 -2.349,5.44 -3.275,8.304"
         style="fill:none;stroke:#37c4e7;stroke-width:1;stroke-linecap:butt;stroke-linejoin:miter;stroke-miterlimit:10;stroke-dasharray:none;stroke-opacity:1"
         id="path50"
         inkscape:connector-curvature="0" /></g><g
       id="g60"
       transform="matrix(1.0982052,0,0,1.0982052,115.44233,74.232054)"><path
         d="m 0,0 -7.019,-4.074 c -1.903,-1.105 -4.363,-0.452 -5.467,1.451 l -0.388,0.667 c -1.105,1.903 -0.451,4.363 1.451,5.468 l 7.019,4.074 C -2.501,8.69 -0.041,8.038 1.063,6.135 L 1.451,5.468 C 2.556,3.565 1.902,1.104 0,0 Z"
         style="fill:none;stroke:#37c4e7;stroke-width:1;stroke-linecap:butt;stroke-linejoin:miter;stroke-miterlimit:10;stroke-dasharray:none;stroke-opacity:1"
         id="path62"
         inkscape:connector-curvature="0" /></g><g
       id="g64"
       transform="matrix(1.0982052,0,0,1.0982052,119.79221,76.757707)"><path
         d="m 0,0 -14.941,-8.673 c -1.903,-1.105 -2.556,-3.565 -1.452,-5.468 l 30.92,-53.264 c 1.105,-1.903 3.565,-2.556 5.468,-1.451 l 14.942,8.673 c 1.902,1.104 2.555,3.565 1.451,5.468 L 5.468,-1.451 C 4.363,0.451 1.902,1.104 0,0 Z"
         style="fill:none;stroke:#37c4e7;stroke-width:1;stroke-linecap:butt;stroke-linejoin:miter;stroke-miterlimit:10;stroke-dasharray:none;stroke-opacity:1"
         id="path66"
         inkscape:connector-curvature="0" /></g><g
       id="g68"
       transform="matrix(1.0982052,0,0,1.0982052,115.73939,68.580141)"><path
         d="m 0,0 c -3.4,-1.974 -7.476,-4.34 -7.476,-4.34 -0.534,-0.309 -0.716,-0.999 -0.407,-1.533 0,0 7.6,-13.091 15.045,-25.918"
         style="fill:none;stroke:#37c4e7;stroke-width:1;stroke-linecap:butt;stroke-linejoin:miter;stroke-miterlimit:10;stroke-dasharray:none;stroke-opacity:1"
         id="path70"
         inkscape:connector-curvature="0" /></g><g
       id="g72"
       transform="matrix(1.0982052,0,0,1.0982052,126.59482,28.517176)"><path
         d="M 0,0 C 1.31,-2.255 2.583,-4.45 3.776,-6.505"
         style="fill:none;stroke:#37c4e7;stroke-width:1;stroke-linecap:butt;stroke-linejoin:miter;stroke-miterlimit:10;stroke-dasharray:none;stroke-opacity:1"
         id="path74"
         inkscape:connector-curvature="0" /></g><g
       id="g76"
       transform="matrix(1.0982052,0,0,1.0982052,42.909279,209.55158)"><path
         d="M 0,0 C 1.104,-1.903 0.457,-4.342 -1.445,-5.446 -3.349,-6.551 -5.787,-5.904 -6.892,-4.001 -7.996,-2.098 -7.35,0.34 -5.446,1.445 -3.543,2.55 -1.104,1.903 0,0 Z"
         style="fill:none;stroke:#37c4e7;stroke-width:1;stroke-linecap:butt;stroke-linejoin:miter;stroke-miterlimit:10;stroke-dasharray:none;stroke-opacity:1"
         id="path78"
         inkscape:connector-curvature="0" /></g><g
       id="g80"
       transform="matrix(1.0982052,0,0,1.0982052,31.966872,203.19934)"><path
         d="M 0,0 C 0.816,-1.407 0.338,-3.208 -1.068,-4.025 -2.475,-4.842 -4.277,-4.363 -5.094,-2.957 -5.91,-1.55 -5.432,0.252 -4.025,1.068 -2.618,1.885 -0.816,1.407 0,0 Z"
         style="fill:none;stroke:#37c4e7;stroke-width:1;stroke-linecap:butt;stroke-linejoin:miter;stroke-miterlimit:10;stroke-dasharray:none;stroke-opacity:1"
         id="path82"
         inkscape:connector-curvature="0" /></g></g></svg>