<?xml version="1.0" encoding="UTF-8" standalone="no"?>
<!-- Created with Inkscape (http://www.inkscape.org/) -->

<svg
   xmlns:dc="http://purl.org/dc/elements/1.1/"
   xmlns:cc="http://creativecommons.org/ns#"
   xmlns:rdf="http://www.w3.org/1999/02/22-rdf-syntax-ns#"
   xmlns:svg="http://www.w3.org/2000/svg"
   xmlns="http://www.w3.org/2000/svg"
   xmlns:sodipodi="http://sodipodi.sourceforge.net/DTD/sodipodi-0.dtd"
   xmlns:inkscape="http://www.inkscape.org/namespaces/inkscape"
   id="svg3339"
   version="1.1"
   inkscape:version="0.91 r13725"
   xml:space="preserve"
   width="20.857658"
   height="20"
   viewBox="0 0 20.857658 20"
   sodipodi:docname="plane-model.svg"><metadata
     id="metadata3345"><rdf:RDF><cc:Work
         rdf:about=""><dc:format>image/svg+xml</dc:format><dc:type
           rdf:resource="http://purl.org/dc/dcmitype/StillImage" /><dc:title></dc:title></cc:Work></rdf:RDF></metadata><defs
     id="defs3343"><clipPath
       clipPathUnits="userSpaceOnUse"
       id="clipPath3353"><path
         d="m 0,86.286 82.728,0 L 82.728,0 0,0 0,86.286 Z"
         id="path3355"
         inkscape:connector-curvature="0" /></clipPath></defs><sodipodi:namedview
     pagecolor="#ffffff"
     bordercolor="#666666"
     borderopacity="1"
     objecttolerance="10"
     gridtolerance="10"
     guidetolerance="10"
     inkscape:pageopacity="0"
     inkscape:pageshadow="2"
     inkscape:window-width="1920"
     inkscape:window-height="1137"
     id="namedview3341"
     showgrid="false"
     fit-margin-top="0"
     fit-margin-left="0"
     fit-margin-right="0"
     fit-margin-bottom="0"
     inkscape:zoom="8.7522686"
     inkscape:cx="-6.6022679"
     inkscape:cy="13.430254"
     inkscape:window-x="-8"
     inkscape:window-y="-8"
     inkscape:window-maximized="1"
     inkscape:current-layer="g3349" /><g
     id="g3347"
     inkscape:groupmode="layer"
     inkscape:label="Векторный смарт-объект"
     transform="matrix(1.25,0,0,-1.25,0.42990884,20.430576)"><g
       id="g3349"
       transform="matrix(0.1934093,0,0,0.1934093,1.6131814e-4,4.5112373e-5)"><g
         id="g3351"
         clip-path="url(#clipPath3353)"
         transform="matrix(0,-1,1,0,-1.7791244,84.507074)"
         style="fill:none;fill-opacity:1;stroke:#b6b6b6;stroke-opacity:1"><g
           id="g3357"
           transform="translate(45.6192,35.638)"
           style="fill:none;fill-opacity:1;stroke:#b6b6b6;stroke-opacity:1"><path
             d="m 0,0 -0.056,-0.056 c 0,-0.143 -0.073,-0.283 -0.219,-0.424 l -0.614,-14.6 9.746,-10.365 -0.039,-4.601 c -0.005,-0.144 -0.113,-0.322 -0.326,-0.533 -0.288,-0.28 -0.585,-0.395 -0.89,-0.339 -0.301,0.057 -0.592,0.158 -0.879,0.301 l -6.915,4.239 c -0.213,0.146 -0.424,0.183 -0.64,0.113 -0.214,-0.069 -0.376,-0.155 -0.485,-0.262 -0.36,-0.355 -0.515,-0.773 -0.465,-1.254 0.046,-0.479 0.066,-0.901 0.066,-1.256 -0.113,-1.107 -0.626,-2.102 -1.525,-2.984 -0.829,-0.813 -1.63,-0.822 -2.409,-0.03 -0.384,0.392 -0.714,0.856 -0.975,1.374 -0.266,0.518 -0.409,1.043 -0.442,1.583 l -0.086,1.924 c -0.036,0.036 -0.053,0.088 -0.05,0.164 -0.003,0.069 -0.019,0.122 -0.056,0.159 0,0.215 -0.05,0.377 -0.158,0.485 -0.139,0.143 -0.343,0.206 -0.609,0.193 -0.272,-0.018 -0.494,-0.079 -0.675,-0.185 l -7.156,-4.263 c -0.535,-0.246 -1.037,-0.134 -1.494,0.332 l -0.052,0.053 c -0.036,0.037 -0.107,0.143 -0.213,0.322 l 0.04,4.387 c 0.037,0.109 0.085,0.259 0.139,0.454 0.053,0.197 0.098,0.312 0.138,0.351 l 9.392,9.22 c 0.038,0.037 0.095,0.141 0.168,0.321 0.07,0.174 0.093,0.321 0.057,0.425 L -8.026,-0.46 c -0.004,0.142 -0.091,0.301 -0.266,0.481 -0.358,0.363 -0.747,0.47 -1.176,0.333 l -31.717,-15.756 c -0.215,-0.144 -0.409,-0.14 -0.586,0.006 -0.18,0.14 -0.316,0.27 -0.422,0.378 l -0.268,0.27 c -0.105,0.107 -0.158,0.232 -0.158,0.376 l 0.089,3.691 c -0.036,0.108 -0.024,0.255 0.03,0.454 0.056,0.194 0.119,0.326 0.191,0.397 L -8.722,23.139 -9.05,39.892 c -0.023,1.178 0.244,2.362 0.814,3.552 0.56,1.185 1.254,2.19 2.083,3 0.541,0.533 1.152,0.899 1.831,1.11 0.681,0.207 1.426,0.072 2.246,-0.398 l 0.421,-0.429 0.423,-0.434 C -0.56,45.611 0.076,44.748 0.673,43.709 1.27,42.666 1.525,41.648 1.444,40.649 L 0.913,23.479 C 0.874,23.302 0.926,23.126 1.07,22.944 1.209,22.762 1.313,22.639 1.387,22.566 L 32.868,-9.508 c 0.074,-0.073 0.247,-0.289 0.531,-0.648 0.281,-0.362 0.458,-0.574 0.528,-0.648 0.072,-0.073 0.122,-0.176 0.161,-0.32 0.03,-0.144 0.027,-0.269 -0.008,-0.377 l 0.024,-3.479 c -0.075,-0.427 -0.186,-0.71 -0.33,-0.851 -0.36,-0.353 -0.807,-0.402 -1.338,-0.148 L 1.443,0.038 C 1.231,0.184 0.979,0.258 0.695,0.258 0.413,0.261 0.179,0.174 0,0 Z"
             style="fill:none;stroke:#b6b6b6;stroke-width:6;stroke-linecap:butt;stroke-linejoin:miter;stroke-miterlimit:10;stroke-dasharray:none;stroke-opacity:1;fill-opacity:1"
             id="path3359"
             inkscape:connector-curvature="0" /></g></g></g></g></svg>