<?xml version="1.0" encoding="UTF-8" standalone="no"?>
<!-- Generator: Adobe Illustrator 21.0.0, SVG Export Plug-In . SVG Version: 6.00 Build 0)  -->

<svg
   xmlns:dc="http://purl.org/dc/elements/1.1/"
   xmlns:cc="http://creativecommons.org/ns#"
   xmlns:rdf="http://www.w3.org/1999/02/22-rdf-syntax-ns#"
   xmlns:svg="http://www.w3.org/2000/svg"
   xmlns="http://www.w3.org/2000/svg"
   xmlns:sodipodi="http://sodipodi.sourceforge.net/DTD/sodipodi-0.dtd"
   xmlns:inkscape="http://www.inkscape.org/namespaces/inkscape"
   version="1.1"
   id="Слой_1"
   x="0px"
   y="0px"
   viewBox="0 0 146 195.47278"
   xml:space="preserve"
   inkscape:version="0.91 r13725"
   sodipodi:docname="Static_Search.svg"
   width="146"
   height="195.47278"><metadata
     id="metadata47"><rdf:RDF><cc:Work
         rdf:about=""><dc:format>image/svg+xml</dc:format><dc:type
           rdf:resource="http://purl.org/dc/dcmitype/StillImage" /><dc:title></dc:title></cc:Work></rdf:RDF></metadata><defs
     id="defs45" /><sodipodi:namedview
     pagecolor="#ffffff"
     bordercolor="#666666"
     borderopacity="1"
     objecttolerance="10"
     gridtolerance="10"
     guidetolerance="10"
     inkscape:pageopacity="0"
     inkscape:pageshadow="2"
     inkscape:window-width="751"
     inkscape:window-height="480"
     id="namedview43"
     showgrid="false"
     fit-margin-top="0"
     fit-margin-left="0"
     fit-margin-right="0"
     fit-margin-bottom="0"
     inkscape:zoom="1.2040816"
     inkscape:cx="73.222686"
     inkscape:cy="98.123969"
     inkscape:window-x="0"
     inkscape:window-y="0"
     inkscape:window-maximized="0"
     inkscape:current-layer="Слой_1" /><style
     type="text/css"
     id="style3">
	.st0{fill:none;stroke:#9DCB3B;stroke-miterlimit:10;}
	.st1{fill:none;stroke:#9DCB3B;stroke-miterlimit:10;stroke-dasharray:5,5;}
	.st2{fill:none;stroke:#25C2E6;stroke-miterlimit:10;}
	.st3{fill:none;stroke:#25C2E6;stroke-width:4;stroke-miterlimit:10;}
</style><g
     id="g5"
     transform="matrix(0.99660977,0,0,0.99660977,-0.02722091,0.01371191)"><circle
       transform="matrix(0.8264,-0.5631,0.5631,0.8264,-28.7508,50.5531)"
       class="st0"
       cx="67.599998"
       cy="71.900002"
       id="ellipse7"
       r="58.900002"
       style="fill:none;stroke:#9dcb3b;stroke-miterlimit:10" /><path
       class="st1"
       d="M 76.5,136.1 C 52.9,139.4 28.4,129.4 14,108.4 -6.1,78.8 1.5,38.5 31.1,18.4 60.7,-1.7 101,5.9 121.1,35.5 c 14.1,20.6 14.6,46.5 3.6,67.1"
       id="path9"
       inkscape:connector-curvature="0"
       style="fill:none;stroke:#9dcb3b;stroke-miterlimit:10;stroke-dasharray:5, 5" /><g
       id="g11"><path
         class="st2"
         d="M 50.9,2.5 C 51.3,2.4 51.8,2.3 52.2,2.2 60.8,0.3 69.5,0 77.8,1.2"
         id="path13"
         inkscape:connector-curvature="0"
         style="fill:none;stroke:#25c2e6;stroke-miterlimit:10" /><path
         class="st2"
         d="m 87.4,3.3 c 17.5,5 32.7,16.7 42,32.7"
         id="path15"
         inkscape:connector-curvature="0"
         style="fill:none;stroke:#25c2e6;stroke-miterlimit:10" /><path
         class="st2"
         d="m 132.3,41.5 c 1.3,2.7 2.3,5.4 3.3,8.3"
         id="path17"
         inkscape:connector-curvature="0"
         style="fill:none;stroke:#25c2e6;stroke-miterlimit:10" /><path
         class="st2"
         d="m 85.1,141.9 c -0.4,0.1 -0.9,0.2 -1.3,0.3 -8.6,1.9 -17.3,2.2 -25.6,1"
         id="path19"
         inkscape:connector-curvature="0"
         style="fill:none;stroke:#25c2e6;stroke-miterlimit:10" /><path
         class="st2"
         d="m 48.6,141.2 c -17.5,-5 -32.7,-16.7 -42,-32.7"
         id="path21"
         inkscape:connector-curvature="0"
         style="fill:none;stroke:#25c2e6;stroke-miterlimit:10" /><path
         class="st2"
         d="M 3.8,103 C 2.5,100.3 1.5,97.6 0.5,94.7"
         id="path23"
         inkscape:connector-curvature="0"
         style="fill:none;stroke:#25c2e6;stroke-miterlimit:10" /></g><g
       id="g25"><path
         class="st2"
         d="m 67.7,126.5 c -4.7,0 -9.4,-0.6 -14.1,-1.9 C 39.5,120.9 27.7,111.9 20.4,99.2 13.1,86.6 11.1,71.9 14.8,57.8 18.6,43.8 27.6,32 40.2,24.7 c 12.6,-7.3 27.3,-9.3 41.4,-5.6 14.1,3.7 25.9,12.7 33.2,25.4 l 0,0 c 7.3,12.6 9.3,27.3 5.6,41.4 -3.7,14.1 -12.7,25.9 -25.4,33.2 -8.4,4.9 -17.8,7.4 -27.3,7.4 z M 67.6,25.7 c -8,0 -16,2.1 -23.1,6.3 -22.1,12.7 -29.6,41 -16.8,63.1 6.2,10.7 16.2,18.3 28.1,21.5 11.9,3.2 24.4,1.5 35,-4.7 10.7,-6.2 18.3,-16.2 21.5,-28.1 3.2,-11.9 1.5,-24.4 -4.7,-35 l 0,0 C 101.4,38 91.4,30.4 79.5,27.2 c -4,-1 -8,-1.5 -11.9,-1.5 z"
         id="path27"
         inkscape:connector-curvature="0"
         style="fill:none;stroke:#25c2e6;stroke-miterlimit:10" /></g><path
       class="st2"
       d="m 105.1,128.4 -7,4.1 c -1.9,1.1 -4.4,0.5 -5.5,-1.5 l -0.4,-0.7 c -1.1,-1.9 -0.5,-4.4 1.5,-5.5 l 7,-4.1 c 1.9,-1.1 4.4,-0.5 5.5,1.5 l 0.4,0.7 c 1.1,1.9 0.4,4.4 -1.5,5.5 z"
       id="path29"
       inkscape:connector-curvature="0"
       style="fill:none;stroke:#25c2e6;stroke-miterlimit:10" /><path
       class="st2"
       d="m 109.1,126.1 -14.9,8.7 c -1.9,1.1 -2.6,3.6 -1.5,5.5 l 30.9,53.3 c 1.1,1.9 3.6,2.6 5.5,1.5 l 14.9,-8.7 c 1.9,-1.1 2.6,-3.6 1.5,-5.5 l -30.9,-53.3 c -1.2,-2 -3.6,-2.6 -5.5,-1.5 z"
       id="path31"
       inkscape:connector-curvature="0"
       style="fill:none;stroke:#25c2e6;stroke-miterlimit:10" /><path
       class="st2"
       d="m 105.4,133.5 c -3.4,2 -7.5,4.3 -7.5,4.3 -0.5,0.3 -0.7,1 -0.4,1.5 0,0 7.6,13.1 15,25.9"
       id="path33"
       inkscape:connector-curvature="0"
       style="fill:none;stroke:#25c2e6;stroke-miterlimit:10" /><path
       class="st2"
       d="m 115.3,170 c 1.3,2.3 2.6,4.4 3.8,6.5"
       id="path35"
       inkscape:connector-curvature="0"
       style="fill:none;stroke:#25c2e6;stroke-miterlimit:10" /><circle
       transform="matrix(0.8648,-0.502,0.502,0.8648,1.2279,18.8516)"
       class="st2"
       cx="35.599998"
       cy="7.0999999"
       id="ellipse37"
       r="4"
       style="fill:none;stroke:#25c2e6;stroke-miterlimit:10" /><circle
       transform="matrix(0.8648,-0.502,0.502,0.8648,-2.639,15.012)"
       class="st2"
       cx="26.6"
       cy="12.4"
       id="ellipse39"
       r="2.9000001"
       style="fill:none;stroke:#25c2e6;stroke-miterlimit:10" /><path
       class="st3"
       d="m 67.6,21.4 c -8.8,0 -17.5,2.3 -25.3,6.8 -24.1,14 -32.3,44.9 -18.3,69 6.8,11.7 17.7,20 30.7,23.4 13,3.5 26.6,1.6 38.3,-5.1 11.7,-6.7 20,-17.7 23.4,-30.7 3.5,-13 1.6,-26.6 -5.1,-38.3 l 0,0 C 104.5,34.8 93.6,26.5 80.6,23.1 76.3,21.9 71.9,21.4 67.6,21.4 Z"
       id="path41"
       inkscape:connector-curvature="0"
       style="fill:none;stroke:#25c2e6;stroke-width:4;stroke-miterlimit:10" /></g></svg>