<?xml version="1.0" encoding="utf-8"?>
<!-- Generator: Adobe Illustrator 17.0.2, SVG Export Plug-In . SVG Version: 6.00 Build 0)  -->
<!DOCTYPE svg PUBLIC "-//W3C//DTD SVG 1.1//EN" "http://www.w3.org/Graphics/SVG/1.1/DTD/svg11.dtd">
<svg version="1.1" id="Layer_1" xmlns="http://www.w3.org/2000/svg" xmlns:xlink="http://www.w3.org/1999/xlink" x="0px" y="0px"
	 width="32.221px" height="32.324px" viewBox="0 0 32.221 32.324" enable-background="new 0 0 32.221 32.324" xml:space="preserve">
<path fill="#BBBBBB" d="M16.059,0C7.133,0-0.103,7.236-0.103,16.162c0,8.926,7.236,16.162,16.162,16.162s16.162-7.236,16.162-16.162
	C32.221,7.236,24.985,0,16.059,0z M25.02,11.813c-0.129,0.106-0.243,0.317-0.243,0.48c0.007,2.666-0.755,5.093-2.287,7.265
	c-1.533,2.172-3.574,3.673-6.146,4.389c-0.835,0.233-1.707,0.335-2.562,0.498c-0.637,0-1.274,0-1.911,0
	c-0.074-0.025-0.147-0.065-0.223-0.071c-1.267-0.106-2.472-0.446-3.625-0.968c-0.497-0.225-0.971-0.498-1.456-0.749
	c0.012-0.035,0.024-0.071,0.036-0.106c1.054,0.145,2.085,0.028,3.099-0.25c1.028-0.281,1.971-0.735,2.914-1.473
	c-0.967-0.049-1.745-0.328-2.418-0.848c-0.678-0.524-1.186-1.179-1.434-2.052c0.321,0.025,0.597,0.067,0.873,0.062
	c0.263-0.004,0.524-0.056,0.786-0.088c-0.911-0.348-1.684-0.829-2.268-1.587c-0.58-0.753-0.866-1.605-0.87-2.583
	c0.31,0.117,0.576,0.239,0.853,0.317c0.267,0.075,0.546,0.105,0.911,0.171c-1.83-1.935-2.237-3.965-1.147-5.544
	c2.257,2.621,5.085,4.095,8.571,4.32c-0.286-1.805,0.218-3.264,1.656-4.292c0.541-0.387,1.238-0.555,1.863-0.823
	c0.398,0,0.796,0,1.194,0c0.875,0.235,1.7,0.562,2.358,1.222c0.062,0.062,0.233,0.065,0.331,0.031
	c0.648-0.224,1.291-0.464,1.934-0.703c0.125-0.046,0.242-0.113,0.468-0.219c-0.135,0.305-0.186,0.521-0.309,0.682
	c-0.403,0.529-0.832,1.037-1.292,1.603c0.695-0.192,1.381-0.381,2.105-0.58C26.288,10.661,25.688,11.265,25.02,11.813z"/>
</svg>
