<?xml version="1.0" encoding="utf-8"?>
<!-- Generator: Adobe Illustrator 17.0.2, SVG Export Plug-In . SVG Version: 6.00 Build 0)  -->
<!DOCTYPE svg PUBLIC "-//W3C//DTD SVG 1.1//EN" "http://www.w3.org/Graphics/SVG/1.1/DTD/svg11.dtd">
<svg version="1.1" id="Layer_1" xmlns="http://www.w3.org/2000/svg" xmlns:xlink="http://www.w3.org/1999/xlink" x="0px" y="0px"
	 width="32.221px" height="32.324px" viewBox="0 0 32.221 32.324" enable-background="new 0 0 32.221 32.324" xml:space="preserve">
<g>
	<path fill="#BBBBBB" d="M17.799,17.408c-0.247-0.094-0.586-0.147-1.017-0.158c-0.432-0.011-1.01-0.016-1.735-0.016h-0.751v4.057
		h0.218c1.059,0,1.791-0.007,2.197-0.022c0.406-0.014,0.819-0.112,1.24-0.294c0.37-0.159,0.64-0.393,0.81-0.702
		c0.17-0.308,0.256-0.658,0.256-1.05c0-0.5-0.102-0.892-0.305-1.175C18.509,17.766,18.205,17.553,17.799,17.408z"/>
	<path fill="#BBBBBB" d="M16.27,14.438c0.279-0.014,0.567-0.091,0.865-0.228c0.326-0.152,0.551-0.363,0.674-0.631
		c0.123-0.268,0.185-0.58,0.185-0.936c0-0.261-0.067-0.529-0.201-0.805c-0.134-0.275-0.343-0.475-0.626-0.598
		c-0.268-0.116-0.586-0.179-0.952-0.19c-0.366-0.011-0.912-0.016-1.637-0.016h-0.283v3.427h0.511
		C15.504,14.46,15.991,14.452,16.27,14.438z"/>
	<path fill="#BBBBBB" d="M16.111,0C7.185,0-0.051,7.236-0.051,16.162s7.236,16.162,16.162,16.162
		c8.926,0,16.162-7.236,16.162-16.162S25.037,0,16.111,0z M22.748,21.422c-0.305,0.609-0.714,1.113-1.229,1.512
		c-0.609,0.479-1.278,0.82-2.007,1.023c-0.729,0.203-1.655,0.305-2.779,0.305h-6.483V8.063h5.722c1.189,0,2.09,0.045,2.703,0.136
		c0.613,0.091,1.187,0.281,1.724,0.571c0.58,0.312,1.013,0.729,1.3,1.251c0.286,0.522,0.43,1.124,0.43,1.806
		c0,0.791-0.198,1.494-0.593,2.11c-0.395,0.617-0.941,1.07-1.637,1.36v0.087c1.001,0.21,1.802,0.64,2.404,1.289
		c0.602,0.649,0.903,1.525,0.903,2.627C23.205,20.105,23.053,20.812,22.748,21.422z"/>
</g>
</svg>
