<?xml version="1.0" encoding="UTF-8" standalone="no"?>
<!-- Created with Inkscape (http://www.inkscape.org/) -->

<svg
   xmlns:dc="http://purl.org/dc/elements/1.1/"
   xmlns:cc="http://creativecommons.org/ns#"
   xmlns:rdf="http://www.w3.org/1999/02/22-rdf-syntax-ns#"
   xmlns:svg="http://www.w3.org/2000/svg"
   xmlns="http://www.w3.org/2000/svg"
   xmlns:sodipodi="http://sodipodi.sourceforge.net/DTD/sodipodi-0.dtd"
   xmlns:inkscape="http://www.inkscape.org/namespaces/inkscape"
   id="svg2"
   version="1.1"
   inkscape:version="0.91 r13725"
   xml:space="preserve"
   width="48.673893"
   height="49"
   viewBox="0 0 48.673891 49.000001"
   sodipodi:docname="dish.svg"><metadata
     id="metadata8"><rdf:RDF><cc:Work
         rdf:about=""><dc:format>image/svg+xml</dc:format><dc:type
           rdf:resource="http://purl.org/dc/dcmitype/StillImage" /><dc:title></dc:title></cc:Work></rdf:RDF></metadata><defs
     id="defs6"><clipPath
       clipPathUnits="userSpaceOnUse"
       id="clipPath16"><path
         d="m 0,128.256 127.404,0 L 127.404,0 0,0 0,128.256 Z"
         id="path18"
         inkscape:connector-curvature="0" /></clipPath></defs><sodipodi:namedview
     pagecolor="#ffffff"
     bordercolor="#666666"
     borderopacity="1"
     objecttolerance="10"
     gridtolerance="10"
     guidetolerance="10"
     inkscape:pageopacity="0"
     inkscape:pageshadow="2"
     inkscape:window-width="742"
     inkscape:window-height="480"
     id="namedview4"
     showgrid="false"
     fit-margin-top="0"
     fit-margin-left="0"
     fit-margin-right="0"
     fit-margin-bottom="0"
     inkscape:zoom="1.4720558"
     inkscape:cx="79.625162"
     inkscape:cy="80.159996"
     inkscape:window-x="0"
     inkscape:window-y="0"
     inkscape:window-maximized="0"
     inkscape:current-layer="g10" /><g
     id="g10"
     inkscape:groupmode="layer"
     inkscape:label="Vector Smart Object7"
     transform="matrix(1.25,0,0,-1.25,-0.0023401,49)"><g
       id="g12"
       transform="matrix(0.30563944,0,0,0.30563944,0.0012999,0)"><g
         id="g14"
         clip-path="url(#clipPath16)"><g
           id="g20"
           transform="translate(63.1471,37.6405)"><path
             d="m 0,0 13.705,0 8.894,0 11.091,8.095 c 4.56,5.775 16.567,2.397 16.567,2.397 C 48.233,0.71 27.995,-17.841 27.995,-17.841 l -48.907,0 c -6.409,-1.349 -23.948,-17.8 -23.948,-17.8 0,0 -20.125,15.756 -15.633,25.756 4.707,10.479 42.737,20.943 42.737,20.943 l 42.024,0 c 0,0 1.292,-8.475 -7.448,-11.058"
             style="fill:none;stroke:#231f20;stroke-width:4;stroke-linecap:round;stroke-linejoin:round;stroke-miterlimit:10;stroke-dasharray:none;stroke-opacity:1"
             id="path22"
             inkscape:connector-curvature="0" /></g><path
           d="m 125.404,49.114 -120.5,0 0,8.141 120.5,0 0,-8.141 z"
           style="fill:none;stroke:#231f20;stroke-width:4;stroke-linecap:round;stroke-linejoin:round;stroke-miterlimit:10;stroke-dasharray:none;stroke-opacity:1"
           id="path24"
           inkscape:connector-curvature="0" /><g
           id="g26"
           transform="translate(65.7399,120.8485)"><path
             d="m 0,0 c -31.847,0 -57.664,-25.817 -57.664,-57.664 l 115.328,0 C 57.664,-25.817 31.847,0 0,0 Z"
             style="fill:none;stroke:#231f20;stroke-width:4;stroke-linecap:round;stroke-linejoin:round;stroke-miterlimit:10;stroke-dasharray:none;stroke-opacity:1"
             id="path28"
             inkscape:connector-curvature="0" /></g><g
           id="g30"
           transform="translate(69.568,123.8417)"><path
             d="m 0,0 c 0,2.438 -1.977,4.414 -4.414,4.414 -2.438,0 -4.414,-1.976 -4.414,-4.414 0,-2.438 1.976,-4.414 4.414,-4.414 C -1.977,-4.414 0,-2.438 0,0"
             style="fill:#231f20;fill-opacity:1;fill-rule:nonzero;stroke:none"
             id="path32"
             inkscape:connector-curvature="0" /></g></g></g></g></svg>