<?xml version="1.0" encoding="UTF-8" standalone="no"?>
<!-- Created with Inkscape (http://www.inkscape.org/) -->

<svg
   xmlns:dc="http://purl.org/dc/elements/1.1/"
   xmlns:cc="http://creativecommons.org/ns#"
   xmlns:rdf="http://www.w3.org/1999/02/22-rdf-syntax-ns#"
   xmlns:svg="http://www.w3.org/2000/svg"
   xmlns="http://www.w3.org/2000/svg"
   xmlns:sodipodi="http://sodipodi.sourceforge.net/DTD/sodipodi-0.dtd"
   xmlns:inkscape="http://www.inkscape.org/namespaces/inkscape"
   id="svg2"
   version="1.1"
   inkscape:version="0.91 r13725"
   xml:space="preserve"
   width="36.115185"
   height="62"
   viewBox="0 0 36.115185 62"
   sodipodi:docname="Vector Smart Object5.ai"><metadata
     id="metadata8"><rdf:RDF><cc:Work
         rdf:about=""><dc:format>image/svg+xml</dc:format><dc:type
           rdf:resource="http://purl.org/dc/dcmitype/StillImage" /><dc:title></dc:title></cc:Work></rdf:RDF></metadata><defs
     id="defs6"><clipPath
       clipPathUnits="userSpaceOnUse"
       id="clipPath16"><path
         d="m 0,132.188 77,0 L 77,0 0,0 0,132.188 Z"
         id="path18"
         inkscape:connector-curvature="0" /></clipPath></defs><sodipodi:namedview
     pagecolor="#ffffff"
     bordercolor="#666666"
     borderopacity="1"
     objecttolerance="10"
     gridtolerance="10"
     guidetolerance="10"
     inkscape:pageopacity="0"
     inkscape:pageshadow="2"
     inkscape:window-width="742"
     inkscape:window-height="480"
     id="namedview4"
     showgrid="false"
     fit-margin-top="0"
     fit-margin-left="0"
     fit-margin-right="0"
     fit-margin-bottom="0"
     inkscape:zoom="1.4282688"
     inkscape:cx="48.125"
     inkscape:cy="82.6175"
     inkscape:window-x="0"
     inkscape:window-y="0"
     inkscape:window-maximized="0"
     inkscape:current-layer="g10" /><g
     id="g10"
     inkscape:groupmode="layer"
     inkscape:label="Vector Smart Object5"
     transform="matrix(1.25,0,0,-1.25,0,62)"><g
       id="g12"
       transform="scale(0.37522317,0.37522317)"><g
         id="g14"
         clip-path="url(#clipPath16)"><g
           id="g20"
           transform="translate(46.3843,9.884)"><path
             d="m 0,0 c 0,-4.354 -3.53,-7.884 -7.885,-7.884 -4.353,0 -7.884,3.53 -7.884,7.884 0,4.354 3.531,7.884 7.884,7.884 C -3.53,7.884 0,4.354 0,0 Z"
             style="fill:none;stroke:#231f20;stroke-width:4;stroke-linecap:round;stroke-linejoin:round;stroke-miterlimit:10;stroke-dasharray:none;stroke-opacity:1"
             id="path22"
             inkscape:connector-curvature="0" /></g><g
           id="g24"
           transform="translate(17.3589,57.6492)"><path
             d="m 0,0 c 9.98,-15.943 21.141,-29.953 21.141,-29.953 0,0 36.5,45.832 36.5,65.992 0,20.16 -16.34,36.5 -36.5,36.5 -20.16,0 -36.5,-16.34 -36.5,-36.5 0,-4.164 1.553,-9.42 4.03,-15.143"
             style="fill:none;stroke:#231f20;stroke-width:4;stroke-linecap:round;stroke-linejoin:round;stroke-miterlimit:10;stroke-dasharray:none;stroke-opacity:1"
             id="path26"
             inkscape:connector-curvature="0" /></g><g
           id="g28"
           transform="translate(35.8316,75.7473)"><path
             d="m 0,0 c 0.876,-0.105 1.764,-0.163 2.668,-0.163 11.773,0 21.316,9.542 21.316,21.316 0,11.773 -9.543,21.316 -21.316,21.316 -11.773,0 -21.315,-9.543 -21.315,-21.316 0,-4.585 1.442,-8.83 3.907,-12.305"
             style="fill:none;stroke:#231f20;stroke-width:4;stroke-linecap:round;stroke-linejoin:round;stroke-miterlimit:10;stroke-dasharray:none;stroke-opacity:1"
             id="path30"
             inkscape:connector-curvature="0" /></g><g
           id="g32"
           transform="translate(6.0298,78.5447)"><path
             d="M 0,0 C 4.578,0.8 10.016,2.64 15.062,6.05"
             style="fill:none;stroke:#231f20;stroke-width:4;stroke-linecap:round;stroke-linejoin:round;stroke-miterlimit:10;stroke-dasharray:none;stroke-opacity:1"
             id="path34"
             inkscape:connector-curvature="0" /></g><g
           id="g36"
           transform="translate(17.3589,57.6492)"><path
             d="M 0,0 C 10.454,4.655 15.786,12.165 18.473,18.098"
             style="fill:none;stroke:#231f20;stroke-width:4;stroke-linecap:round;stroke-linejoin:round;stroke-miterlimit:10;stroke-dasharray:none;stroke-opacity:1"
             id="path38"
             inkscape:connector-curvature="0" /></g></g></g></g></svg>