<?xml version="1.0" encoding="UTF-8" standalone="no"?>
<!-- Created with Inkscape (http://www.inkscape.org/) -->

<svg
   xmlns:dc="http://purl.org/dc/elements/1.1/"
   xmlns:cc="http://creativecommons.org/ns#"
   xmlns:rdf="http://www.w3.org/1999/02/22-rdf-syntax-ns#"
   xmlns:svg="http://www.w3.org/2000/svg"
   xmlns="http://www.w3.org/2000/svg"
   xmlns:sodipodi="http://sodipodi.sourceforge.net/DTD/sodipodi-0.dtd"
   xmlns:inkscape="http://www.inkscape.org/namespaces/inkscape"
   id="svg2"
   version="1.1"
   inkscape:version="0.91 r13725"
   xml:space="preserve"
   width="51.719669"
   height="44"
   viewBox="0 0 51.719668 44.000001"
   sodipodi:docname="Vector Smart Object6.ai"><metadata
     id="metadata8"><rdf:RDF><cc:Work
         rdf:about=""><dc:format>image/svg+xml</dc:format><dc:type
           rdf:resource="http://purl.org/dc/dcmitype/StillImage" /><dc:title></dc:title></cc:Work></rdf:RDF></metadata><defs
     id="defs6"><clipPath
       clipPathUnits="userSpaceOnUse"
       id="clipPath16"><path
         d="m 0,92.616 108.866,0 L 108.866,0 0,0 0,92.616 Z"
         id="path18"
         inkscape:connector-curvature="0" /></clipPath></defs><sodipodi:namedview
     pagecolor="#ffffff"
     bordercolor="#666666"
     borderopacity="1"
     objecttolerance="10"
     gridtolerance="10"
     guidetolerance="10"
     inkscape:pageopacity="0"
     inkscape:pageshadow="2"
     inkscape:window-width="1920"
     inkscape:window-height="1137"
     id="namedview4"
     showgrid="false"
     fit-margin-top="0"
     fit-margin-left="0"
     fit-margin-right="0"
     fit-margin-bottom="0"
     inkscape:zoom="2.038518"
     inkscape:cx="68.040752"
     inkscape:cy="57.885191"
     inkscape:window-x="-8"
     inkscape:window-y="-8"
     inkscape:window-maximized="1"
     inkscape:current-layer="g10" /><g
     id="g10"
     inkscape:groupmode="layer"
     inkscape:label="Vector Smart Object6"
     transform="matrix(1.25,0,0,-1.25,-5e-4,44)"><g
       id="g12"
       transform="matrix(0.38006392,0,0,0.38006392,2.4797443e-4,0)"><g
         id="g14"
         clip-path="url(#clipPath16)"><g
           id="g20"
           transform="translate(78.8216,79.8223)"><path
             d="m 0,0 c 16.554,-6.529 28.044,-20.892 28.044,-37.562 0,-8.096 -2.554,-14.436 -7.051,-19.238"
             style="fill:none;stroke:#ffffff;stroke-width:4;stroke-linecap:round;stroke-linejoin:round;stroke-miterlimit:10;stroke-dasharray:none;stroke-opacity:1"
             id="path22"
             inkscape:connector-curvature="0" /></g><g
           id="g24"
           transform="translate(23.095,70.1163)"><path
             d="m 0,0 -0.015,0 0,20.5 C 7.211,17.497 12.201,14.334 15.19,9.604 c 5.122,2.061 10.736,3.381 16.656,3.758"
             style="fill:none;stroke:#ffffff;stroke-width:4;stroke-linecap:round;stroke-linejoin:round;stroke-miterlimit:10;stroke-dasharray:none;stroke-opacity:1"
             id="path26"
             inkscape:connector-curvature="0" /></g><g
           id="g28"
           transform="translate(44.7269,11.6626)"><path
             d="m 0,0 c 4.802,-0.726 9.895,-1.074 15.146,-1.074 6.805,0 13.203,0.58 18.949,1.828"
             style="fill:none;stroke:#ffffff;stroke-width:4;stroke-linecap:round;stroke-linejoin:round;stroke-miterlimit:10;stroke-dasharray:none;stroke-opacity:1"
             id="path30"
             inkscape:connector-curvature="0" /></g><g
           id="g32"
           transform="translate(23.0804,70.1163)"><path
             d="m 0,0 c -4.294,-4.033 -7.66,-8.821 -9.822,-14.073 l -5.31,0 c -3.279,0 -5.948,-2.67 -5.948,-5.948 l 0,-17.846 c 0,-3.279 2.669,-5.948 5.948,-5.948 l 7.066,0 c 0.13,0 0.246,0 0.377,0.015 2.408,-3.308 5.615,-6.036 9.445,-8.227"
             style="fill:none;stroke:#ffffff;stroke-width:4;stroke-linecap:round;stroke-linejoin:round;stroke-miterlimit:10;stroke-dasharray:none;stroke-opacity:1"
             id="path34"
             inkscape:connector-curvature="0" /></g><g
           id="g36"
           transform="translate(44.7269,11.6626)"><path
             d="m 0,0 0,-9.663 -10.766,0 c -4.352,0.494 -7.529,10.025 -9.125,16.09"
             style="fill:none;stroke:#ffffff;stroke-width:4;stroke-linecap:round;stroke-linejoin:round;stroke-miterlimit:10;stroke-dasharray:none;stroke-opacity:1"
             id="path38"
             inkscape:connector-curvature="0" /></g><g
           id="g40"
           transform="translate(99.8148,23.0225)"><path
             d="m 0,0 0.043,0.015 c 0,0 -3.873,-20.312 -10.286,-21.037 l -10.75,0 0,10.417"
             style="fill:none;stroke:#ffffff;stroke-width:4;stroke-linecap:round;stroke-linejoin:round;stroke-miterlimit:10;stroke-dasharray:none;stroke-opacity:1"
             id="path42"
             inkscape:connector-curvature="0" /></g><g
           id="g44"
           transform="translate(24.096,53.9537)"><path
             d="m 0,0 c -0.629,-2.612 -0.777,-4.816 -2.726,-4.347 -1.947,0.469 -3.016,2.966 -2.387,5.577 0.629,2.612 2.717,4.35 4.665,3.881 C 1.499,4.642 0.629,2.612 0,0"
             style="fill:#000000;fill-opacity:1;fill-rule:nonzero;stroke:none"
             id="path46"
             inkscape:connector-curvature="0" /></g><g
           id="g48"
           transform="translate(55.3655,83.48)"><path
             d="m 0,0 0,-6.5 20,-2.583 3.456,5.425"
             style="fill:none;stroke:#ffffff;stroke-width:4;stroke-linecap:round;stroke-linejoin:round;stroke-miterlimit:10;stroke-dasharray:none;stroke-opacity:1"
             id="path50"
             inkscape:connector-curvature="0" /></g></g></g></g></svg>