<?xml version="1.0" encoding="UTF-8" standalone="no"?>
<!-- Created with Inkscape (http://www.inkscape.org/) -->

<svg
   xmlns:dc="http://purl.org/dc/elements/1.1/"
   xmlns:cc="http://creativecommons.org/ns#"
   xmlns:rdf="http://www.w3.org/1999/02/22-rdf-syntax-ns#"
   xmlns:svg="http://www.w3.org/2000/svg"
   xmlns="http://www.w3.org/2000/svg"
   xmlns:sodipodi="http://sodipodi.sourceforge.net/DTD/sodipodi-0.dtd"
   xmlns:inkscape="http://www.inkscape.org/namespaces/inkscape"
   id="svg2"
   version="1.1"
   inkscape:version="0.91 r13725"
   xml:space="preserve"
   width="84.492012"
   height="85.058647"
   viewBox="0 0 84.492014 85.058649"
   sodipodi:docname="dish.svg"><metadata
     id="metadata8"><rdf:RDF><cc:Work
         rdf:about=""><dc:format>image/svg+xml</dc:format><dc:type
           rdf:resource="http://purl.org/dc/dcmitype/StillImage" /><dc:title></dc:title></cc:Work></rdf:RDF></metadata><defs
     id="defs6"><clipPath
       clipPathUnits="userSpaceOnUse"
       id="clipPath16"><path
         d="m 0,168.88 168.88,0 L 168.88,0 0,0 0,168.88 Z"
         id="path18"
         inkscape:connector-curvature="0" /></clipPath></defs><sodipodi:namedview
     pagecolor="#ffffff"
     bordercolor="#666666"
     borderopacity="1"
     objecttolerance="10"
     gridtolerance="10"
     guidetolerance="10"
     inkscape:pageopacity="0"
     inkscape:pageshadow="2"
     inkscape:window-width="751"
     inkscape:window-height="480"
     id="namedview4"
     showgrid="false"
     fit-margin-top="0"
     fit-margin-left="0"
     fit-margin-right="0"
     fit-margin-bottom="0"
     inkscape:zoom="1.1179535"
     inkscape:cx="92.398693"
     inkscape:cy="87.751961"
     inkscape:window-x="0"
     inkscape:window-y="0"
     inkscape:window-maximized="0"
     inkscape:current-layer="g10" /><g
     id="g10"
     inkscape:groupmode="layer"
     inkscape:label="Векторный смарт-объект21"
     transform="matrix(1.25,0,0,-1.25,-13.15131,102.85668)"><g
       id="g24"
       transform="matrix(0.53055487,0,0,0.53055487,44.023056,34.209011)"><path class="mystroke"
         d="m 0,0 13.705,0 8.894,0 11.091,8.095 c 4.56,5.775 16.567,2.397 16.567,2.397 C 48.233,0.71 27.995,-17.841 27.995,-17.841 l -48.907,0 c -6.409,-1.349 -23.948,-17.8 -23.948,-17.8 0,0 -20.125,15.756 -15.633,25.756 4.707,10.479 42.737,20.943 42.737,20.943 l 42.024,0 c 0,0 1.292,-8.475 -7.448,-11.058"
         style="fill:none;stroke:#ffffff;stroke-width:4;stroke-linecap:round;stroke-linejoin:round;stroke-miterlimit:10;stroke-dasharray:none;stroke-opacity:1"
         id="path26"
         inkscape:connector-curvature="0" /></g><path class="mystroke"
       d="m 77.053545,40.296173 -63.931862,0 0,4.319247 63.931862,0 0,-4.319247 z"
       style="fill:none;stroke:#ffffff;stroke-width:2.12221956;stroke-linecap:round;stroke-linejoin:round;stroke-miterlimit:10;stroke-dasharray:none;stroke-opacity:1"
       id="path28"
       inkscape:connector-curvature="0" /><g
       id="g30"
       transform="matrix(0.53055487,0,0,0.53055487,45.398625,78.355473)"><path class="mystroke"
         d="m 0,0 c -31.847,0 -57.664,-25.817 -57.664,-57.664 l 115.328,0 C 57.664,-25.817 31.847,0 0,0 Z"
         style="fill:none;stroke:#ffffff;stroke-width:4;stroke-linecap:round;stroke-linejoin:round;stroke-miterlimit:10;stroke-dasharray:none;stroke-opacity:1"
         id="path32"
         inkscape:connector-curvature="0" /></g><g
       id="g34"
       transform="matrix(0.53055487,0,0,0.53055487,47.429695,79.943477)"><path class="myfill"
         d="m 0,0 c 0,2.438 -1.977,4.414 -4.414,4.414 -2.438,0 -4.414,-1.976 -4.414,-4.414 0,-2.438 1.976,-4.414 4.414,-4.414 C -1.977,-4.414 0,-2.438 0,0"
         style="fill:#ffffff;fill-opacity:1;fill-rule:nonzero;stroke:none"
         id="path36"
         inkscape:connector-curvature="0" /></g></g></svg>