<?xml version="1.0" encoding="UTF-8" standalone="no"?>
<!-- Created with Inkscape (http://www.inkscape.org/) -->

<svg
   xmlns:dc="http://purl.org/dc/elements/1.1/"
   xmlns:cc="http://creativecommons.org/ns#"
   xmlns:rdf="http://www.w3.org/1999/02/22-rdf-syntax-ns#"
   xmlns:svg="http://www.w3.org/2000/svg"
   xmlns="http://www.w3.org/2000/svg"
   xmlns:sodipodi="http://sodipodi.sourceforge.net/DTD/sodipodi-0.dtd"
   xmlns:inkscape="http://www.inkscape.org/namespaces/inkscape"
   id="svg2"
   version="1.1"
   inkscape:version="0.91 r13725"
   xml:space="preserve"
   width="37.292038"
   height="86.63298"
   viewBox="0 0 37.292039 86.632982"
   sodipodi:docname="dnd.svg"><metadata
     id="metadata8"><rdf:RDF><cc:Work
         rdf:about=""><dc:format>image/svg+xml</dc:format><dc:type
           rdf:resource="http://purl.org/dc/dcmitype/StillImage" /><dc:title></dc:title></cc:Work></rdf:RDF></metadata><defs
     id="defs6"><clipPath
       clipPathUnits="userSpaceOnUse"
       id="clipPath16"><path
         d="m 0,168.88 168.88,0 L 168.88,0 0,0 0,168.88 Z"
         id="path18"
         inkscape:connector-curvature="0" /></clipPath></defs><sodipodi:namedview
     pagecolor="#ffffff"
     bordercolor="#666666"
     borderopacity="1"
     objecttolerance="10"
     gridtolerance="10"
     guidetolerance="10"
     inkscape:pageopacity="0"
     inkscape:pageshadow="2"
     inkscape:window-width="751"
     inkscape:window-height="480"
     id="namedview4"
     showgrid="false"
     fit-margin-top="0"
     fit-margin-left="0"
     fit-margin-right="0"
     fit-margin-bottom="0"
     inkscape:zoom="1.1179535"
     inkscape:cx="68.195956"
     inkscape:cy="90.235001"
     inkscape:window-x="0"
     inkscape:window-y="0"
     inkscape:window-maximized="0"
     inkscape:current-layer="g10" /><g
     id="g10"
     inkscape:groupmode="layer"
     inkscape:label="Векторный смарт-объект2"
     transform="matrix(1.25,0,0,-1.25,-37.354047,101.94797)"><g
       id="g24"
       transform="matrix(0.53055487,0,0,0.53055487,58.655759,66.641299)"><path
         d="m 0,0 c 0,14.419 -11.696,26.116 -26.116,26.116 -12.356,0 -22.704,-8.592 -25.415,-20.122 l 12.408,0 c 2.469,5.346 8.118,8.923 14.531,8.26 6.614,-0.684 11.986,-6.007 12.718,-12.616 0.959,-8.649 -5.786,-15.971 -14.242,-15.971 -2.144,0 -6.004,-0.979 -10.111,-2.248 -9.498,-2.937 -16.004,-11.681 -16.004,-21.624 l 0,-58.396 c 0,-2.152 1.76,-3.913 3.913,-3.913 l 44.405,0 c 2.152,0 3.913,1.761 3.913,3.913 l 0,92.688 c 0,0.368 -0.052,0.728 -0.154,1.07 C -0.052,-1.909 0,-0.959 0,0 Z"
         style="fill:none;stroke:#ffffff;stroke-width:4;stroke-linecap:round;stroke-linejoin:round;stroke-miterlimit:10;stroke-dasharray:none;stroke-opacity:1"
         id="path26"
         inkscape:connector-curvature="0" /></g><g
       id="g28"
       transform="matrix(0.53055487,0,0,0.53055487,44.799682,48.007098)"><path
         d="m 0,0 6.116,-12.392 13.675,-1.986 -9.895,-9.646 2.335,-13.62 -12.231,6.431 -12.23,-6.431 2.335,13.62 -9.895,9.646 13.675,1.986 L 0,0 Z"
         style="fill:none;stroke:#ffffff;stroke-width:4;stroke-linecap:round;stroke-linejoin:round;stroke-miterlimit:10;stroke-dasharray:none;stroke-opacity:1"
         id="path30"
         inkscape:connector-curvature="0" /></g></g></svg>