<?xml version="1.0" encoding="UTF-8" standalone="no"?>
<!-- Generator: Adobe Illustrator 21.0.0, SVG Export Plug-In . SVG Version: 6.00 Build 0)  -->

<svg
   xmlns:dc="http://purl.org/dc/elements/1.1/"
   xmlns:cc="http://creativecommons.org/ns#"
   xmlns:rdf="http://www.w3.org/1999/02/22-rdf-syntax-ns#"
   xmlns:svg="http://www.w3.org/2000/svg"
   xmlns="http://www.w3.org/2000/svg"
   xmlns:xlink="http://www.w3.org/1999/xlink"
   xmlns:sodipodi="http://sodipodi.sourceforge.net/DTD/sodipodi-0.dtd"
   xmlns:inkscape="http://www.inkscape.org/namespaces/inkscape"
   version="1.1"
   id="Layer_1"
   x="0px"
   y="0px"
   viewBox="0 0 59 34.416668"
   xml:space="preserve"
   inkscape:version="0.91 r13725"
   sodipodi:docname="Bus.svg"
   width="59"
   height="34.416668"><metadata
     id="metadata63"><rdf:RDF><cc:Work
         rdf:about=""><dc:format>image/svg+xml</dc:format><dc:type
           rdf:resource="http://purl.org/dc/dcmitype/StillImage" /><dc:title></dc:title></cc:Work></rdf:RDF></metadata><defs
     id="defs61" /><sodipodi:namedview
     pagecolor="#ffffff"
     bordercolor="#666666"
     borderopacity="1"
     objecttolerance="10"
     gridtolerance="10"
     guidetolerance="10"
     inkscape:pageopacity="0"
     inkscape:pageshadow="2"
     inkscape:window-width="1163"
     inkscape:window-height="650"
     id="namedview59"
     showgrid="false"
     fit-margin-top="0"
     fit-margin-left="0"
     fit-margin-right="0"
     fit-margin-bottom="0"
     inkscape:zoom="3.03125"
     inkscape:cx="48"
     inkscape:cy="27.999999"
     inkscape:window-x="0"
     inkscape:window-y="0"
     inkscape:window-maximized="0"
     inkscape:current-layer="Layer_1" /><style
     type="text/css"
     id="style3">
	.st0{fill:#777777;}
	.st1{fill:#35BCE1;}
	.st2{clip-path:url(#SVGID_2_);}
	.st3{fill:#FFFFFF;}
	.st4{fill:none;stroke:#777777;stroke-width:4;stroke-miterlimit:10;}
	.st5{fill:none;stroke:#FFFFFF;stroke-width:4;stroke-miterlimit:10;}
</style><g
     id="g5"
     transform="scale(0.61458333,0.61458333)"><g
       id="g7"><path
         class="st0"
         d="m 80,56 c -4.4,0 -8,-3.6 -8,-8 l 4,0 c 0,2.2 1.8,4 4,4 2.2,0 4,-1.8 4,-4 l 4,0 c 0,4.4 -3.6,8 -8,8 z"
         id="path9"
         inkscape:connector-curvature="0"
         style="fill:#777777" /></g><g
       id="g11"><path
         class="st0"
         d="M 16,56 C 11.6,56 8,52.4 8,48 l 4,0 c 0,2.2 1.8,4 4,4 2.2,0 4,-1.8 4,-4 l 4,0 c 0,4.4 -3.6,8 -8,8 z"
         id="path13"
         inkscape:connector-curvature="0"
         style="fill:#777777" /></g><g
       id="g15"><path
         class="st0"
         d="m 32,56 c -4.4,0 -8,-3.6 -8,-8 l 4,0 c 0,2.2 1.8,4 4,4 2.2,0 4,-1.8 4,-4 l 4,0 c 0,4.4 -3.6,8 -8,8 z"
         id="path17"
         inkscape:connector-curvature="0"
         style="fill:#777777" /></g><polyline
       class="st1"
       points="96,24 92,0 60,0 0,0 0,44 64,44 96,44  "
       id="polyline19"
       style="fill:#35bce1" /><g
       id="g21"><defs
         id="defs23"><polyline
           id="SVGID_1_"
           points="96,24 92,0 60,0 0,0 0,44 64,44 96,44    " /></defs><clipPath
         id="SVGID_2_"><use
           xlink:href="#SVGID_1_"
           style="overflow:visible"
           id="use27"
           x="0"
           y="0"
           width="100%"
           height="100%" /></clipPath><g
         class="st2"
         id="g29"
         clip-path="url(#SVGID_2_)"><rect
           y="6"
           class="st3"
           width="96"
           height="18"
           id="rect31"
           x="0"
           style="fill:#ffffff" /><line
           class="st4"
           x1="96"
           y1="6"
           x2="0"
           y2="6"
           id="line33"
           style="fill:none;stroke:#777777;stroke-width:4;stroke-miterlimit:10" /><line
           class="st4"
           x1="96"
           y1="26"
           x2="0"
           y2="26"
           id="line35"
           style="fill:none;stroke:#777777;stroke-width:4;stroke-miterlimit:10" /><line
           class="st4"
           x1="64"
           y1="44"
           x2="64"
           y2="4"
           id="line37"
           style="fill:none;stroke:#777777;stroke-width:4;stroke-miterlimit:10" /><line
           class="st4"
           x1="48"
           y1="44"
           x2="48"
           y2="4"
           id="line39"
           style="fill:none;stroke:#777777;stroke-width:4;stroke-miterlimit:10" /><line
           class="st4"
           x1="16"
           y1="6"
           x2="16"
           y2="26"
           id="line41"
           style="fill:none;stroke:#777777;stroke-width:4;stroke-miterlimit:10" /><line
           class="st4"
           x1="32"
           y1="6"
           x2="32"
           y2="26"
           id="line43"
           style="fill:none;stroke:#777777;stroke-width:4;stroke-miterlimit:10" /><line
           class="st4"
           x1="80"
           y1="6"
           x2="80"
           y2="26"
           id="line45"
           style="fill:none;stroke:#777777;stroke-width:4;stroke-miterlimit:10" /></g></g><g
       id="g47"><rect
         x="92"
         y="36"
         class="st0"
         width="4"
         height="4"
         id="rect49"
         style="fill:#777777" /></g><g
       id="g51"><rect
         y="36"
         class="st0"
         width="4"
         height="4"
         id="rect53"
         x="0"
         style="fill:#777777" /></g><line
       class="st5"
       x1="88"
       y1="34"
       x2="96"
       y2="34"
       id="line55"
       style="fill:none;stroke:#ffffff;stroke-width:4;stroke-miterlimit:10" /><line
       class="st5"
       x1="0"
       y1="34"
       x2="8"
       y2="34"
       id="line57"
       style="fill:none;stroke:#ffffff;stroke-width:4;stroke-miterlimit:10" /></g></svg>