<?xml version="1.0" encoding="UTF-8" standalone="no"?>
<!-- Generator: Adobe Illustrator 21.0.0, SVG Export Plug-In . SVG Version: 6.00 Build 0)  -->

<svg
   xmlns:dc="http://purl.org/dc/elements/1.1/"
   xmlns:cc="http://creativecommons.org/ns#"
   xmlns:rdf="http://www.w3.org/1999/02/22-rdf-syntax-ns#"
   xmlns:svg="http://www.w3.org/2000/svg"
   xmlns="http://www.w3.org/2000/svg"
   xmlns:sodipodi="http://sodipodi.sourceforge.net/DTD/sodipodi-0.dtd"
   xmlns:inkscape="http://www.inkscape.org/namespaces/inkscape"
   version="1.1"
   id="Layer_1"
   x="0px"
   y="0px"
   viewBox="0 0 44 44"
   xml:space="preserve"
   inkscape:version="0.91 r13725"
   sodipodi:docname="Compas.svg"
   width="44"
   height="44"><metadata
     id="metadata43"><rdf:RDF><cc:Work
         rdf:about=""><dc:format>image/svg+xml</dc:format><dc:type
           rdf:resource="http://purl.org/dc/dcmitype/StillImage" /><dc:title></dc:title></cc:Work></rdf:RDF></metadata><defs
     id="defs41" /><sodipodi:namedview
     pagecolor="#ffffff"
     bordercolor="#666666"
     borderopacity="1"
     objecttolerance="10"
     gridtolerance="10"
     guidetolerance="10"
     inkscape:pageopacity="0"
     inkscape:pageshadow="2"
     inkscape:window-width="742"
     inkscape:window-height="480"
     id="namedview39"
     showgrid="false"
     fit-margin-top="0"
     fit-margin-left="0"
     fit-margin-right="0"
     fit-margin-bottom="0"
     inkscape:zoom="2.4583333"
     inkscape:cx="48"
     inkscape:cy="48"
     inkscape:window-x="0"
     inkscape:window-y="0"
     inkscape:window-maximized="0"
     inkscape:current-layer="Layer_1" /><style
     type="text/css"
     id="style3">
	.st0{fill:#35BCE1;}
	.st1{fill:#FFFFFF;}
	.st2{fill:#777777;}
	.st3{fill:none;stroke:#777777;stroke-width:4;stroke-miterlimit:10;}
</style><g
     id="g5"
     transform="scale(0.45833333,0.45833333)"><g
       id="g7"><circle
         class="st0"
         cx="48"
         cy="48"
         r="48"
         id="circle9"
         style="fill:#35bce1" /></g><g
       id="g11"><path
         class="st1"
         d="M 48,86 C 27,86 10,69 10,48 10,27 27,10 48,10 69,10 86,27 86,48 86,69 69,86 48,86 Z"
         id="path13"
         inkscape:connector-curvature="0"
         style="fill:#ffffff" /><path
         class="st2"
         d="M 48,12 C 67.9,12 84,28.1 84,48 84,67.9 67.9,84 48,84 28.1,84 12,67.9 12,48 12,28.1 28.1,12 48,12 M 48,8 C 25.9,8 8,25.9 8,48 8,70.1 25.9,88 48,88 70.1,88 88,70.1 88,48 88,25.9 70.1,8 48,8 l 0,0 z"
         id="path15"
         inkscape:connector-curvature="0"
         style="fill:#777777" /></g><g
       id="g17"><line
         class="st3"
         x1="76"
         y1="48"
         x2="80"
         y2="48"
         id="line19"
         style="fill:none;stroke:#777777;stroke-width:4;stroke-miterlimit:10" /><line
         class="st3"
         x1="16"
         y1="48"
         x2="20"
         y2="48"
         id="line21"
         style="fill:none;stroke:#777777;stroke-width:4;stroke-miterlimit:10" /></g><g
       id="g23"><line
         class="st3"
         x1="48"
         y1="20"
         x2="48"
         y2="16"
         id="line25"
         style="fill:none;stroke:#777777;stroke-width:4;stroke-miterlimit:10" /><line
         class="st3"
         x1="48"
         y1="80"
         x2="48"
         y2="76"
         id="line27"
         style="fill:none;stroke:#777777;stroke-width:4;stroke-miterlimit:10" /></g><g
       id="g29"><g
         id="g31"><g
           id="g33"><path
             class="st2"
             d="m 52.9,48.7 6.2,10 -10.3,-6 4.1,-4 m 0.8,-6.4 -11.4,11.4 28.7,16.6 -17.3,-28 0,0 z"
             id="path35"
             inkscape:connector-curvature="0"
             style="fill:#777777" /></g></g><polygon
         class="st0"
         points="53.7,42.3 25.4,25.4 42.3,53.7 "
         id="polygon37"
         style="fill:#35bce1" /></g></g></svg>