<?xml version="1.0" encoding="UTF-8" standalone="no"?>
<!-- Generator: Adobe Illustrator 21.0.0, SVG Export Plug-In . SVG Version: 6.00 Build 0)  -->

<svg
   xmlns:dc="http://purl.org/dc/elements/1.1/"
   xmlns:cc="http://creativecommons.org/ns#"
   xmlns:rdf="http://www.w3.org/1999/02/22-rdf-syntax-ns#"
   xmlns:svg="http://www.w3.org/2000/svg"
   xmlns="http://www.w3.org/2000/svg"
   xmlns:sodipodi="http://sodipodi.sourceforge.net/DTD/sodipodi-0.dtd"
   xmlns:inkscape="http://www.inkscape.org/namespaces/inkscape"
   version="1.1"
   id="Layer_1"
   x="0px"
   y="0px"
   viewBox="0 0 53 44.166668"
   xml:space="preserve"
   inkscape:version="0.91 r13725"
   sodipodi:docname="Med.svg"
   width="53"
   height="44.166668"><metadata
     id="metadata31"><rdf:RDF><cc:Work
         rdf:about=""><dc:format>image/svg+xml</dc:format><dc:type
           rdf:resource="http://purl.org/dc/dcmitype/StillImage" /><dc:title></dc:title></cc:Work></rdf:RDF></metadata><defs
     id="defs29" /><sodipodi:namedview
     pagecolor="#ffffff"
     bordercolor="#666666"
     borderopacity="1"
     objecttolerance="10"
     gridtolerance="10"
     guidetolerance="10"
     inkscape:pageopacity="0"
     inkscape:pageshadow="2"
     inkscape:window-width="742"
     inkscape:window-height="480"
     id="namedview27"
     showgrid="false"
     fit-margin-top="0"
     fit-margin-left="0"
     fit-margin-right="0"
     fit-margin-bottom="0"
     inkscape:zoom="2.95"
     inkscape:cx="48"
     inkscape:cy="39.999999"
     inkscape:window-x="0"
     inkscape:window-y="0"
     inkscape:window-maximized="0"
     inkscape:current-layer="Layer_1" /><style
     type="text/css"
     id="style3">
	.st0{fill:#35BCE1;}
	.st1{fill:none;stroke:#777777;stroke-width:4;stroke-miterlimit:10;}
	.st2{fill:#FFFFFF;}
	.st3{fill:#777777;}
</style><g
     id="g5"
     transform="scale(0.55208333,0.55208333)"><rect
       y="16"
       class="st0"
       width="96"
       height="64"
       id="rect7"
       x="0"
       style="fill:#35bce1" /><polyline
       class="st1"
       points="64,16 64,2 32,2 32,16  "
       id="polyline9"
       style="fill:none;stroke:#777777;stroke-width:4;stroke-miterlimit:10" /><g
       id="g11"><path
         class="st2"
         d="m 88,24 0,48 -80,0 0,-48 80,0 m 4,-4 -4,0 -80,0 -4,0 0,4 0,48 0,4 4,0 80,0 4,0 0,-4 0,-48 0,-4 0,0 z"
         id="path13"
         inkscape:connector-curvature="0"
         style="fill:#ffffff" /></g><g
       id="g15"><path
         class="st2"
         d="m 48,66 c -9.9,0 -18,-8.1 -18,-18 0,-9.9 8.1,-18 18,-18 9.9,0 18,8.1 18,18 0,9.9 -8.1,18 -18,18 z"
         id="path17"
         inkscape:connector-curvature="0"
         style="fill:#ffffff" /><path
         class="st3"
         d="m 48,32 c 8.8,0 16,7.2 16,16 0,8.8 -7.2,16 -16,16 -8.8,0 -16,-7.2 -16,-16 0,-8.8 7.2,-16 16,-16 m 0,-4 C 37,28 28,37 28,48 28,59 37,68 48,68 59,68 68,59 68,48 68,37 59,28 48,28 l 0,0 z"
         id="path19"
         inkscape:connector-curvature="0"
         style="fill:#777777" /></g><g
       id="g21"><line
         class="st1"
         x1="48"
         y1="56"
         x2="48"
         y2="40"
         id="line23"
         style="fill:none;stroke:#777777;stroke-width:4;stroke-miterlimit:10" /><line
         class="st1"
         x1="40"
         y1="48"
         x2="56"
         y2="48"
         id="line25"
         style="fill:none;stroke:#777777;stroke-width:4;stroke-miterlimit:10" /></g></g></svg>