<?xml version="1.0" encoding="utf-8"?>
<!-- Generator: Adobe Illustrator 21.0.0, SVG Export Plug-In . SVG Version: 6.00 Build 0)  -->
<svg version="1.1" id="Layer_1" xmlns="http://www.w3.org/2000/svg" xmlns:xlink="http://www.w3.org/1999/xlink" x="0px" y="0px"
	 viewBox="0 0 96 80" style="enable-background:new 0 0 96 80;" xml:space="preserve">
<style type="text/css">
	.st0{fill:#35BCE1;}
	.st1{fill:none;stroke:#777777;stroke-width:4;stroke-miterlimit:10;}
	.st2{fill:#FFFFFF;}
	.st3{fill:#777777;}
</style>
<g>
	<rect y="16" class="st0" width="96" height="64"/>
	<polyline class="st1" points="64,16 64,2 32,2 32,16 	"/>
	<g>
		<path class="st2" d="M88,24v48H8V24H88 M92,20h-4H8H4v4v48v4h4h80h4v-4V24V20L92,20z"/>
	</g>
	<g>
		<path class="st2" d="M48,66c-9.9,0-18-8.1-18-18s8.1-18,18-18s18,8.1,18,18S57.9,66,48,66z"/>
		<path class="st3" d="M48,32c8.8,0,16,7.2,16,16s-7.2,16-16,16s-16-7.2-16-16S39.2,32,48,32 M48,28c-11,0-20,9-20,20s9,20,20,20
			s20-9,20-20S59,28,48,28L48,28z"/>
	</g>
	<g>
		<line class="st1" x1="48" y1="56" x2="48" y2="40"/>
		<line class="st1" x1="40" y1="48" x2="56" y2="48"/>
	</g>
</g>
</svg>
