<?xml version="1.0" encoding="UTF-8" standalone="no"?>
<!-- Created with Inkscape (http://www.inkscape.org/) -->

<svg
   xmlns:dc="http://purl.org/dc/elements/1.1/"
   xmlns:cc="http://creativecommons.org/ns#"
   xmlns:rdf="http://www.w3.org/1999/02/22-rdf-syntax-ns#"
   xmlns:svg="http://www.w3.org/2000/svg"
   xmlns="http://www.w3.org/2000/svg"
   xmlns:sodipodi="http://sodipodi.sourceforge.net/DTD/sodipodi-0.dtd"
   xmlns:inkscape="http://www.inkscape.org/namespaces/inkscape"
   id="svg2"
   version="1.1"
   inkscape:version="0.91 r13725"
   xml:space="preserve"
   width="84"
   height="55.307388"
   viewBox="0 0 84.000002 55.307389"
   sodipodi:docname="cloud.svg"><metadata
     id="metadata8"><rdf:RDF><cc:Work
         rdf:about=""><dc:format>image/svg+xml</dc:format><dc:type
           rdf:resource="http://purl.org/dc/dcmitype/StillImage" /><dc:title></dc:title></cc:Work></rdf:RDF></metadata><defs
     id="defs6"><clipPath
       clipPathUnits="userSpaceOnUse"
       id="clipPath16"><path
         d="m 0,168.88 168.88,0 L 168.88,0 0,0 0,168.88 Z"
         id="path18"
         inkscape:connector-curvature="0" /></clipPath></defs><sodipodi:namedview
     pagecolor="#ffffff"
     bordercolor="#666666"
     borderopacity="1"
     objecttolerance="10"
     gridtolerance="10"
     guidetolerance="10"
     inkscape:pageopacity="0"
     inkscape:pageshadow="2"
     inkscape:window-width="1920"
     inkscape:window-height="1017"
     id="namedview4"
     showgrid="false"
     fit-margin-top="0"
     fit-margin-left="0"
     fit-margin-right="0"
     fit-margin-bottom="0"
     inkscape:zoom="1.1179535"
     inkscape:cx="75.135878"
     inkscape:cy="36.477376"
     inkscape:window-x="-8"
     inkscape:window-y="-8"
     inkscape:window-maximized="1"
     inkscape:current-layer="g10" /><g
     id="g10"
     inkscape:groupmode="layer"
     inkscape:label="Векторный смарт-объект"
     transform="matrix(1.25,0,0,-1.25,-30.414125,124.38001)"><g
       id="g24"
       transform="matrix(0.54216153,0,0,0.54216153,85.679751,56.342423)"
       style="stroke:#ffffff;stroke-opacity:1"><path
         d="m 0,0 c 5.452,5.844 8.793,13.683 8.793,22.305 0,18.069 -14.648,32.716 -32.716,32.716 -12.917,0 -24.083,-7.49 -29.401,-18.361 -3.076,1.383 -6.485,2.158 -10.076,2.158 -12.308,0 -22.505,-9.033 -24.326,-20.832 -0.063,0 -0.125,0.009 -0.188,0.009 -7.844,0 -14.203,-6.359 -14.203,-14.202 0,-1.316 0.193,-2.584 0.527,-3.793 L 0,0 Z"
         style="fill:none;stroke:#ffffff;stroke-width:4;stroke-linecap:butt;stroke-linejoin:miter;stroke-miterlimit:10;stroke-dasharray:none;stroke-opacity:1"
         id="path26"
         inkscape:connector-curvature="0" /></g><g
       id="g28"
       transform="matrix(0.54216153,0,0,0.54216153,33.69443,64.767722)"
       style="stroke:#ffffff;stroke-opacity:1"><path
         d="m 0,0 c -9.2,6.04 -15.27,16.44 -15.27,28.27 0,18.67 15.13,33.8 33.8,33.8 17.16,0 31.33,-12.79 33.5,-29.36"
         style="fill:none;stroke:#ffffff;stroke-width:4;stroke-linecap:butt;stroke-linejoin:miter;stroke-miterlimit:10;stroke-dasharray:none;stroke-opacity:1"
         id="path30"
         inkscape:connector-curvature="0" /></g><g
       id="g32"
       transform="matrix(0.54216153,0,0,0.54216153,43.737538,81.448351)"
       style="stroke:#ffffff;stroke-opacity:1"><path
         d="M 0,0 13.006,14.343"
         style="fill:none;stroke:#ffffff;stroke-width:4;stroke-linecap:round;stroke-linejoin:round;stroke-miterlimit:10;stroke-dasharray:none;stroke-opacity:1"
         id="path34"
         inkscape:connector-curvature="0" /></g><g
       id="g36"
       transform="matrix(0.54216153,0,0,0.54216153,43.737538,81.448351)"
       style="stroke:#ffffff;stroke-opacity:1"><path
         d="M 0,0 -9.13,8.331"
         style="fill:none;stroke:#ffffff;stroke-width:4;stroke-linecap:round;stroke-linejoin:round;stroke-miterlimit:10;stroke-dasharray:none;stroke-opacity:1"
         id="path38"
         inkscape:connector-curvature="0" /></g></g></svg>