<?xml version="1.0" encoding="UTF-8" standalone="no"?>
<!-- Created with Inkscape (http://www.inkscape.org/) -->

<svg
   xmlns:dc="http://purl.org/dc/elements/1.1/"
   xmlns:cc="http://creativecommons.org/ns#"
   xmlns:rdf="http://www.w3.org/1999/02/22-rdf-syntax-ns#"
   xmlns:svg="http://www.w3.org/2000/svg"
   xmlns="http://www.w3.org/2000/svg"
   xmlns:sodipodi="http://sodipodi.sourceforge.net/DTD/sodipodi-0.dtd"
   xmlns:inkscape="http://www.inkscape.org/namespaces/inkscape"
   id="svg2"
   version="1.1"
   inkscape:version="0.91 r13725"
   xml:space="preserve"
   width="76.230125"
   height="53.86591"
   viewBox="0 0 76.230127 53.865911"
   sodipodi:docname="Vector Smart Object.ai"><metadata
     id="metadata8"><rdf:RDF><cc:Work
         rdf:about=""><dc:format>image/svg+xml</dc:format><dc:type
           rdf:resource="http://purl.org/dc/dcmitype/StillImage" /><dc:title></dc:title></cc:Work></rdf:RDF></metadata><defs
     id="defs6"><clipPath
       clipPathUnits="userSpaceOnUse"
       id="clipPath16"><path
         d="m 0,168.88 168.88,0 L 168.88,0 0,0 0,168.88 Z"
         id="path18"
         inkscape:connector-curvature="0" /></clipPath></defs><sodipodi:namedview
     pagecolor="#ffffff"
     bordercolor="#666666"
     borderopacity="1"
     objecttolerance="10"
     gridtolerance="10"
     guidetolerance="10"
     inkscape:pageopacity="0"
     inkscape:pageshadow="2"
     inkscape:window-width="751"
     inkscape:window-height="480"
     id="namedview4"
     showgrid="false"
     fit-margin-top="0"
     fit-margin-left="0"
     fit-margin-right="0"
     fit-margin-bottom="0"
     inkscape:zoom="1.1179535"
     inkscape:cx="87.664998"
     inkscape:cy="73.663052"
     inkscape:window-x="0"
     inkscape:window-y="0"
     inkscape:window-maximized="0"
     inkscape:current-layer="g10" /><g
     id="g10"
     inkscape:groupmode="layer"
     inkscape:label="Vector Smart Object"
     transform="matrix(1.25,0,0,-1.25,-17.885005,85.752854)"><g
       id="g24"
       transform="matrix(0.53055487,0,0,0.53055487,70.258569,33.632351)"><path
         d="m 0,0 -95.97,0 0,58.398 c 0,3.033 2.481,5.514 5.514,5.514 l 84.942,0 C -2.48,63.912 0,61.431 0,58.398 L 0,0 Z"
         style="fill:none;stroke:#231f20;stroke-width:4;stroke-linecap:round;stroke-linejoin:round;stroke-miterlimit:10;stroke-dasharray:none;stroke-opacity:1"
         id="path26"
         inkscape:connector-curvature="0" /></g><g
       id="g28"
       transform="matrix(0.53055487,0,0,0.53055487,74.230993,33.632351)"><path
         d="m 0,0 -110.944,0 0,-10.604 c 0,-1.488 1.217,-2.706 2.705,-2.706 l 105.534,0 c 1.487,0 2.705,1.218 2.705,2.706 L 0,0 Z"
         style="fill:none;stroke:#231f20;stroke-width:4;stroke-linecap:round;stroke-linejoin:round;stroke-miterlimit:10;stroke-dasharray:none;stroke-opacity:1"
         id="path30"
         inkscape:connector-curvature="0" /></g><path
       d="m 65.75644,37.667804 -41.913835,0 0,26.197208 41.913835,0 0,-26.197208 z"
       style="fill:none;stroke:#231f20;stroke-width:2.12221956;stroke-linecap:round;stroke-linejoin:round;stroke-miterlimit:10;stroke-dasharray:none;stroke-opacity:1"
       id="path32"
       inkscape:connector-curvature="0" /><g
       id="g34"
       transform="matrix(0.53055487,0,0,0.53055487,38.19369,49.3537)"><path
         d="m 0,0 c 0.001,0 0.001,-0.001 0.001,-0.002 l -0.01,-0.002 0.008,0.006 C -0.001,0.002 0,0 0,0 m 9.791,-14.774 3.841,0.806 5.847,19.238 9.848,4.59 c 2.967,1.383 3.643,3.451 3.73,4.819 l -0.558,1.196 C 31.396,16.688 29.377,17.5 26.41,16.118 L 16.562,11.527 -1.93,19.422 -5.018,16.999 5.563,6.401 0.962,4.257 -6.459,7.426 -8.153,6.097 l 6.742,-6.755 0.837,-9.507 2.107,0.443 2.346,7.721 4.601,2.145 1.311,-14.918 z"
         style="fill:#231f20;fill-opacity:1;fill-rule:nonzero;stroke:none"
         id="path36"
         inkscape:connector-curvature="0" /></g><g
       id="g38"
       transform="matrix(0.53055487,0,0,0.53055487,40.024688,30.101614)"><path
         d="M 0,0 18,0"
         style="fill:none;stroke:#231f20;stroke-width:4;stroke-linecap:round;stroke-linejoin:round;stroke-miterlimit:10;stroke-dasharray:none;stroke-opacity:1"
         id="path40"
         inkscape:connector-curvature="0" /></g></g></svg>