<?xml version="1.0" encoding="UTF-8" standalone="no"?>
<!-- Created with Inkscape (http://www.inkscape.org/) -->

<svg
   xmlns:dc="http://purl.org/dc/elements/1.1/"
   xmlns:cc="http://creativecommons.org/ns#"
   xmlns:rdf="http://www.w3.org/1999/02/22-rdf-syntax-ns#"
   xmlns:svg="http://www.w3.org/2000/svg"
   xmlns="http://www.w3.org/2000/svg"
   xmlns:sodipodi="http://sodipodi.sourceforge.net/DTD/sodipodi-0.dtd"
   xmlns:inkscape="http://www.inkscape.org/namespaces/inkscape"
   id="svg2"
   version="1.1"
   inkscape:version="0.91 r13725"
   xml:space="preserve"
   width="65.506287"
   height="57.721054"
   viewBox="0 0 65.506288 57.721055"
   sodipodi:docname="newspaper.svg"><metadata
     id="metadata8"><rdf:RDF><cc:Work
         rdf:about=""><dc:format>image/svg+xml</dc:format><dc:type
           rdf:resource="http://purl.org/dc/dcmitype/StillImage" /><dc:title></dc:title></cc:Work></rdf:RDF></metadata><defs
     id="defs6"><clipPath
       clipPathUnits="userSpaceOnUse"
       id="clipPath16"><path
         d="m 0,168.88 168.88,0 L 168.88,0 0,0 0,168.88 Z"
         id="path18"
         inkscape:connector-curvature="0" /></clipPath></defs><sodipodi:namedview
     pagecolor="#ffffff"
     bordercolor="#666666"
     borderopacity="1"
     objecttolerance="10"
     gridtolerance="10"
     guidetolerance="10"
     inkscape:pageopacity="0"
     inkscape:pageshadow="2"
     inkscape:window-width="751"
     inkscape:window-height="480"
     id="namedview4"
     showgrid="false"
     fit-margin-top="0"
     fit-margin-left="0"
     fit-margin-right="0"
     fit-margin-bottom="0"
     inkscape:zoom="1.1179535"
     inkscape:cx="82.303476"
     inkscape:cy="78.410722"
     inkscape:window-x="0"
     inkscape:window-y="0"
     inkscape:window-maximized="0"
     inkscape:current-layer="g10" /><g
     id="g10"
     inkscape:groupmode="layer"
     inkscape:label="Векторный смарт-объект21"
     transform="matrix(1.25,0,0,-1.25,-23.246527,84.860328)"><g
       id="g24"
       transform="matrix(0.53055487,0,0,0.53055487,43.867603,29.889445)"><path
         d="m 0,0 c 0.002,-0.97 0.788,-1.755 1.757,-1.757 l 22.799,0 c 0.971,0.002 1.756,0.787 1.757,1.757 -10e-4,0.97 -0.786,1.756 -1.757,1.757 l -22.799,0 C 0.788,1.756 0.002,0.97 0,0"
         style="fill:#000000;fill-opacity:1;fill-rule:nonzero;stroke:none"
         id="path26"
         inkscape:connector-curvature="0" /></g><g
       id="g28"
       transform="matrix(0.53055487,0,0,0.53055487,43.867603,41.86582)"><path
         d="m 0,0 c 0.002,-0.97 0.788,-1.755 1.757,-1.757 l 22.799,0 c 0.971,0.002 1.756,0.787 1.757,1.757 -10e-4,0.97 -0.786,1.755 -1.757,1.757 l -22.799,0 C 0.788,1.755 0.002,0.97 0,0"
         style="fill:#000000;fill-opacity:1;fill-rule:nonzero;stroke:none"
         id="path30"
         inkscape:connector-curvature="0" /></g><g
       id="g32"
       transform="matrix(0.53055487,0,0,0.53055487,43.867603,53.841875)"><path
         d="m 0,0 c 0.002,-0.97 0.788,-1.755 1.757,-1.757 l 22.799,0 c 0.971,0.002 1.756,0.787 1.757,1.757 -10e-4,0.97 -0.786,1.755 -1.757,1.757 l -22.799,0 C 0.788,1.755 0.002,0.97 0,0"
         style="fill:#000000;fill-opacity:1;fill-rule:nonzero;stroke:none"
         id="path34"
         inkscape:connector-curvature="0" /></g><g
       id="g36"
       transform="matrix(0.53055487,0,0,0.53055487,43.867603,47.853715)"><path
         d="m 0,0 c 0.002,-0.97 0.788,-1.755 1.757,-1.757 l 22.799,0 c 0.971,0.002 1.756,0.787 1.757,1.757 -10e-4,0.971 -0.786,1.756 -1.757,1.758 l -22.799,0 C 0.788,1.756 0.002,0.971 0,0"
         style="fill:#000000;fill-opacity:1;fill-rule:nonzero;stroke:none"
         id="path38"
         inkscape:connector-curvature="0" /></g><g
       id="g40"
       transform="matrix(0.53055487,0,0,0.53055487,27.647851,58.897692)"><path
         d="m 0,0 19.284,0 0,-18.784 0,-0.5 L 0,-19.284 0,0 Z m -3.515,1.757 0,-22.799 c 0.002,-0.97 0.788,-1.755 1.757,-1.757 l 22.8,0 c 0.97,0.002 1.756,0.787 1.757,1.757 l 0,22.799 c -0.001,0.971 -0.787,1.756 -1.757,1.758 l -22.8,0 C -2.727,3.513 -3.513,2.728 -3.515,1.757"
         style="fill:#000000;fill-opacity:1;fill-rule:nonzero;stroke:none"
         id="path42"
         inkscape:connector-curvature="0" /></g><g
       id="g44"
       transform="matrix(0.53055487,0,0,0.53055487,43.867603,59.830089)"><path
         d="m 0,0 c 0.002,-0.97 0.788,-1.755 1.757,-1.757 l 22.799,0 c 0.971,0.002 1.756,0.787 1.757,1.757 -10e-4,0.97 -0.786,1.755 -1.757,1.757 l -22.799,0 C 0.788,1.755 0.002,0.97 0,0"
         style="fill:#000000;fill-opacity:1;fill-rule:nonzero;stroke:none"
         id="path46"
         inkscape:connector-curvature="0" /></g><g
       id="g48"
       transform="matrix(0.53055487,0,0,0.53055487,43.867603,35.877659)"><path
         d="m 0,0 c 0.002,-0.97 0.788,-1.755 1.757,-1.757 l 22.799,0 c 0.971,0.002 1.756,0.787 1.757,1.757 -10e-4,0.97 -0.786,1.756 -1.757,1.757 l -22.799,0 C 0.788,1.756 0.002,0.97 0,0"
         style="fill:#000000;fill-opacity:1;fill-rule:nonzero;stroke:none"
         id="path50"
         inkscape:connector-curvature="0" /></g><g
       id="g52"
       transform="matrix(0.53055487,0,0,0.53055487,69.137348,60.03552)"><path
         d="m 0,0 0,-58.968 0,-0.483 -5.873,-0.208 -0.232,-0.022 -0.044,-0.007 -0.045,0.002 c -0.874,0.028 -1.576,0.742 -1.577,1.624 L -7.771,0 0,0 Z m -0.341,-63.646 c -0.933,-2.939 -3.686,-5.072 -6.93,-5.073 l -77.202,0 c -4.009,10e-4 -7.27,3.261 -7.271,7.272 l 0,72.734 80.458,0 0,-69.349 c 10e-4,-1.418 0.576,-2.701 1.508,-3.634 0.933,-0.932 2.216,-1.508 3.634,-1.509 0.098,0 0.199,0.011 0.302,0.028 l 0.033,0.006 0.034,10e-4 c 1.647,0.059 3.294,0.117 4.94,0.175 l 0.709,0.026 -0.215,-0.677 z m -7.43,74.433 c 0,1.108 -0.45,2.108 -1.178,2.837 -0.729,0.728 -1.73,1.177 -2.837,1.177 l -79.458,0 c -1.108,0 -2.109,-0.449 -2.837,-1.177 -0.729,-0.728 -1.177,-1.729 -1.178,-2.837 l 0,-72.234 c 0.001,-2.975 1.209,-5.669 3.164,-7.624 1.954,-1.954 4.649,-3.162 7.622,-3.163 l 77.202,0 c 2.974,10e-4 5.667,1.209 7.623,3.163 1.955,1.955 3.163,4.649 3.163,7.624 l 0,60.947 c 0,1.108 -0.45,2.108 -1.178,2.837 C 1.608,3.065 0.607,3.515 -0.5,3.515 l -7.271,0 0,7.272 z"
         style="fill:#000000;fill-opacity:1;fill-rule:nonzero;stroke:none"
         id="path54"
         inkscape:connector-curvature="0" /></g><g
       id="g56"
       transform="matrix(0.53055487,0,0,0.53055487,27.647851,40.933475)"><path
         d="m 0,0 19.284,0 0,-18.785 0,-0.5 L 0,-19.285 0,0 Z m -3.515,1.757 0,-22.799 c 0.002,-0.97 0.788,-1.755 1.757,-1.757 l 22.8,0 c 0.97,0.002 1.756,0.787 1.757,1.757 l 0,22.799 c -0.001,0.971 -0.787,1.756 -1.757,1.758 l -22.8,0 C -2.727,3.513 -3.513,2.728 -3.515,1.757"
         style="fill:#000000;fill-opacity:1;fill-rule:nonzero;stroke:none"
         id="path58"
         inkscape:connector-curvature="0" /></g></g></svg>