<?xml version="1.0" encoding="UTF-8" standalone="no"?>
<!-- Created with Inkscape (http://www.inkscape.org/) -->

<svg
   xmlns:dc="http://purl.org/dc/elements/1.1/"
   xmlns:cc="http://creativecommons.org/ns#"
   xmlns:rdf="http://www.w3.org/1999/02/22-rdf-syntax-ns#"
   xmlns:svg="http://www.w3.org/2000/svg"
   xmlns="http://www.w3.org/2000/svg"
   xmlns:sodipodi="http://sodipodi.sourceforge.net/DTD/sodipodi-0.dtd"
   xmlns:inkscape="http://www.inkscape.org/namespaces/inkscape"
   id="svg2"
   version="1.1"
   inkscape:version="0.91 r13725"
   xml:space="preserve"
   width="85.130348"
   height="61.422668"
   viewBox="0 0 85.13035 61.42267"
   sodipodi:docname="pig.svg"><metadata
     id="metadata8"><rdf:RDF><cc:Work
         rdf:about=""><dc:format>image/svg+xml</dc:format><dc:type
           rdf:resource="http://purl.org/dc/dcmitype/StillImage" /><dc:title></dc:title></cc:Work></rdf:RDF></metadata><defs
     id="defs6"><clipPath
       clipPathUnits="userSpaceOnUse"
       id="clipPath16"><path
         d="m 0,168.88 168.88,0 L 168.88,0 0,0 0,168.88 Z"
         id="path18"
         inkscape:connector-curvature="0" /></clipPath></defs><sodipodi:namedview
     pagecolor="#ffffff"
     bordercolor="#666666"
     borderopacity="1"
     objecttolerance="10"
     gridtolerance="10"
     guidetolerance="10"
     inkscape:pageopacity="0"
     inkscape:pageshadow="2"
     inkscape:window-width="751"
     inkscape:window-height="480"
     id="namedview4"
     showgrid="false"
     fit-margin-top="0"
     fit-margin-left="0"
     fit-margin-right="0"
     fit-margin-bottom="0"
     inkscape:zoom="1.1179535"
     inkscape:cx="91.437111"
     inkscape:cy="78.947511"
     inkscape:window-x="0"
     inkscape:window-y="0"
     inkscape:window-maximized="0"
     inkscape:current-layer="g10" /><g
     id="g10"
     inkscape:groupmode="layer"
     inkscape:label="Векторный смарт-объект3"
     transform="matrix(1.25,0,0,-1.25,-14.112892,88.025155)"><g
       id="g24"
       transform="matrix(0.53055487,0,0,0.53055487,65.972164,35.782318)"><path
         d="M 0,0 C -0.92,-1.56 -2.01,-2.99 -3.25,-4.31"
         style="fill:none;stroke:#231f20;stroke-width:4;stroke-linecap:round;stroke-linejoin:round;stroke-miterlimit:10;stroke-dasharray:none;stroke-opacity:1"
         id="path26"
         inkscape:connector-curvature="0" /></g><g
       id="g28"
       transform="matrix(0.53055487,0,0,0.53055487,53.111354,63.630984)"><path
         d="m 0,0 c 16.551,-6.53 28.04,-20.89 28.04,-37.56 0,-0.62 -0.02,-1.24 -0.05,-1.84"
         style="fill:none;stroke:#231f20;stroke-width:4;stroke-linecap:round;stroke-linejoin:round;stroke-miterlimit:10;stroke-dasharray:none;stroke-opacity:1"
         id="path30"
         inkscape:connector-curvature="0" /></g><g
       id="g32"
       transform="matrix(0.53055487,0,0,0.53055487,23.543319,58.482692)"><path
         d="m 0,0 -0.015,0 0,20.5 C 7.211,17.497 12.202,14.334 15.19,9.604 c 5.122,2.061 10.737,3.381 16.656,3.758"
         style="fill:none;stroke:#231f20;stroke-width:4;stroke-linecap:round;stroke-linejoin:round;stroke-miterlimit:10;stroke-dasharray:none;stroke-opacity:1"
         id="path34"
         inkscape:connector-curvature="0" /></g><g
       id="g36"
       transform="matrix(0.53055487,0,0,0.53055487,35.020176,27.46985)"><path
         d="m 0,0 c 4.803,-0.726 9.895,-1.074 15.146,-1.074 6.805,0 13.204,0.58 18.949,1.828"
         style="fill:none;stroke:#231f20;stroke-width:4;stroke-linecap:round;stroke-linejoin:round;stroke-miterlimit:10;stroke-dasharray:none;stroke-opacity:1"
         id="path38"
         inkscape:connector-curvature="0" /></g><g
       id="g40"
       transform="matrix(0.53055487,0,0,0.53055487,23.53552,58.482692)"><path
         d="m 0,0 c -4.294,-4.033 -7.66,-8.821 -9.821,-14.073 l -5.311,0 c -3.278,0 -5.948,-2.67 -5.948,-5.948 l 0,-17.846 c 0,-3.279 2.67,-5.948 5.948,-5.948 l 7.066,0 c 0.13,0 0.247,0 0.377,0.015 2.409,-3.308 5.615,-6.036 9.445,-8.227"
         style="fill:none;stroke:#231f20;stroke-width:4;stroke-linecap:round;stroke-linejoin:round;stroke-miterlimit:10;stroke-dasharray:none;stroke-opacity:1"
         id="path42"
         inkscape:connector-curvature="0" /></g><g
       id="g44"
       transform="matrix(0.53055487,0,0,0.53055487,35.020176,27.46985)"><path
         d="m 0,0 0,-9.663 -10.765,0 c -4.352,0.494 -7.53,10.025 -9.126,16.09"
         style="fill:none;stroke:#231f20;stroke-width:4;stroke-linecap:round;stroke-linejoin:round;stroke-miterlimit:10;stroke-dasharray:none;stroke-opacity:1"
         id="path46"
         inkscape:connector-curvature="0" /></g><g
       id="g48"
       transform="matrix(0.53055487,0,0,0.53055487,64.24733,33.4969)"><path
         d="m 0,0 0.044,0.015 c 0,0 -3.874,-20.312 -10.287,-21.037 l -10.75,0 0,10.417"
         style="fill:none;stroke:#231f20;stroke-width:4;stroke-linecap:round;stroke-linejoin:round;stroke-miterlimit:10;stroke-dasharray:none;stroke-opacity:1"
         id="path50"
         inkscape:connector-curvature="0" /></g><g
       id="g52"
       transform="matrix(0.53055487,0,0,0.53055487,24.074405,49.907546)"><path
         d="m 0,0 c -0.628,-2.612 -0.777,-4.816 -2.725,-4.347 -1.948,0.469 -3.016,2.966 -2.388,5.577 0.629,2.612 2.717,4.35 4.665,3.881 C 1.499,4.642 0.629,2.612 0,0"
         style="fill:#000000;fill-opacity:1;fill-rule:nonzero;stroke:none"
         id="path54"
         inkscape:connector-curvature="0" /></g><g
       id="g56"
       transform="matrix(0.53055487,0,0,0.53055487,40.66459,65.572921)"><path
         d="m 0,0 0,-6.5 20,-2.583 3.456,5.425"
         style="fill:none;stroke:#231f20;stroke-width:4;stroke-linecap:round;stroke-linejoin:round;stroke-miterlimit:10;stroke-dasharray:none;stroke-opacity:1"
         id="path58"
         inkscape:connector-curvature="0" /></g><g
       id="g60"
       transform="matrix(0.53055487,0,0,0.53055487,31.987631,47.567746)"><path
         d="m 0,0 54.413,0 32.941,-22.448 -16.266,0 c -16.706,0 -33.189,3.83 -48.183,11.196 L 0,0 Z"
         style="fill:none;stroke:#000000;stroke-width:4;stroke-linecap:butt;stroke-linejoin:round;stroke-miterlimit:10;stroke-dasharray:none;stroke-opacity:1"
         id="path62"
         inkscape:connector-curvature="0" /></g></g></svg>