<?xml version="1.0" encoding="UTF-8" standalone="no"?>
<!-- Created with Inkscape (http://www.inkscape.org/) -->

<svg
   xmlns:dc="http://purl.org/dc/elements/1.1/"
   xmlns:cc="http://creativecommons.org/ns#"
   xmlns:rdf="http://www.w3.org/1999/02/22-rdf-syntax-ns#"
   xmlns:svg="http://www.w3.org/2000/svg"
   xmlns="http://www.w3.org/2000/svg"
   xmlns:sodipodi="http://sodipodi.sourceforge.net/DTD/sodipodi-0.dtd"
   xmlns:inkscape="http://www.inkscape.org/namespaces/inkscape"
   id="svg2"
   version="1.1"
   inkscape:version="0.91 r13725"
   xml:space="preserve"
   width="71.029358"
   height="71.029358"
   viewBox="0 0 71.029359 71.029359"
   sodipodi:docname="q.svg"><metadata
     id="metadata8"><rdf:RDF><cc:Work
         rdf:about=""><dc:format>image/svg+xml</dc:format><dc:type
           rdf:resource="http://purl.org/dc/dcmitype/StillImage" /><dc:title></dc:title></cc:Work></rdf:RDF></metadata><defs
     id="defs6"><clipPath
       clipPathUnits="userSpaceOnUse"
       id="clipPath16"><path
         d="m 0,168.88 168.88,0 L 168.88,0 0,0 0,168.88 Z"
         id="path18"
         inkscape:connector-curvature="0" /></clipPath></defs><sodipodi:namedview
     pagecolor="#ffffff"
     bordercolor="#666666"
     borderopacity="1"
     objecttolerance="10"
     gridtolerance="10"
     guidetolerance="10"
     inkscape:pageopacity="0"
     inkscape:pageshadow="2"
     inkscape:window-width="751"
     inkscape:window-height="480"
     id="namedview4"
     showgrid="false"
     fit-margin-top="0"
     fit-margin-left="0"
     fit-margin-right="0"
     fit-margin-bottom="0"
     inkscape:zoom="1.1179535"
     inkscape:cx="85.064617"
     inkscape:cy="92.785444"
     inkscape:window-x="0"
     inkscape:window-y="0"
     inkscape:window-maximized="0"
     inkscape:current-layer="g10" /><g
     id="g10"
     inkscape:groupmode="layer"
     inkscape:label="Векторный смарт-объект1"
     transform="matrix(1.25,0,0,-1.25,-20.485387,83.793912)"><g
       id="g24"
       transform="matrix(0.53055487,0,0,0.53055487,70.892211,29.926)"><path
         d="m 0,0 c 0,-2.411 -1.96,-4.372 -4.371,-4.372 l -9.836,0 c -0.61,0 -1.192,-0.254 -1.606,-0.703 l -22.437,-24.307 0,22.825 c 0,1.207 -0.979,2.185 -2.187,2.185 l -53.55,0 c -2.411,0 -4.371,1.961 -4.371,4.372 l 0,61.201 c 0,2.411 1.96,4.372 4.371,4.372 l 89.616,0 C -1.96,65.573 0,63.612 0,61.201 L 0,0 Z m -4.371,69.944 -89.616,0 c -4.822,0 -8.743,-3.922 -8.743,-8.743 l 0,-61.201 c 0,-4.821 3.921,-8.743 8.743,-8.743 l 51.365,0 0,-26.229 c 0,-0.9 0.552,-1.708 1.39,-2.036 0.259,-0.101 0.528,-0.15 0.795,-0.15 0.598,0 1.184,0.245 1.607,0.703 l 25.58,27.712 8.879,0 c 4.821,0 8.743,3.922 8.743,8.743 l 0,61.201 c 0,4.821 -3.922,8.743 -8.743,8.743"
         style="fill:#000000;fill-opacity:1;fill-rule:nonzero;stroke:none"
         id="path26"
         inkscape:connector-curvature="0" /></g><path
       d="m 45.959846,50.220202 20.874151,0 0,-2.319586 -20.874151,0 0,2.319586 z"
       style="fill:#000000;fill-opacity:1;fill-rule:nonzero;stroke:none"
       id="path28"
       inkscape:connector-curvature="0" /><path
       d="m 45.959846,56.018636 20.874151,0 0,-2.319586 -20.874151,0 0,2.319586 z"
       style="fill:#000000;fill-opacity:1;fill-rule:nonzero;stroke:none"
       id="path30"
       inkscape:connector-curvature="0" /><path
       d="m 45.959846,44.421768 20.874151,0 0,-2.319056 -20.874151,0 0,2.319056 z"
       style="fill:#000000;fill-opacity:1;fill-rule:nonzero;stroke:none"
       id="path32"
       inkscape:connector-curvature="0" /><path
       d="m 45.959846,38.623333 20.874151,0 0,-2.319585 -20.874151,0 0,2.319585 z"
       style="fill:#000000;fill-opacity:1;fill-rule:nonzero;stroke:none"
       id="path34"
       inkscape:connector-curvature="0" /><g
       id="g36"
       transform="matrix(0.53055487,0,0,0.53055487,29.248323,34.528723)"><path
         d="M 0,0 C 0,2.723 1.84,4.636 4.415,4.636 6.991,4.636 8.758,2.723 8.758,0 8.758,-2.576 7.064,-4.563 4.342,-4.563 1.766,-4.563 0,-2.576 0,0 m 1.619,10.303 -0.147,1.913 c -0.442,3.974 0.882,8.316 4.562,12.732 3.312,3.9 5.152,6.77 5.152,10.082 0,3.753 -2.355,6.256 -6.992,6.329 -2.649,0 -5.592,-0.883 -7.432,-2.281 l -1.767,4.636 c 2.429,1.766 6.624,2.944 10.525,2.944 8.462,0 12.29,-5.225 12.29,-10.818 0,-5.005 -2.797,-8.611 -6.33,-12.805 C 8.242,19.208 7.064,15.97 7.285,12.216 l 0.074,-1.913 -5.74,0 z"
         style="fill:#000000;fill-opacity:1;fill-rule:nonzero;stroke:none"
         id="path38"
         inkscape:connector-curvature="0" /></g></g></svg>