<?xml version="1.0" encoding="UTF-8" standalone="no"?>
<!-- Created with Inkscape (http://www.inkscape.org/) -->

<svg
   xmlns:dc="http://purl.org/dc/elements/1.1/"
   xmlns:cc="http://creativecommons.org/ns#"
   xmlns:rdf="http://www.w3.org/1999/02/22-rdf-syntax-ns#"
   xmlns:svg="http://www.w3.org/2000/svg"
   xmlns="http://www.w3.org/2000/svg"
   xmlns:sodipodi="http://sodipodi.sourceforge.net/DTD/sodipodi-0.dtd"
   xmlns:inkscape="http://www.inkscape.org/namespaces/inkscape"
   id="svg2"
   version="1.1"
   inkscape:version="0.91 r13725"
   xml:space="preserve"
   width="82.576225"
   height="46.015022"
   viewBox="0 0 82.576227 46.015023"
   sodipodi:docname="rub.svg"><metadata
     id="metadata8"><rdf:RDF><cc:Work
         rdf:about=""><dc:format>image/svg+xml</dc:format><dc:type
           rdf:resource="http://purl.org/dc/dcmitype/StillImage" /><dc:title></dc:title></cc:Work></rdf:RDF></metadata><defs
     id="defs6"><clipPath
       clipPathUnits="userSpaceOnUse"
       id="clipPath16"><path
         d="m 0,168.88 168.88,0 L 168.88,0 0,0 0,168.88 Z"
         id="path18"
         inkscape:connector-curvature="0" /></clipPath></defs><sodipodi:namedview
     pagecolor="#ffffff"
     bordercolor="#666666"
     borderopacity="1"
     objecttolerance="10"
     gridtolerance="10"
     guidetolerance="10"
     inkscape:pageopacity="0"
     inkscape:pageshadow="2"
     inkscape:window-width="751"
     inkscape:window-height="480"
     id="namedview4"
     showgrid="false"
     fit-margin-top="0"
     fit-margin-left="0"
     fit-margin-right="0"
     fit-margin-bottom="0"
     inkscape:zoom="1.1179535"
     inkscape:cx="90.838247"
     inkscape:cy="72.557508"
     inkscape:window-x="0"
     inkscape:window-y="0"
     inkscape:window-maximized="0"
     inkscape:current-layer="g10" /><g
     id="g10"
     inkscape:groupmode="layer"
     inkscape:label="Векторный смарт-объект"
     transform="matrix(1.25,0,0,-1.25,-14.711757,79.007512)"><g
       id="g24"
       transform="matrix(0.53055487,0,0,0.53055487,76.769274,33.821759)"><path
         d="m 0,0 c 0,-6.628 -5.372,-12 -12,-12 l -96.513,0 c -6.628,0 -12,5.372 -12,12 l 0,41.384 c 0,6.628 5.372,12 12,12 l 96.513,0 c 6.628,0 12,-5.372 12,-12 L 0,0 Z"
         style="fill:none;stroke:#231f20;stroke-width:4;stroke-linecap:butt;stroke-linejoin:miter;stroke-miterlimit:10;stroke-dasharray:none;stroke-opacity:1"
         id="path26"
         inkscape:connector-curvature="0" /></g><g
       id="g28"
       transform="matrix(0.53055487,0,0,0.53055487,22.947984,41.523612)"><path
         d="m 0,0 c 0,-0.001 0.001,-0.001 0.001,-0.002 l -0.013,-0.004 0.01,0.009 C -0.002,0.003 -0.001,0 0,0 m 12.004,-18.115 4.709,0.989 7.169,23.587 12.074,5.628 c 3.638,1.695 4.466,4.23 4.573,5.908 l -0.684,1.467 c -1.353,0.996 -3.827,1.992 -7.464,0.297 L 20.306,14.133 -2.367,23.813 -6.152,20.842 6.82,7.848 1.179,5.219 -7.92,9.104 -9.997,7.475 l 8.267,-8.282 1.025,-11.655 2.584,0.542 2.876,9.466 5.641,2.63 1.608,-18.291 z"
         style="fill:#231f20;fill-opacity:1;fill-rule:nonzero;stroke:none"
         id="path30"
         inkscape:connector-curvature="0" /></g><path
       d="m 49.59733,54.195649 -1.221337,0 0,4.104903 1.221337,0 0,-4.104903 z"
       style="fill:#231f20;fill-opacity:1;fill-rule:nonzero;stroke:none"
       id="path32"
       inkscape:connector-curvature="0" /><path
       d="m 49.59733,46.563618 -1.221337,0 0,4.104903 1.221337,0 0,-4.104903 z"
       style="fill:#231f20;fill-opacity:1;fill-rule:nonzero;stroke:none"
       id="path34"
       inkscape:connector-curvature="0" /><path
       d="m 49.59733,38.931586 -1.221337,0 0,4.104903 1.221337,0 0,-4.104903 z"
       style="fill:#231f20;fill-opacity:1;fill-rule:nonzero;stroke:none"
       id="path36"
       inkscape:connector-curvature="0" /><path
       d="m 49.59733,31.299023 -1.221337,0 0,4.104903 1.221337,0 0,-4.104903 z"
       style="fill:#231f20;fill-opacity:1;fill-rule:nonzero;stroke:none"
       id="path38"
       inkscape:connector-curvature="0" /><g
       id="g40"
       transform="matrix(0.53055487,0,0,0.53055487,60.55106,44.372214)"><path
         d="m 0,0 c 1.937,0 3.832,-0.059 5.721,0.028 0.784,0.035 1.605,0.27 2.323,0.602 3.136,1.451 4.63,4.063 4.814,7.405 0.216,3.921 -2.006,7.443 -6.068,8.126 C 4.739,16.506 2.606,16.366 0.511,16.438 0.345,16.444 0.176,16.396 0,16.373 L 0,0 Z m -5.764,-20.021 0,9.104 -3.465,0 0,4.078 3.414,0 0,2.607 -3.415,0 0,4.109 3.434,0 0,21.102 c 0.245,0.032 0.411,0.074 0.578,0.074 3.878,-0.001 7.762,0.11 11.635,-0.038 C 12.749,20.771 17.563,16.69 18.451,10.512 19.597,2.536 14.223,-3.969 6.154,-4.193 4.131,-4.249 2.104,-4.202 0.018,-4.202 l 0,-2.575 15.299,0 0,-4.11 -15.35,0 0,-9.134 -5.731,0 z"
         style="fill:#000000;fill-opacity:1;fill-rule:nonzero;stroke:none"
         id="path42"
         inkscape:connector-curvature="0" /></g></g></svg>