<?xml version="1.0" encoding="UTF-8" standalone="no"?>
<!-- Created with Inkscape (http://www.inkscape.org/) -->

<svg
   xmlns:dc="http://purl.org/dc/elements/1.1/"
   xmlns:cc="http://creativecommons.org/ns#"
   xmlns:rdf="http://www.w3.org/1999/02/22-rdf-syntax-ns#"
   xmlns:svg="http://www.w3.org/2000/svg"
   xmlns="http://www.w3.org/2000/svg"
   xmlns:sodipodi="http://sodipodi.sourceforge.net/DTD/sodipodi-0.dtd"
   xmlns:inkscape="http://www.inkscape.org/namespaces/inkscape"
   id="svg2"
   version="1.1"
   inkscape:version="0.91 r13725"
   xml:space="preserve"
   width="54"
   height="75.793747"
   viewBox="0 0 54.000001 75.793747"
   sodipodi:docname="tablet.svg"><metadata
     id="metadata8"><rdf:RDF><cc:Work
         rdf:about=""><dc:format>image/svg+xml</dc:format><dc:type
           rdf:resource="http://purl.org/dc/dcmitype/StillImage" /><dc:title></dc:title></cc:Work></rdf:RDF></metadata><defs
     id="defs6"><clipPath
       clipPathUnits="userSpaceOnUse"
       id="clipPath16"><path
         d="m 0,168.88 168.88,0 L 168.88,0 0,0 0,168.88 Z"
         id="path18"
         inkscape:connector-curvature="0" /></clipPath></defs><sodipodi:namedview
     pagecolor="#ffffff"
     bordercolor="#666666"
     borderopacity="1"
     objecttolerance="10"
     gridtolerance="10"
     guidetolerance="10"
     inkscape:pageopacity="0"
     inkscape:pageshadow="2"
     inkscape:window-width="1920"
     inkscape:window-height="1017"
     id="namedview4"
     showgrid="false"
     fit-margin-top="0"
     fit-margin-left="0"
     fit-margin-right="0"
     fit-margin-bottom="0"
     inkscape:zoom="3.1620501"
     inkscape:cx="27.887689"
     inkscape:cy="35.630903"
     inkscape:window-x="-8"
     inkscape:window-y="-8"
     inkscape:window-maximized="1"
     inkscape:current-layer="g10" /><g
     id="g10"
     inkscape:groupmode="layer"
     inkscape:label="Векторный смарт-объект1"
     transform="matrix(1.25,0,0,-1.25,-54.23025,109.31224)"><g
       id="g20"
       transform="matrix(0.52611709,0,0,0.52611709,84.479732,27.867034)"
       style="stroke:#ffffff;stroke-opacity:1"><path
         d="m 0,0 -74.111,0 c -1.1,0 -2,0.9 -2,2 l 0,107.25 c 0,1.1 0.9,2 2,2 l 74.111,0 c 1.1,0 2,-0.9 2,-2 L 2,2 C 2,0.9 1.1,0 0,0 Z"
         style="fill:none;stroke:#ffffff;stroke-width:4;stroke-linecap:round;stroke-linejoin:round;stroke-miterlimit:10;stroke-dasharray:none;stroke-opacity:1"
         id="path22"
         inkscape:connector-curvature="0" /></g><path
       d="m 115.315,124.515 -61.75,0 0,-73.45 61.75,0 0,73.45 z m -4,-69.45 -53.75,0 0,65.45 53.75,0 0,-65.45 z"
       style="fill:#ffffff;fill-opacity:1;fill-rule:nonzero;stroke:none"
       id="path24"
       inkscape:connector-curvature="0"
       transform="matrix(0.52611709,0,0,0.52611709,20.559031,12.707076)" /><g
       id="g26"
       transform="matrix(0.52611709,0,0,0.52611709,69.127425,79.733024)"
       style="fill:#ffffff;fill-opacity:1"><path
         d="m 0,0 -15.75,0 c -1.1,0 -2,0.9 -2,2 l 0,2.25 c 0,1.1 0.9,2 2,2 L 0,6.25 c 1.1,0 2,-0.9 2,-2 L 2,2 C 2,0.9 1.1,0 0,0"
         style="fill:#ffffff;fill-opacity:1;fill-rule:nonzero;stroke:none"
         id="path28"
         inkscape:connector-curvature="0" /></g><g
       id="g30"
       transform="matrix(0.52611709,0,0,0.52611709,68.726103,34.465384)"
       style="fill:#ffffff;fill-opacity:1"><path
         d="m 0,0 c 0,3.928 -3.184,7.112 -7.112,7.112 -3.928,0 -7.112,-3.184 -7.112,-7.112 0,-3.928 3.184,-7.112 7.112,-7.112 C -3.184,-7.112 0,-3.928 0,0"
         style="fill:#ffffff;fill-opacity:1;fill-rule:nonzero;stroke:none"
         id="path32"
         inkscape:connector-curvature="0" /></g><path
       d="m 97.244,69.679 1.643,0 0,3.537 -1.643,0 0,-3.537 z m -3.81,7.179 -3.523,0 0,-3.523 3.523,0 0,3.523 z m -3.546,-10.863 0,7.211 -3.552,0 0,-3.605 -3.745,0 0,7.271 3.627,0 0,3.659 7.313,0 0,-3.612 3.583,0 0,3.634 9.12,0 0,-7.321 -3.546,0 0,-3.576 3.546,0 0,-3.661 -3.66,0 0,3.546 -1.788,0 0,-3.546 -3.661,0 0,3.547 -3.576,0 0,-3.547 -3.661,0 z"
       style="fill:#ffffff;fill-opacity:1;fill-rule:nonzero;stroke:none"
       id="path34"
       inkscape:connector-curvature="0"
       transform="matrix(0.52611709,0,0,0.52611709,20.559031,12.707076)" /><path
       d="m 66.325,96.93 8.972,0 0,8.971 -8.972,0 0,-8.971 z m 12.666,-3.692 -16.346,0 0,16.346 16.346,0 0,-16.346 z"
       style="fill:#ffffff;fill-opacity:1;fill-rule:nonzero;stroke:none"
       id="path36"
       inkscape:connector-curvature="0"
       transform="matrix(0.52611709,0,0,0.52611709,20.559031,12.707076)" /><path
       d="m 93.579,96.933 8.973,0 0,8.971 -8.973,0 0,-8.971 z m 12.655,-3.695 -16.346,0 0,16.346 16.346,0 0,-16.346 z"
       style="fill:#ffffff;fill-opacity:1;fill-rule:nonzero;stroke:none"
       id="path38"
       inkscape:connector-curvature="0"
       transform="matrix(0.52611709,0,0,0.52611709,20.559031,12.707076)" /><path
       d="m 66.336,69.69 8.971,0 0,8.972 -8.971,0 0,-8.972 z m -3.691,12.651 16.346,0 0,-16.346 -16.346,0 0,16.346 z"
       style="fill:#ffffff;fill-opacity:1;fill-rule:nonzero;stroke:none"
       id="path40"
       inkscape:connector-curvature="0"
       transform="matrix(0.52611709,0,0,0.52611709,20.559031,12.707076)" /><g
       id="g42"
       transform="matrix(0.52611709,0,0,0.52611709,53.517741,60.820799)"
       style="fill:#ffffff;fill-opacity:1"><path
         d="m 0,0 3.656,0 0,-3.64 3.567,0 0,3.615 14.549,0 0,-3.606 1.794,0 0,3.597 9.132,0 0,-3.633 -3.571,0 0,-3.631 -14.641,0 0,3.605 -3.579,0 0,-3.605 -7.308,0 0,3.637 L 0,-3.661 0,0 Z"
         style="fill:#ffffff;fill-opacity:1;fill-rule:nonzero;stroke:none"
         id="path44"
         inkscape:connector-curvature="0" /></g><g
       id="g46"
       transform="matrix(0.52611709,0,0,0.52611709,70.714352,58.897893)"
       style="fill:#ffffff;fill-opacity:1"><path
         d="m 0,0 3.57,0 0,3.631 3.734,0 0,-3.637 3.599,0 0,-3.661 L 0,-3.667 0,0 Z"
         style="fill:#ffffff;fill-opacity:1;fill-rule:nonzero;stroke:none"
         id="path48"
         inkscape:connector-curvature="0" /></g><path
       d="m 86.313,105.953 -3.746,0 0,3.632 3.746,0 0,-3.632 z"
       style="fill:#ffffff;fill-opacity:1;fill-rule:nonzero;stroke:none"
       id="path50"
       inkscape:connector-curvature="0"
       transform="matrix(0.52611709,0,0,0.52611709,20.559031,12.707076)" /><path
       d="m 82.597,102.329 3.693,0 0,-7.268 -3.693,0 0,7.268 z"
       style="fill:#ffffff;fill-opacity:1;fill-rule:nonzero;stroke:none"
       id="path52"
       inkscape:connector-curvature="0"
       transform="matrix(0.52611709,0,0,0.52611709,20.559031,12.707076)" /><path
       d="m 73.525,98.716 -5.406,0 0,5.398 5.406,0 0,-5.398 z"
       style="fill:#ffffff;fill-opacity:1;fill-rule:nonzero;stroke:none"
       id="path54"
       inkscape:connector-curvature="0"
       transform="matrix(0.52611709,0,0,0.52611709,20.559031,12.707076)" /><path
       d="m 95.367,104.117 5.396,0 0,-5.396 -5.396,0 0,5.396 z"
       style="fill:#ffffff;fill-opacity:1;fill-rule:nonzero;stroke:none"
       id="path56"
       inkscape:connector-curvature="0"
       transform="matrix(0.52611709,0,0,0.52611709,20.559031,12.707076)" /><path
       d="m 73.524,71.467 -5.396,0 0,5.395 5.396,0 0,-5.395 z"
       style="fill:#ffffff;fill-opacity:1;fill-rule:nonzero;stroke:none"
       id="path58"
       inkscape:connector-curvature="0"
       transform="matrix(0.52611709,0,0,0.52611709,20.559031,12.707076)" /></g></svg>