<?xml version="1.0" encoding="UTF-8" standalone="no"?>
<!-- Created with Inkscape (http://www.inkscape.org/) -->

<svg
   xmlns:dc="http://purl.org/dc/elements/1.1/"
   xmlns:cc="http://creativecommons.org/ns#"
   xmlns:rdf="http://www.w3.org/1999/02/22-rdf-syntax-ns#"
   xmlns:svg="http://www.w3.org/2000/svg"
   xmlns="http://www.w3.org/2000/svg"
   xmlns:sodipodi="http://sodipodi.sourceforge.net/DTD/sodipodi-0.dtd"
   xmlns:inkscape="http://www.inkscape.org/namespaces/inkscape"
   id="svg2"
   version="1.1"
   inkscape:version="0.91 r13725"
   xml:space="preserve"
   width="85"
   height="47.365658"
   viewBox="0 0 85 47.365659"
   sodipodi:docname="ticket.svg"><metadata
     id="metadata8"><rdf:RDF><cc:Work
         rdf:about=""><dc:format>image/svg+xml</dc:format><dc:type
           rdf:resource="http://purl.org/dc/dcmitype/StillImage" /><dc:title></dc:title></cc:Work></rdf:RDF></metadata><defs
     id="defs6"><clipPath
       clipPathUnits="userSpaceOnUse"
       id="clipPath16"><path
         d="m 0,168.88 168.88,0 L 168.88,0 0,0 0,168.88 Z"
         id="path18"
         inkscape:connector-curvature="0" /></clipPath></defs><sodipodi:namedview
     pagecolor="#ffffff"
     bordercolor="#666666"
     borderopacity="1"
     objecttolerance="10"
     gridtolerance="10"
     guidetolerance="10"
     inkscape:pageopacity="0"
     inkscape:pageshadow="2"
     inkscape:window-width="1920"
     inkscape:window-height="1017"
     id="namedview4"
     showgrid="false"
     fit-margin-top="0"
     fit-margin-left="0"
     fit-margin-right="0"
     fit-margin-bottom="0"
     inkscape:zoom="1.1179535"
     inkscape:cx="77.821127"
     inkscape:cy="43.365121"
     inkscape:window-x="-8"
     inkscape:window-y="-8"
     inkscape:window-maximized="1"
     inkscape:current-layer="g10" /><g
     id="g10"
     inkscape:groupmode="layer"
     inkscape:label="Векторный смарт-объект"
     transform="matrix(1.25,0,0,-1.25,-27.728876,109.55053)"><g
       id="g24"
       transform="matrix(0.54612771,0,0,0.54612771,89.090845,57.393688)"
       style="stroke:#ffffff;stroke-opacity:1"><path
         d="m 0,0 c 0,-6.628 -5.373,-12 -12,-12 l -96.513,0 c -6.627,0 -12,5.372 -12,12 l 0,41.384 c 0,6.628 5.373,12 12,12 l 96.513,0 c 6.627,0 12,-5.372 12,-12 L 0,0 Z"
         style="fill:none;stroke:#ffffff;stroke-width:4;stroke-linecap:butt;stroke-linejoin:miter;stroke-miterlimit:10;stroke-dasharray:none;stroke-opacity:1"
         id="path26"
         inkscape:connector-curvature="0" /></g><g
       id="g28"
       transform="matrix(0.54612771,0,0,0.54612771,35.984239,68.693835)"
       style="fill:#ffffff;fill-opacity:1"><path
         d="M 0,0 0,-0.003 -0.015,0 0,0.004 0,0 Z m 3.691,-25.135 5.359,-1.278 18.823,21.463 15.233,0 c 4.589,0 6.673,2.278 7.594,4.004 l 0,1.893 C 49.779,2.672 47.695,4.95 43.106,4.95 L 27.873,4.95 9.05,26.414 3.691,25.135 10.861,4.95 3.743,4.95 -3.811,13.566 -6.751,12.864 -2.183,0 l -4.568,-12.863 2.94,-0.701 7.554,8.614 7.118,0 -7.17,-20.185 z"
         style="fill:#ffffff;fill-opacity:1;fill-rule:nonzero;stroke:none"
         id="path30"
         inkscape:connector-curvature="0" /></g><path
       d="m 117.417,102.149 -7.737,0 0,7.737 7.737,0 0,-7.737 z"
       style="fill:#ffffff;fill-opacity:1;fill-rule:nonzero;stroke:none"
       id="path32"
       inkscape:connector-curvature="0"
       transform="matrix(0.54612771,0,0,0.54612771,10.068294,22.579193)" /><path
       d="m 117.417,87.764 -7.737,0 0,7.737 7.737,0 0,-7.737 z"
       style="fill:#ffffff;fill-opacity:1;fill-rule:nonzero;stroke:none"
       id="path34"
       inkscape:connector-curvature="0"
       transform="matrix(0.54612771,0,0,0.54612771,10.068294,22.579193)" /><path
       d="m 117.417,73.379 -7.737,0 0,7.737 7.737,0 0,-7.737 z"
       style="fill:#ffffff;fill-opacity:1;fill-rule:nonzero;stroke:none"
       id="path36"
       inkscape:connector-curvature="0"
       transform="matrix(0.54612771,0,0,0.54612771,10.068294,22.579193)" /><path
       d="m 117.417,58.993 -7.737,0 0,7.737 7.737,0 0,-7.737 z"
       style="fill:#ffffff;fill-opacity:1;fill-rule:nonzero;stroke:none"
       id="path38"
       inkscape:connector-curvature="0"
       transform="matrix(0.54612771,0,0,0.54612771,10.068294,22.579193)" /></g></svg>