<?xml version="1.0" encoding="UTF-8" standalone="no"?>
<!-- Created with Inkscape (http://www.inkscape.org/) -->

<svg
   xmlns:dc="http://purl.org/dc/elements/1.1/"
   xmlns:cc="http://creativecommons.org/ns#"
   xmlns:rdf="http://www.w3.org/1999/02/22-rdf-syntax-ns#"
   xmlns:svg="http://www.w3.org/2000/svg"
   xmlns="http://www.w3.org/2000/svg"
   xmlns:sodipodi="http://sodipodi.sourceforge.net/DTD/sodipodi-0.dtd"
   xmlns:inkscape="http://www.inkscape.org/namespaces/inkscape"
   id="svg2"
   version="1.1"
   inkscape:version="0.91 r13725"
   xml:space="preserve"
   width="97.893364"
   height="98"
   viewBox="0 0 97.893363 98.000001"
   sodipodi:docname="50.svg"><metadata
     id="metadata8"><rdf:RDF><cc:Work
         rdf:about=""><dc:format>image/svg+xml</dc:format><dc:type
           rdf:resource="http://purl.org/dc/dcmitype/StillImage" /><dc:title></dc:title></cc:Work></rdf:RDF></metadata><defs
     id="defs6"><clipPath
       clipPathUnits="userSpaceOnUse"
       id="clipPath16"><path
         d="m 0,211.747 211.535,0 L 211.535,0 0,0 0,211.747 Z"
         id="path18"
         inkscape:connector-curvature="0" /></clipPath></defs><sodipodi:namedview
     pagecolor="#ffffff"
     bordercolor="#666666"
     borderopacity="1"
     objecttolerance="10"
     gridtolerance="10"
     guidetolerance="10"
     inkscape:pageopacity="0"
     inkscape:pageshadow="2"
     inkscape:window-width="742"
     inkscape:window-height="480"
     id="namedview4"
     showgrid="false"
     fit-margin-top="0"
     fit-margin-left="0"
     fit-margin-right="0"
     fit-margin-bottom="0"
     inkscape:zoom="0.89163012"
     inkscape:cx="132.20901"
     inkscape:cy="132.34188"
     inkscape:window-x="0"
     inkscape:window-y="0"
     inkscape:window-maximized="0"
     inkscape:current-layer="g10" /><g
     id="g10"
     inkscape:groupmode="layer"
     inkscape:label="Vector Smart Object17"
     transform="matrix(1.25,0,0,-1.25,-3.75e-4,98)"><g
       id="g12"
       transform="matrix(0.37025423,0,0,0.37025423,1.8892373e-4,0)"><g
         id="g14"
         clip-path="url(#clipPath16)"><g
           id="g20"
           transform="translate(79.0923,119.472)"><path
             d="m 0,0 c 0,0 -47.702,-10.788 -58.663,-13.182 -10.954,-2.393 -7.904,0.657 -7.904,0.657 L 0,32.955 0,0 Z m 26.364,-98.865 c 0,0 -13.182,46.136 -13.182,59.319 l 0,92.275 c 0,6.59 4.287,26.364 13.182,26.364 l 0,13.181 C 6.591,92.274 0,65.91 0,52.729 l 0,-6.591 -72.501,-48.12 c 0,0 -6.591,-3.618 -6.591,-13.182 l 0,-3.296 c 1.069,-8.973 19.773,-5.922 19.773,-5.922 L 0,-13.182 0,-39.546 c 0,-7.93 2.117,-22.193 5.503,-36.456 l -12.094,-9.682 c 0,0 -6.591,-6.59 -6.591,-13.181 0,-6.592 6.591,-6.592 6.591,-6.592 l 21.518,0 0.006,0 c 0.219,-0.488 0.438,-0.952 0.656,-1.415 0.034,-0.065 0.058,-0.116 0.085,-0.181 0.186,-0.386 0.372,-0.746 0.558,-1.12 0.054,-0.115 0.11,-0.219 0.168,-0.347 0.161,-0.309 0.323,-0.605 0.484,-0.902 0.063,-0.128 0.127,-0.243 0.192,-0.359 0.161,-0.284 0.315,-0.58 0.476,-0.851 0.065,-0.115 0.123,-0.219 0.187,-0.321 0.18,-0.322 0.374,-0.63 0.56,-0.941 0.033,-0.05 0.065,-0.102 0.097,-0.154 0.225,-0.359 0.45,-0.708 0.676,-1.043 0.032,-0.037 0.057,-0.077 0.083,-0.115 0.194,-0.283 0.387,-0.541 0.58,-0.812 0.07,-0.09 0.135,-0.167 0.205,-0.269 0.155,-0.206 0.309,-0.4 0.47,-0.592 0.078,-0.091 0.149,-0.181 0.232,-0.283 0.148,-0.167 0.303,-0.335 0.451,-0.516 0.078,-0.078 0.154,-0.154 0.232,-0.231 0.167,-0.18 0.334,-0.347 0.495,-0.503 0.065,-0.064 0.123,-0.114 0.18,-0.168 0.232,-0.219 0.458,-0.411 0.683,-0.591 0.026,-0.025 0.051,-0.025 0.078,-0.052 0.198,-0.154 0.397,-0.295 0.605,-0.424 0.069,-0.052 0.147,-0.089 0.218,-0.141 0.154,-0.078 0.309,-0.181 0.463,-0.259 0.084,-0.038 0.167,-0.076 0.252,-0.115 0.147,-0.066 0.295,-0.116 0.444,-0.168 0.083,-0.038 0.166,-0.064 0.25,-0.09 0.155,-0.052 0.316,-0.089 0.469,-0.116 0.072,-0.013 0.143,-0.025 0.219,-0.051 0.226,-0.025 0.458,-0.052 0.683,-0.052 l 0,19.774 z"
             style="fill:#ffffff;fill-opacity:1;fill-rule:nonzero;stroke:none"
             id="path22"
             inkscape:connector-curvature="0" /></g><g
           id="g24"
           transform="translate(108.8335,2.5003)"><path
             d="m 0,0 c 0.747,0.324 5.798,11.155 6.5,11.833 30.634,-2.579 27.651,7.189 27.651,7.189 -0.632,6.897 -13.603,16.842 -19.815,21.234 3.661,16.887 5.448,34.423 5.448,34.423 l 0.549,38.448 69.206,-15.929 c 18.674,-3.295 7.14,13.183 7.14,13.183 l -76.346,49.981 0,6.592 c 0,35.152 -19.224,35.152 -19.224,35.152"
             style="fill:none;stroke:#ffffff;stroke-width:5;stroke-linecap:round;stroke-linejoin:round;stroke-miterlimit:10;stroke-dasharray:11;stroke-dashoffset:0;stroke-opacity:1"
             id="path26"
             inkscape:connector-curvature="0" /></g><g
           id="g28"
           transform="translate(105.4565,211.7464)"><path
             d="m 0,0 0,-210.321 c 0,0 -18.457,42.408 -18.457,44.408 0,2 -3,60.457 -3,60.457 l -6,5.589 -69,-11.546 c 0,0 -1.5,11.092 0,11.546 1.5,0.454 76,54.454 76,54.454 l 7,26.5 5.5,11.773 L 0,0 Z"
             style="fill:#ffffff;fill-opacity:1;fill-rule:nonzero;stroke:none"
             id="path30"
             inkscape:connector-curvature="0" /></g></g></g></g></svg>