<?xml version="1.0" encoding="UTF-8" standalone="no"?>
<!-- Generator: Adobe Illustrator 21.0.0, SVG Export Plug-In . SVG Version: 6.00 Build 0)  -->

<svg
   xmlns:dc="http://purl.org/dc/elements/1.1/"
   xmlns:cc="http://creativecommons.org/ns#"
   xmlns:rdf="http://www.w3.org/1999/02/22-rdf-syntax-ns#"
   xmlns:svg="http://www.w3.org/2000/svg"
   xmlns="http://www.w3.org/2000/svg"
   xmlns:sodipodi="http://sodipodi.sourceforge.net/DTD/sodipodi-0.dtd"
   xmlns:inkscape="http://www.inkscape.org/namespaces/inkscape"
   version="1.1"
   id="Layer_1"
   x="0px"
   y="0px"
   viewBox="0 0 97.874023 98.000001"
   xml:space="preserve"
   inkscape:version="0.91 r13725"
   sodipodi:docname="50.svg"
   width="97.874023"
   height="98"><metadata
     id="metadata9"><rdf:RDF><cc:Work
         rdf:about=""><dc:format>image/svg+xml</dc:format><dc:type
           rdf:resource="http://purl.org/dc/dcmitype/StillImage" /><dc:title /></cc:Work></rdf:RDF></metadata><defs
     id="defs7" /><sodipodi:namedview
     pagecolor="#ffffff"
     bordercolor="#666666"
     borderopacity="1"
     objecttolerance="10"
     gridtolerance="10"
     guidetolerance="10"
     inkscape:pageopacity="0"
     inkscape:pageshadow="2"
     inkscape:window-width="1920"
     inkscape:window-height="976"
     id="namedview5"
     showgrid="false"
     fit-margin-top="0"
     fit-margin-left="0"
     fit-margin-right="0"
     fit-margin-bottom="0"
     inkscape:zoom="1.1147851"
     inkscape:cx="-55.716098"
     inkscape:cy="105.95"
     inkscape:window-x="-8"
     inkscape:window-y="-8"
     inkscape:window-maximized="1"
     inkscape:current-layer="Layer_1" /><path
     d="m 36.599622,18.27668 0,3.05382 L 3.0538244,43.63267 C 3.0538244,43.63267 0,45.29839 0,49.74032 l 0,1.52691 c 0.50897073,4.16431 9.1614731,2.72994 9.1614731,2.72994 L 36.599622,48.81492 c 0,6.89424 0,12.2153 0,12.2153 0,3.65533 0.971672,10.27195 2.544854,16.88857 l -5.598678,4.44193 c 0,0 -3.053824,3.05382 -3.053824,6.10765 0,3.05382 3.053824,3.05382 3.053824,3.05382 l 9.948064,0 c 0.09254,0.23135 0.18508,0.4627 0.323891,0.64778 0,0.0463 0.04627,0.0463 0.04627,0.0925 0.09254,0.18508 0.18508,0.32389 0.27762,0.50897 0.04627,0.0463 0.04627,0.0925 0.09254,0.13881 0.09254,0.13881 0.13881,0.27762 0.231351,0.41643 0.04627,0.0463 0.04627,0.0925 0.09254,0.18508 0.09254,0.13881 0.13881,0.27762 0.23135,0.41643 0.04627,0.0463 0.04627,0.0925 0.09254,0.13881 0.09254,0.13881 0.18508,0.27762 0.277621,0.41643 0,0.0463 0.04627,0.0463 0.04627,0.0926 0.09254,0.18508 0.23135,0.32389 0.32389,0.4627 0,0 0.04627,0.0463 0.04627,0.0463 0.09254,0.13881 0.18508,0.23135 0.277621,0.37016 0.04627,0.0463 0.04627,0.0925 0.09254,0.13881 0.09254,0.0925 0.13881,0.18508 0.23135,0.27762 0.04627,0.0463 0.04627,0.0925 0.09254,0.13881 0.04627,0.0925 0.13881,0.13881 0.23135,0.23135 0.04627,0.0463 0.09254,0.0925 0.09254,0.0925 0.09254,0.0925 0.13881,0.13881 0.23135,0.23135 0.04627,0.0463 0.04627,0.0463 0.09254,0.0925 0.09254,0.0925 0.23135,0.18508 0.32389,0.27762 0,0 0.04627,0 0.04627,0.0463 0.09254,0.0925 0.18508,0.13881 0.27762,0.18508 0.04627,0.0463 0.04627,0.0463 0.09254,0.0463 0.09254,0.0463 0.13881,0.0925 0.23135,0.13881 0.04627,0 0.09254,0.0463 0.138811,0.0463 0.04627,0.0463 0.13881,0.0463 0.18508,0.0925 0.04627,0 0.09254,0.0463 0.13881,0.0463 0.09254,0.0463 0.13881,0.0463 0.23135,0.0463 0.04627,0 0.04627,0 0.09254,0.0463 0.09254,0 0.23135,0.0463 0.32389,0.0463 L 49,0 C 39.653447,0 36.599622,12.2153 36.599622,18.27668 Z M 56.403211,3.84042 C 54.644948,1.75826 52.840415,0.83286 51.915014,0.4627 51.313503,0.23135 50.665722,0.509 50.434372,1.11048 c -0.23135,0.60151 0.04627,1.24929 0.647781,1.48064 0.740321,0.27762 2.128423,1.01795 3.562795,2.72994 0.23135,0.27762 0.555241,0.41643 0.879131,0.41643 0.277621,0 0.508971,-0.0925 0.740321,-0.27762 0.462701,-0.41643 0.555241,-1.15675 0.138811,-1.61945 z m -0.09254,75.28139 c 0.740322,0.50897 1.850803,1.34183 3.053825,2.31351 0.23135,0.18508 0.4627,0.27762 0.740321,0.27762 0.32389,0 0.694051,-0.13881 0.879131,-0.41643 0.416431,-0.50897 0.323891,-1.20303 -0.18508,-1.61946 -0.925401,-0.74032 -1.804533,-1.43437 -2.544854,-1.94334 0.04627,-0.13881 0.04627,-0.32389 0.09254,-0.4627 0.138811,-0.64778 -0.27762,-1.24929 -0.879131,-1.3881 -0.647781,-0.13881 -1.249292,0.27762 -1.388102,0.87913 -0.09254,0.37016 -0.18508,0.78659 -0.23135,1.15675 -0.09254,0.4627 0.09254,0.97167 0.4627,1.20302 z m -2.082153,12.2153 c -0.55524,-0.27762 -1.249291,-0.0925 -1.573182,0.50897 -0.18508,0.37016 -0.41643,0.83286 -0.694051,1.34183 -0.4627,0.9254 -1.249292,2.45232 -1.480642,2.82248 -0.37016,0.32389 -0.462701,0.83286 -0.27762,1.29556 C 50.388103,97.72238 50.804534,98 51.267234,98 c 0.13881,0 0.323891,-0.0463 0.462701,-0.0925 0.508971,-0.23135 0.740321,-0.55524 2.313503,-3.70161 0.231351,-0.4627 0.462701,-0.9254 0.694051,-1.29556 0.277621,-0.60151 0.04627,-1.29556 -0.508971,-1.57318 z m 3.979226,-77.31728 c 0.09254,0.55524 0.601511,0.97167 1.156752,0.97167 0.04627,0 0.13881,0 0.18508,0 0.647781,-0.0925 1.064212,-0.69405 0.971671,-1.34183 -0.27762,-1.8508 -0.740321,-3.60907 -1.341831,-5.13598 -0.231351,-0.60151 -0.925402,-0.87913 -1.480643,-0.64778 -0.60151,0.23135 -0.879131,0.9254 -0.64778,1.48064 0.4627,1.43438 0.879131,2.96129 1.156751,4.67328 z m 1.526912,3.74788 c -0.647781,0 -1.156751,0.55524 -1.156751,1.15675 0,0.23135 0,0.41643 0,0.64778 l 0,3.05382 c 0,0.37016 0.18508,0.74032 0.50897,0.97167 l 1.156752,0.74032 c 0.18508,0.13881 0.416431,0.18509 0.647781,0.18509 0.370161,0 0.740321,-0.18509 0.971671,-0.50898 0.370161,-0.55524 0.185081,-1.24929 -0.32389,-1.61945 l -0.647781,-0.41643 0,-2.40604 c 0,-0.23135 0,-0.4627 0,-0.69405 0,-0.60151 -0.508971,-1.11048 -1.156752,-1.11048 l 0,0 z m 0.925402,44.14164 0.09254,-5.08971 c 0,-0.64778 -0.508971,-1.15675 -1.156752,-1.15675 -0.647781,0 -1.156752,0.50897 -1.156752,1.15675 l -0.09254,5.08971 c 0,0.64778 0.508971,1.15675 1.156752,1.15675 l 0,0 c 0.647781,0 1.156752,-0.50897 1.156752,-1.15675 z m 0.23135,-15.26912 c 0,-0.64778 -0.508971,-1.15676 -1.156752,-1.15676 l 0,0 c -0.647781,0 -1.156751,0.50898 -1.156751,1.15676 l -0.09254,5.0897 c 0,0.64778 0.50897,1.15676 1.156751,1.15676 l 0,0 c 0.647781,0 1.156752,-0.50898 1.156752,-1.15676 l 0.09254,-5.0897 z m -3.100094,20.17375 c -0.231351,1.71199 -0.508971,3.37771 -0.740321,4.99716 -0.09254,0.64778 0.32389,1.24929 0.971671,1.34183 0.04627,0 0.13881,0 0.18508,0 0.555241,0 1.064212,-0.41643 1.156752,-0.97167 0.27762,-1.61945 0.555241,-3.33144 0.786591,-5.0897 0.09254,-0.64779 -0.370161,-1.20303 -0.971671,-1.29557 -0.740322,-0.0463 -1.295562,0.37016 -1.388102,1.01795 z m 23.782814,-28.54864 4.256846,2.77621 c 0.18508,0.13881 0.41643,0.18508 0.647781,0.18508 0.37016,0 0.740321,-0.18508 0.971671,-0.50897 0.37016,-0.55524 0.18508,-1.24929 -0.323891,-1.61945 L 82.869688,36.322 c -0.55524,-0.37016 -1.249291,-0.18508 -1.619452,0.32389 -0.37016,0.55524 -0.18508,1.29556 0.323891,1.61945 z m 13.418319,8.55997 c 0.37016,0 0.740321,-0.18508 0.971671,-0.50897 0.370161,-0.55524 0.18508,-1.2493 -0.32389,-1.61946 l -4.256846,-2.7762 c -0.555241,-0.37016 -1.249292,-0.18508 -1.619453,0.32389 -0.37016,0.55524 -0.18508,1.24929 0.323891,1.61945 l 4.256846,2.77621 c 0.23135,0.13881 0.41643,0.18508 0.647781,0.18508 z m -7.310671,2.86874 -4.950897,-1.15675 c -0.601511,-0.13881 -1.249292,0.23135 -1.388102,0.87913 -0.13881,0.64778 0.231351,1.24929 0.879131,1.3881 l 4.950898,1.15675 c 0.09254,0 0.18508,0.0463 0.27762,0.0463 0.508971,0 1.017941,-0.37016 1.110482,-0.87913 0.13881,-0.64778 -0.277621,-1.29556 -0.879132,-1.43437 z m 9.207743,-0.4627 c -0.647781,-0.0925 -1.249291,0.32389 -1.341832,0.9254 -0.04627,0.18508 -0.13881,0.74032 -1.711992,0.74032 l 0,0 c -0.37016,0 -0.786591,-0.0463 -1.249292,-0.0925 -0.647781,-0.0925 -1.203021,0.37016 -1.295562,0.97167 -0.09254,0.64778 0.370161,1.20303 0.971672,1.29557 0.555241,0.0925 1.110481,0.13881 1.573182,0.13881 l 0,0 c 3.100094,0 3.840416,-1.66573 4.025496,-2.6374 0.09254,-0.64778 -0.323891,-1.24929 -0.971672,-1.34183 z M 78.612842,33.5458 74.355996,30.76959 c -0.555241,-0.37016 -1.249292,-0.18508 -1.619452,0.32389 -0.370161,0.55525 -0.18508,1.2493 0.32389,1.61946 l 4.256846,2.7762 c 0.185081,0.13881 0.416431,0.18508 0.647781,0.18508 0.370161,0 0.740321,-0.18508 0.971672,-0.50897 0.32389,-0.55524 0.18508,-1.24929 -0.323891,-1.61945 z m -8.559962,-5.55241 -4.256846,-2.7762 c -0.555241,-0.37016 -1.249292,-0.18508 -1.619452,0.32389 -0.370161,0.55524 -0.185081,1.24929 0.32389,1.61945 l 4.256846,2.7762 c 0.18508,0.13881 0.416431,0.18508 0.647781,0.18508 0.370161,0 0.740321,-0.18508 0.971672,-0.50897 0.37016,-0.55524 0.23135,-1.29556 -0.323891,-1.61945 z M 67.831917,45.15958 62.88102,44.00283 c -0.601511,-0.13881 -1.249292,0.23135 -1.388102,0.87913 -0.13881,0.60151 0.23135,1.2493 0.879131,1.38811 l 4.950897,1.15675 c 0.09254,0 0.18508,0.0463 0.277621,0.0463 0.50897,0 1.017941,-0.37016 1.110481,-0.87913 0.13881,-0.69405 -0.23135,-1.29557 -0.879131,-1.43438 z m -3.146365,38.034 c -0.41643,-0.4627 -1.156751,-0.50897 -1.619452,-0.0925 -0.462701,0.41643 -0.508971,1.15675 -0.09254,1.61945 1.665722,1.8508 1.989613,2.86875 2.035883,3.37772 0,0.13881 0,0.13881 0.04627,0.23135 l 1.156752,0.0463 -1.156752,-0.0463 c 0,0 0,0 0,0 0,0 0,0 0,0 l 0,0 c 0,0.64778 0.462701,1.15675 1.110482,1.20302 0,0 0.04627,0 0.04627,0 0.60151,0 1.156751,-0.50897 1.156751,-1.11048 0,0 0,-0.0463 0,-0.0925 0,-0.23135 -0.04627,-0.37016 -0.04627,-0.50897 -0.18508,-1.34184 -1.017941,-2.86875 -2.637394,-4.62701 z m -2.544853,6.84797 c -1.203022,0.23135 -2.683664,0.37016 -4.395657,0.37016 l -0.41643,0 0,0 c -0.647781,0 -1.156752,0.50897 -1.156752,1.15675 0,0.64778 0.508971,1.15675 1.156752,1.15675 l 0.41643,0 c 1.897073,0 3.516526,-0.13881 4.858357,-0.41643 0.647781,-0.13881 1.017942,-0.74032 0.879132,-1.3881 C 63.34372,90.31917 62.74221,89.90274 62.140699,90.04155 Z M 77.779981,47.42682 72.829084,46.27007 c -0.601511,-0.13881 -1.249292,0.23135 -1.388102,0.87913 -0.13881,0.60151 0.23135,1.24929 0.879131,1.3881 l 4.950897,1.15675 c 0.09254,0 0.185081,0.0463 0.277621,0.0463 0.508971,0 1.017941,-0.37016 1.110481,-0.87913 0.09254,-0.64778 -0.27762,-1.29556 -0.879131,-1.43437 z"
     id="path3"
     inkscape:connector-curvature="0"
     style="fill:#ffffff;fill-opacity:1" /></svg>