<?xml version="1.0" encoding="UTF-8" standalone="no"?>
<!-- Created with Inkscape (http://www.inkscape.org/) -->

<svg
   xmlns:dc="http://purl.org/dc/elements/1.1/"
   xmlns:cc="http://creativecommons.org/ns#"
   xmlns:rdf="http://www.w3.org/1999/02/22-rdf-syntax-ns#"
   xmlns:svg="http://www.w3.org/2000/svg"
   xmlns="http://www.w3.org/2000/svg"
   xmlns:sodipodi="http://sodipodi.sourceforge.net/DTD/sodipodi-0.dtd"
   xmlns:inkscape="http://www.inkscape.org/namespaces/inkscape"
   id="svg2"
   version="1.1"
   inkscape:version="0.91 r13725"
   xml:space="preserve"
   width="40.747055"
   height="38"
   viewBox="0 0 40.747056 38"
   sodipodi:docname="bestemployee.svg"><metadata
     id="metadata8"><rdf:RDF><cc:Work
         rdf:about=""><dc:format>image/svg+xml</dc:format><dc:type
           rdf:resource="http://purl.org/dc/dcmitype/StillImage" /><dc:title></dc:title></cc:Work></rdf:RDF></metadata><defs
     id="defs6"><clipPath
       clipPathUnits="userSpaceOnUse"
       id="clipPath16"><path
         d="m 0,97.942 105.022,0 L 105.022,0 0,0 0,97.942 Z"
         id="path18"
         inkscape:connector-curvature="0" /></clipPath></defs><sodipodi:namedview
     pagecolor="#ffffff"
     bordercolor="#666666"
     borderopacity="1"
     objecttolerance="10"
     gridtolerance="10"
     guidetolerance="10"
     inkscape:pageopacity="0"
     inkscape:pageshadow="2"
     inkscape:window-width="742"
     inkscape:window-height="480"
     id="namedview4"
     showgrid="false"
     fit-margin-top="0"
     fit-margin-left="0"
     fit-margin-right="0"
     fit-margin-bottom="0"
     inkscape:zoom="1.9276636"
     inkscape:cx="65.638748"
     inkscape:cy="61.213624"
     inkscape:window-x="547"
     inkscape:window-y="120"
     inkscape:window-maximized="0"
     inkscape:current-layer="g10" /><g
     id="g10"
     inkscape:groupmode="layer"
     inkscape:label="Vector Smart Object9"
     transform="matrix(1.25,0,0,-1.25,0,38.000375)"><g
       id="g12"
       transform="matrix(0.31038873,0,0,0.31038873,0,2.0688338e-4)"><g
         id="g14"
         ><g
           id="g20"
           transform="translate(97.9865,72.8003)"><path
           class="mycolor"
             d="m 0,0 -11.24,-11.241 0,22.934 6.396,0 c 3.374,0 5.482,-2.184 6.328,-4.228 C 2.33,5.421 2.385,2.386 0,0 m -40.277,-35.955 c -0.809,-0.437 -1.312,-1.281 -1.312,-2.199 l 0,-19.472 c 0,-1.381 1.119,-2.5 2.5,-2.5 l 8.887,0 0,-7.674 -30.447,0 0,7.674 8.887,0 c 1.38,0 2.5,1.119 2.5,2.5 l 0,19.472 c 0,0.918 -0.504,1.762 -1.311,2.199 -6.543,3.541 -21.921,12.934 -24.038,23.959 l 0,32.138 58.371,0 0,-5.288 c -0.059,-0.212 -0.1,-0.431 -0.1,-0.661 0,-0.231 0.041,-0.449 0.1,-0.661 l 0,-25.528 c -2.117,-11.023 -17.493,-20.418 -24.037,-23.959 m -52.159,43.42 c 0.847,2.044 2.954,4.228 6.329,4.228 l 6.496,0 0,-23.033 L -90.951,0 c -2.385,2.386 -2.331,5.42 -1.485,7.465 M 6.103,9.378 C 4.234,13.89 0.04,16.693 -4.844,16.693 l -6.396,0 0,5.949 c 0,1.381 -1.12,2.5 -2.5,2.5 l -63.371,0 c -1.38,0 -2.5,-1.119 -2.5,-2.5 l 0,-5.949 -6.496,0 c -4.883,0 -9.08,-2.803 -10.947,-7.315 -1.87,-4.512 -0.885,-9.46 2.568,-12.913 l 18.007,-18.007 c 0.312,-0.312 0.689,-0.514 1.084,-0.626 5.394,-7.694 14.566,-13.785 21.133,-17.463 l 0,-15.495 -8.887,0 c -1.382,0 -2.5,-1.119 -2.5,-2.5 l 0,-12.674 c 0,-1.381 1.118,-2.5 2.5,-2.5 l 35.447,0 c 1.382,0 2.5,1.119 2.5,2.5 l 0,12.674 c 0,1.381 -1.118,2.5 -2.5,2.5 l -8.887,0 0,15.495 c 6.578,3.684 15.769,9.789 21.157,17.5 0.35,0.12 0.681,0.31 0.959,0.589 L 3.535,-3.535 c 3.453,3.453 4.438,8.401 2.568,12.913"
             style="fill-opacity:1;fill-rule:nonzero;stroke:none"
             id="path22"
             inkscape:connector-curvature="0" /></g><g
           id="g24"
           transform="translate(41.0382,70.6402)"><path
           class="mycolor"
             d="m 0,0 5.933,-4.311 c 0.69,-0.501 0.979,-1.391 0.714,-2.202 l -2.265,-6.975 5.933,4.311 c 0.69,0.502 1.624,0.502 2.316,0 l 5.932,-4.31 -2.266,6.974 c -0.264,0.811 0.025,1.701 0.716,2.202 L 22.945,0 15.612,0 C 14.759,0 14.003,0.549 13.739,1.361 L 11.473,8.335 9.206,1.361 C 8.942,0.549 8.187,0 7.333,0 L 0,0 Z m 0.636,-20.613 c -0.407,0 -0.813,0.125 -1.157,0.376 -0.691,0.502 -0.98,1.391 -0.716,2.202 L 2.46,-6.657 -7.22,0.376 c -0.689,0.501 -0.978,1.391 -0.715,2.202 0.264,0.811 1.02,1.36 1.873,1.36 l 11.964,0 3.698,11.379 c 0.263,0.811 1.019,1.361 1.873,1.361 0.853,0 1.609,-0.55 1.873,-1.361 l 3.697,-11.379 11.964,0 c 0.853,0 1.609,-0.549 1.873,-1.36 0.264,-0.811 -0.026,-1.701 -0.716,-2.202 l -9.679,-7.033 3.697,-11.378 c 0.264,-0.811 -0.025,-1.7 -0.715,-2.202 -0.691,-0.501 -1.625,-0.501 -2.316,0 l -9.678,7.032 -9.68,-7.032 c -0.345,-0.251 -0.751,-0.376 -1.157,-0.376"
             style="fill-opacity:1;fill-rule:nonzero;stroke:none"
             id="path26"
             inkscape:connector-curvature="0" /></g></g></g></g></svg>