<?xml version="1.0" encoding="UTF-8" standalone="no"?>
<!-- Created with Inkscape (http://www.inkscape.org/) -->

<svg
   xmlns:dc="http://purl.org/dc/elements/1.1/"
   xmlns:cc="http://creativecommons.org/ns#"
   xmlns:rdf="http://www.w3.org/1999/02/22-rdf-syntax-ns#"
   xmlns:svg="http://www.w3.org/2000/svg"
   xmlns="http://www.w3.org/2000/svg"
   xmlns:sodipodi="http://sodipodi.sourceforge.net/DTD/sodipodi-0.dtd"
   xmlns:inkscape="http://www.inkscape.org/namespaces/inkscape"
   id="svg2"
   version="1.1"
   inkscape:version="0.91 r13725"
   xml:space="preserve"
   width="47.794365"
   height="54"
   viewBox="0 0 47.794364 54.000001"
   sodipodi:docname="clock.svg"><metadata
     id="metadata8"><rdf:RDF><cc:Work
         rdf:about=""><dc:format>image/svg+xml</dc:format><dc:type
           rdf:resource="http://purl.org/dc/dcmitype/StillImage" /><dc:title></dc:title></cc:Work></rdf:RDF></metadata><defs
     id="defs6"><clipPath
       clipPathUnits="userSpaceOnUse"
       id="clipPath16"><path
         d="m 0,103.873 91.936,0 L 91.936,0 0,0 0,103.873 Z"
         id="path18"
         inkscape:connector-curvature="0" /></clipPath></defs><sodipodi:namedview
     pagecolor="#ffffff"
     bordercolor="#666666"
     borderopacity="1"
     objecttolerance="10"
     gridtolerance="10"
     guidetolerance="10"
     inkscape:pageopacity="0"
     inkscape:pageshadow="2"
     inkscape:window-width="1105"
     inkscape:window-height="715"
     id="namedview4"
     showgrid="false"
     fit-margin-top="0"
     fit-margin-left="0"
     fit-margin-right="0"
     fit-margin-bottom="0"
     inkscape:zoom="1.8176042"
     inkscape:cx="57.460316"
     inkscape:cy="64.920626"
     inkscape:window-x="0"
     inkscape:window-y="0"
     inkscape:window-maximized="0"
     inkscape:current-layer="g10" /><g
     id="g10"
     inkscape:groupmode="layer"
     inkscape:label="Vector Smart Object15"
     transform="matrix(1.25,0,0,-1.25,0,53.999999)"><g
       id="g12"
       transform="scale(0.41589248,0.41589248)"><g
         id="g14"
         clip-path="url(#clipPath16)"><g
           id="g20"
           transform="translate(45.9678,5)"><path
             d="m 0,0 c -22.59,0 -40.968,18.379 -40.968,40.969 0,22.59 18.378,40.968 40.968,40.968 22.59,0 40.969,-18.378 40.969,-40.968 C 40.969,18.379 22.59,0 0,0 m 3,86.828 0,7.045 10,0 c 1.381,0 2.5,1.119 2.5,2.5 0,1.381 -1.119,2.5 -2.5,2.5 l -25,0 c -1.381,0 -2.5,-1.119 -2.5,-2.5 0,-1.381 1.119,-2.5 2.5,-2.5 l 10,0 0,-6.987 C -26.422,85.834 -45.968,65.645 -45.968,40.969 -45.968,15.621 -25.347,-5 0,-5 25.348,-5 45.969,15.621 45.969,40.969 45.969,65.307 26.953,85.275 3,86.828"
             style="fill:#ffffff;fill-opacity:1;fill-rule:nonzero;stroke:none"
             id="path22"
             inkscape:connector-curvature="0" /></g><g
           id="g24"
           transform="translate(48.2353,47.7364)"><path
             d="m 0,0 c -0.977,0.977 -2.559,0.977 -3.535,0 -0.977,-0.977 -0.977,-2.559 0,-3.535 L 13.149,-20.22 c 0.489,-0.488 1.128,-0.732 1.768,-0.732 0.64,0 1.279,0.244 1.768,0.732 0.976,0.977 0.976,2.559 0,3.535 L 0,0 Z"
             style="fill:#ffffff;fill-opacity:1;fill-rule:nonzero;stroke:none"
             id="path26"
             inkscape:connector-curvature="0" /></g><g
           id="g28"
           transform="translate(79.7441,48.4688)"><path
             d="M 0,0 C -1.381,0 -2.5,-1.12 -2.5,-2.5 -2.5,-3.881 -1.381,-5 0,-5 1.381,-5 2.5,-3.881 2.5,-2.5 2.5,-1.12 1.381,0 0,0"
             style="fill:#ffffff;fill-opacity:1;fill-rule:nonzero;stroke:none"
             id="path30"
             inkscape:connector-curvature="0" /></g><g
           id="g32"
           transform="translate(12.4912,48.4688)"><path
             d="M 0,0 C -1.381,0 -2.5,-1.12 -2.5,-2.5 -2.5,-3.881 -1.381,-5 0,-5 1.381,-5 2.5,-3.881 2.5,-2.5 2.5,-1.12 1.381,0 0,0"
             style="fill:#ffffff;fill-opacity:1;fill-rule:nonzero;stroke:none"
             id="path34"
             inkscape:connector-curvature="0" /></g><g
           id="g36"
           transform="translate(46.1172,14.8418)"><path
             d="M 0,0 C -1.38,0 -2.5,-1.119 -2.5,-2.5 -2.5,-3.881 -1.38,-5 0,-5 1.381,-5 2.5,-3.881 2.5,-2.5 2.5,-1.119 1.381,0 0,0"
             style="fill:#ffffff;fill-opacity:1;fill-rule:nonzero;stroke:none"
             id="path38"
             inkscape:connector-curvature="0" /></g><g
           id="g40"
           transform="translate(46.1172,77.0948)"><path
             d="M 0,0 C 1.381,0 2.5,1.119 2.5,2.5 2.5,3.881 1.381,5 0,5 -1.38,5 -2.5,3.881 -2.5,2.5 -2.5,1.119 -1.38,0 0,0"
             style="fill:#ffffff;fill-opacity:1;fill-rule:nonzero;stroke:none"
             id="path42"
             inkscape:connector-curvature="0" /></g></g></g></g></svg>