<?xml version="1.0" encoding="UTF-8" standalone="no"?>
<!-- Created with Inkscape (http://www.inkscape.org/) -->

<svg
   xmlns:dc="http://purl.org/dc/elements/1.1/"
   xmlns:cc="http://creativecommons.org/ns#"
   xmlns:rdf="http://www.w3.org/1999/02/22-rdf-syntax-ns#"
   xmlns:svg="http://www.w3.org/2000/svg"
   xmlns="http://www.w3.org/2000/svg"
   xmlns:sodipodi="http://sodipodi.sourceforge.net/DTD/sodipodi-0.dtd"
   xmlns:inkscape="http://www.inkscape.org/namespaces/inkscape"
   id="svg2"
   version="1.1"
   inkscape:version="0.91 r13725"
   xml:space="preserve"
   width="31.299046"
   height="43"
   viewBox="0 0 31.299046 43"
   sodipodi:docname="contact.svg"><metadata
     id="metadata8"><rdf:RDF><cc:Work
         rdf:about=""><dc:format>image/svg+xml</dc:format><dc:type
           rdf:resource="http://purl.org/dc/dcmitype/StillImage" /><dc:title></dc:title></cc:Work></rdf:RDF></metadata><defs
     id="defs6"><clipPath
       clipPathUnits="userSpaceOnUse"
       id="clipPath16"><path
         d="m 0,105 76.428,0 0,-105 L 0,0 0,105 Z"
         id="path18"
         inkscape:connector-curvature="0" /></clipPath></defs><sodipodi:namedview
     pagecolor="#ffffff"
     bordercolor="#666666"
     borderopacity="1"
     objecttolerance="10"
     gridtolerance="10"
     guidetolerance="10"
     inkscape:pageopacity="0"
     inkscape:pageshadow="2"
     inkscape:window-width="742"
     inkscape:window-height="480"
     id="namedview4"
     showgrid="false"
     fit-margin-top="0"
     fit-margin-left="0"
     fit-margin-right="0"
     fit-margin-bottom="0"
     inkscape:zoom="1.7980952"
     inkscape:cx="47.767376"
     inkscape:cy="65.625"
     inkscape:window-x="0"
     inkscape:window-y="0"
     inkscape:window-maximized="0"
     inkscape:current-layer="g10" /><g
     id="g10"
     inkscape:groupmode="layer"
     inkscape:label="Vector Smart Object13"
     transform="matrix(1.25,0,0,-1.25,0,43)"><g
       id="g12"
       transform="scale(0.32761905,0.32761905)"><g
         id="g14"
         ><g
           id="g20"
           transform="translate(38.2139,82.5801)"><path
           class="mycolor"
             d="m 0,0 c -8.777,0 -15.919,-7.142 -15.919,-15.919 0,-8.777 7.142,-15.919 15.919,-15.919 8.777,0 15.919,7.142 15.919,15.919 C 15.919,-7.142 8.777,0 0,0 m 0,-36.838 c -11.535,0 -20.919,9.384 -20.919,20.919 C -20.919,-4.384 -11.535,5 0,5 11.535,5 20.919,-4.384 20.919,-15.919 20.919,-27.454 11.535,-36.838 0,-36.838"
             style="fill-opacity:1;fill-rule:nonzero;stroke:none"
             id="path22"
             inkscape:connector-curvature="0" /></g><g
           id="g24"
           transform="translate(38.2139,100)"><path
           class="mycolor"
             d="m 0,0 c -18.314,0 -33.214,-14.9 -33.214,-33.215 0,-16.046 25.824,-50.653 33.214,-60.226 7.39,9.575 33.214,44.186 33.214,60.226 C 33.214,-14.9 18.314,0 0,0 m 0,-100 c -0.759,0 -1.477,0.345 -1.951,0.937 -1.481,1.847 -36.263,45.48 -36.263,65.848 C -38.214,-12.144 -21.071,5 0,5 21.071,5 38.214,-12.144 38.214,-33.215 38.214,-53.583 3.432,-97.216 1.951,-99.063 1.477,-99.655 0.759,-100 0,-100"
             style="fill-opacity:1;fill-rule:nonzero;stroke:none"
             id="path26"
             inkscape:connector-curvature="0" /></g></g></g></g></svg>