<?xml version="1.0" encoding="UTF-8" standalone="no"?>
<!-- Created with Inkscape (http://www.inkscape.org/) -->

<svg
   xmlns:dc="http://purl.org/dc/elements/1.1/"
   xmlns:cc="http://creativecommons.org/ns#"
   xmlns:rdf="http://www.w3.org/1999/02/22-rdf-syntax-ns#"
   xmlns:svg="http://www.w3.org/2000/svg"
   xmlns="http://www.w3.org/2000/svg"
   xmlns:sodipodi="http://sodipodi.sourceforge.net/DTD/sodipodi-0.dtd"
   xmlns:inkscape="http://www.inkscape.org/namespaces/inkscape"
   id="svg2"
   version="1.1"
   inkscape:version="0.91 r13725"
   xml:space="preserve"
   width="82.285957"
   height="51"
   viewBox="0 0 82.285958 50.999999"
   sodipodi:docname="eye.svg"><metadata
     id="metadata8"><rdf:RDF><cc:Work
         rdf:about=""><dc:format>image/svg+xml</dc:format><dc:type
           rdf:resource="http://purl.org/dc/dcmitype/StillImage" /><dc:title></dc:title></cc:Work></rdf:RDF></metadata><defs
     id="defs6"><clipPath
       clipPathUnits="userSpaceOnUse"
       id="clipPath16"><path
         d="m 0,103.969 167.748,0 L 167.748,0 0,0 0,103.969 Z"
         id="path18"
         inkscape:connector-curvature="0" /></clipPath></defs><sodipodi:namedview
     pagecolor="#ffffff"
     bordercolor="#666666"
     borderopacity="1"
     objecttolerance="10"
     gridtolerance="10"
     guidetolerance="10"
     inkscape:pageopacity="0"
     inkscape:pageshadow="2"
     inkscape:window-width="1920"
     inkscape:window-height="1137"
     id="namedview4"
     showgrid="false"
     fit-margin-top="0"
     fit-margin-left="0"
     fit-margin-right="0"
     fit-margin-bottom="0"
     inkscape:zoom="1.815926"
     inkscape:cx="104.8425"
     inkscape:cy="64.980379"
     inkscape:window-x="-8"
     inkscape:window-y="-8"
     inkscape:window-maximized="1"
     inkscape:current-layer="g10" /><g
     id="g10"
     inkscape:groupmode="layer"
     inkscape:label="Vector Smart Object19"
     transform="matrix(1.25,0,0,-1.25,0,51.00025)"><g
       id="g12"
       transform="matrix(0.39242655,0,0,0.39242655,0,1.2151469e-4)"><g
         id="g14"
         clip-path="url(#clipPath16)"><g
           id="g20"
           transform="translate(85.5371,8.8712)"><path
             d="m 0,0 c -44.357,0 -60.299,35.487 -60.299,35.487 0,0 15.942,35.487 60.299,35.487 44.358,0 60.3,-35.487 60.3,-35.487 C 60.3,35.487 44.358,0 0,0 m 0,79.845 c -53.229,0 -70.973,-44.358 -70.973,-44.358 0,0 17.744,-44.358 70.973,-44.358 53.23,0 70.974,44.358 70.974,44.358 0,0 -17.744,44.358 -70.974,44.358"
             style="fill:#ffffff;fill-opacity:1;fill-rule:nonzero;stroke:none"
             id="path22"
             inkscape:connector-curvature="0" /></g><g
           id="g24"
           transform="translate(85.5371,70.9728)"><path
             d="m 0,0 c -14.693,0 -26.614,-11.922 -26.614,-26.614 0,-14.695 11.921,-26.615 26.614,-26.615 14.694,0 26.615,11.92 26.615,26.615 C 26.615,-11.922 14.694,0 0,0"
             style="fill:#ffffff;fill-opacity:1;fill-rule:nonzero;stroke:none"
             id="path26"
             inkscape:connector-curvature="0" /></g><g
           id="g28"
           transform="translate(165.248,53.8507)"><path
             d="M 0,0 C 0,0 -29.808,47.618 -81.374,47.618 -132.94,47.618 -162.748,0 -162.748,0"
             style="fill:none;stroke:#ffffff;stroke-width:5;stroke-linecap:round;stroke-linejoin:round;stroke-miterlimit:10;stroke-dasharray:11;stroke-dashoffset:0;stroke-opacity:1"
             id="path30"
             inkscape:connector-curvature="0" /></g></g></g></g></svg>