<?xml version="1.0" encoding="UTF-8" standalone="no"?>
<!-- Generator: Adobe Illustrator 21.0.0, SVG Export Plug-In . SVG Version: 6.00 Build 0)  -->

<svg
   xmlns:dc="http://purl.org/dc/elements/1.1/"
   xmlns:cc="http://creativecommons.org/ns#"
   xmlns:rdf="http://www.w3.org/1999/02/22-rdf-syntax-ns#"
   xmlns:svg="http://www.w3.org/2000/svg"
   xmlns="http://www.w3.org/2000/svg"
   xmlns:sodipodi="http://sodipodi.sourceforge.net/DTD/sodipodi-0.dtd"
   xmlns:inkscape="http://www.inkscape.org/namespaces/inkscape"
   version="1.1"
   id="Layer_1"
   x="0px"
   y="0px"
   viewBox="0 0 50.837302 31.000001"
   xml:space="preserve"
   inkscape:version="0.91 r13725"
   sodipodi:docname="handshake.svg"
   width="50.837303"
   height="31"><metadata
     id="metadata11"><rdf:RDF><cc:Work
         rdf:about=""><dc:format>image/svg+xml</dc:format><dc:type
           rdf:resource="http://purl.org/dc/dcmitype/StillImage" /><dc:title></dc:title></cc:Work></rdf:RDF></metadata><defs
     id="defs9" /><sodipodi:namedview
     pagecolor="#ffffff"
     bordercolor="#666666"
     borderopacity="1"
     objecttolerance="10"
     gridtolerance="10"
     guidetolerance="10"
     inkscape:pageopacity="0"
     inkscape:pageshadow="2"
     inkscape:window-width="1188"
     inkscape:window-height="682"
     id="namedview7"
     showgrid="false"
     fit-margin-top="0"
     fit-margin-left="0"
     fit-margin-right="0"
     fit-margin-bottom="0"
     inkscape:zoom="5.6069363"
     inkscape:cx="26.024715"
     inkscape:cy="15.8"
     inkscape:window-x="0"
     inkscape:window-y="0"
     inkscape:window-maximized="0"
     inkscape:current-layer="Layer_1" /><style
     type="text/css"
     id="style3">

</style><path

     d="M 51.7,14.5 C 50.4,11 48.8,6.8 47.4,2.6 47.2,1.9 46.9,1.5 46.5,1.4 46,1.2 45.4,1.4 45,1.5 42.6,2.5 40.2,3.4 37.8,4.3 37.3,4.5 36.8,4.4 36.4,4.2 34.9,3.5 33.4,2.7 31.9,2 31.3,1.7 30.6,1.4 30,1 28.4,0.2 26.9,0.1 25.2,0.5 24.2,0.7 23.2,1 22.2,1.2 20.4,1.6 18.4,2 16.6,2.6 14.8,3.2 13.6,3.1 12.2,2.1 11.6,1.6 10.9,1.1 10.2,0.7 9.9,0.5 9.5,0.2 9.2,0 9.2,0 9.1,0 9,0 L 8.6,0.1 C 8.5,0.1 8.4,0.2 8.4,0.3 L 6.2,3.4 c -2,3 -4,6 -6,8.9 -0.7,1 0.1,1.6 0.6,2 L 3,15.9 c 2,1.5 4.1,2.9 6.1,4.4 0.6,0.5 0.9,0.7 0.7,1.5 -0.3,1.6 0.9,2.6 2,3.4 0.4,0.3 0.8,0.7 1.1,1.2 0.5,0.9 1.3,1.8 2.8,1.8 0.3,0 0.7,0.3 0.9,0.5 0.9,1.1 1.8,1.6 3.1,1.5 0.3,0 0.8,0.1 1.2,0.5 1.1,0.7 2,0.9 2.8,0.7 0.7,-0.2 1.3,-0.6 1.7,-1.4 l 3.4,1.7 c 0.1,0 0.1,0 0.2,0 0,0 0,0 0,0 l 0.8,0 c 0.1,0 0.1,0 0.2,0 0.5,-0.3 1,-0.5 1.5,-0.7 0.9,-0.4 1.8,-0.9 2.6,-1.4 1.8,-1.2 3.2,-2.3 4.4,-3.4 0.2,-0.2 0.4,-0.4 0.6,-0.6 0.6,-0.7 1.3,-1.3 2.2,-1.7 0.6,-0.3 0.9,-0.9 1.2,-1.6 0.1,-0.3 0.3,-0.6 0.4,-0.8 0.1,-0.1 0.1,-0.2 0.2,-0.3 0.2,-0.3 0.4,-0.6 0.6,-0.7 2.5,-1.3 4.7,-2.5 6.9,-3.5 1.2,-0.6 1.6,-1.3 1.1,-2.5 z M 32,17.3 c -0.3,0.3 -0.4,0.7 -0.3,1.1 0,0.2 0.1,0.3 0.2,0.4 1.3,1.2 3,2.8 4.8,4.4 0.3,0.2 0.4,0.5 0.4,0.9 0,0.3 -0.1,0.5 -0.2,0.7 -0.4,0.4 -3.1,-1.7 -4.2,-2.5 -2.3,-1.8 -3.5,-2.6 -4.1,-2 -0.7,0.7 0.4,1.8 2.4,4 1,1 2.5,2.8 2.5,3.2 -0.7,0.7 -1,0.6 -1.4,0.2 -0.8,-0.8 -1.6,-1.5 -2.5,-2.3 l -1.1,-1.1 c -0.1,-0.1 -0.1,-0.1 -0.2,-0.2 -0.2,-0.2 -0.4,-0.4 -0.7,-0.6 0,0 -0.1,0 -0.1,0 -0.4,-0.1 -0.9,0 -1.2,0.3 -0.3,0.3 -0.4,0.7 -0.2,1.1 0,0.1 0.1,0.2 0.2,0.3 0.6,0.6 1.2,1.2 1.8,1.8 0.5,0.5 1,1 1.6,1.5 0.1,0.2 0.1,0.4 0.1,0.5 -0.1,0.2 -0.2,0.3 -0.4,0.4 -0.2,0.1 -0.2,0 -0.2,0 -1,-0.5 -2.1,-1.1 -3.1,-1.9 -0.1,-0.1 -0.1,-0.5 0,-0.9 0.4,-2.1 -0.9,-3.3 -1.8,-4 -0.2,-0.2 -0.4,-0.4 -0.7,-0.7 -0.2,-0.2 -0.4,-0.5 -0.6,-0.7 -0.6,-0.5 -1.3,-0.7 -2,-0.9 -0.6,-0.2 -1.2,-0.4 -1.6,-0.8 -0.6,-0.5 -1.3,-0.7 -2,-0.7 -1.3,0 -2.5,-0.4 -3.9,-0.9 -0.5,-0.2 -1.1,0.2 -1.7,0.6 -0.2,0.1 -0.4,0.3 -0.6,0.4 L 2.7,12.9 9.2,3 c 0.3,0.2 0.7,0.4 1,0.6 1.1,0.6 2.1,1.2 3.1,1.8 0.6,0.4 1.5,0.5 2.2,0.2 C 16.6,5 17.9,4.6 19,4.2 19.3,4.1 19.5,4 19.7,4 c 0,0 0,0 0,0 -0.4,0.4 -0.9,0.9 -1.2,1.4 -1.3,1.6 -1.6,3.2 -0.8,4.3 0.9,1.2 2.7,1.6 4.5,0.9 1.1,-0.4 2.2,-1.1 3.2,-1.8 0.7,-0.4 1.1,-0.6 1.5,-0.5 0.3,0.1 0.7,0.4 1,1.1 1.2,2.4 3.3,3.8 5.3,4.9 1.1,0.6 2.1,1.3 3.1,2.2 0.8,0.7 1.5,1.5 2.3,2.2 0.6,0.6 1.1,1.1 1.7,1.7 0.3,0.3 0.5,0.6 0.5,0.8 0,0.2 -0.1,0.3 -0.2,0.5 C 39.9,21.8 36,18.9 34.7,17.9 33.8,17.2 33.5,17 33.4,17 c -0.1,0 -0.1,0 -0.2,-0.1 -0.5,0 -0.9,0.1 -1.2,0.4 z m -15,3.4 c 0.1,-0.1 0.2,-0.1 0.3,-0.1 0.1,0 0.2,0 0.3,0.1 0.2,0.1 0.3,0.2 0.4,0.4 0,0.1 0,0.2 0,0.2 -0.3,0.7 -0.6,1.4 -0.9,2 -0.4,0.8 -0.8,1.6 -1.1,2.5 0,0.1 -0.1,0.2 -0.1,0.2 -0.2,0 -0.8,-0.9 -1,-1.3 -0.3,-1.2 0.8,-3.3 2.1,-4 z m 1.2,5.3 c 0.4,-1.1 0.9,-2.2 1.7,-3.3 0.2,-0.4 0.5,-0.5 0.7,-0.5 0,0 0,0 0,0 0.3,0 0.7,0.3 0.9,0.7 -1.9,1.6 -2.2,3.5 -2.2,5.1 -0.4,-0.1 -0.7,-0.3 -0.9,-0.6 -0.3,-0.5 -0.4,-1 -0.2,-1.4 z m 3.9,-0.8 c 0.1,-0.3 0.7,-0.7 0.9,-0.7 0,0 0,0 0,0 0.2,0 0.6,0.6 0.8,0.9 l 0.1,0.1 c 0,0.1 0,0.2 0,0.4 0,0.1 0,0.2 0,0.3 0,0.2 0,0.5 -0.1,0.7 0,0.6 -0.1,1.2 -0.2,1.8 0,0.1 -0.4,0.4 -0.5,0.4 -0.6,-0.1 -1.5,-0.4 -1.5,-1.5 0,-0.8 0.2,-1.7 0.5,-2.4 z M 39.4,16.5 39,16.1 C 37.4,14.5 35.7,12.8 33.4,11.9 31.3,11 29.8,9.4 29.3,7.1 c -0.1,-0.4 -0.6,-1 -1.1,-1 0,0 -0.1,0 -0.1,0 C 26.9,6.3 25.5,6.6 24.2,7 23.6,7.2 23,7.5 22.4,7.8 21.7,8.1 21,8.5 20.3,8.7 20,8.8 19.7,8.8 19.5,8.6 c -0.1,-0.1 -0.1,-0.4 0,-0.7 1,-2.5 5,-5.2 7.6,-5.1 0.7,0 1.4,0.2 2.1,0.6 2.2,1.1 4.3,2.2 6.3,3.2 1,0.4 1.7,0.4 2.6,0 1.7,-0.7 3.5,-1.4 5.4,-2.1 0.6,-0.2 1.2,-0.5 1.9,-0.7 l 4.2,11.2 -1.4,0.7 c -2.1,1 -4.1,2.1 -6.1,3 -0.1,0 -0.4,0 -0.6,-0.2 -0.5,-0.4 -1,-0.9 -1.5,-1.4 -0.2,-0.2 -0.4,-0.4 -0.6,-0.6 z m -26.7,4.2 c 0.3,-0.4 0.7,-0.6 1,-0.6 0,0 0,0 0,0 0.2,0 0.4,0.1 0.6,0.2 -0.7,0.9 -1.2,1.7 -1.5,2.7 -0.4,-0.3 -0.6,-0.6 -0.6,-0.9 0,-0.5 0.1,-0.9 0.5,-1.4 z"
     id="path5"
     inkscape:connector-curvature="0"
     transform="matrix(0.97791798,0,0,0.97791798,0.0730647,0)"
     class="mycolor"
     style="stroke:none;" /></svg>