<?xml version="1.0" encoding="UTF-8" standalone="no"?>
<svg
   xmlns:dc="http://purl.org/dc/elements/1.1/"
   xmlns:cc="http://creativecommons.org/ns#"
   xmlns:rdf="http://www.w3.org/1999/02/22-rdf-syntax-ns#"
   xmlns:svg="http://www.w3.org/2000/svg"
   xmlns="http://www.w3.org/2000/svg"
   xmlns:sodipodi="http://sodipodi.sourceforge.net/DTD/sodipodi-0.dtd"
   xmlns:inkscape="http://www.inkscape.org/namespaces/inkscape"
   width="30.711308pt"
   height="49.600002pt"
   viewBox="0 0 30.711308 49.600002"
   version="1.1"
   id="svg2"
   inkscape:version="0.91 r13725"
   sodipodi:docname="lyc.svg">
  <metadata
     id="metadata35">
    <rdf:RDF>
      <cc:Work
         rdf:about="">
        <dc:format>image/svg+xml</dc:format>
        <dc:type
           rdf:resource="http://purl.org/dc/dcmitype/StillImage" />
        <dc:title></dc:title>
      </cc:Work>
    </rdf:RDF>
  </metadata>
  <sodipodi:namedview
     pagecolor="#ffffff"
     bordercolor="#666666"
     borderopacity="1"
     objecttolerance="10"
     gridtolerance="10"
     guidetolerance="10"
     inkscape:pageopacity="0"
     inkscape:pageshadow="2"
     inkscape:window-width="742"
     inkscape:window-height="480"
     id="namedview33"
     showgrid="false"
     fit-margin-top="0"
     fit-margin-left="0"
     fit-margin-right="0"
     fit-margin-bottom="0"
     inkscape:zoom="0.77417344"
     inkscape:cx="94.375"
     inkscape:cy="152.41824"
     inkscape:window-x="0"
     inkscape:window-y="0"
     inkscape:window-maximized="0"
     inkscape:current-layer="svg2" />
  <defs
     id="defs4">
    <clipPath
       id="clip1">
      <path
         d="m 48,138 80,0 0,105.87109 -80,0 z m 0,0"
         id="path7"
         inkscape:connector-curvature="0" />
    </clipPath>
    <clipPath
       id="clip2">
      <path
         d="m 41,131 94,0 0,112.87109 -94,0 z m 0,0"
         id="path10"
         inkscape:connector-curvature="0" />
    </clipPath>
  </defs>
  <g
     id="surface58"
     transform="scale(0.20338614,0.20338614)">
    <g
       clip-path="url(#clip1)"
       id="g13"
       style="clip-rule:nonzero">
      <path
       class="mycolor"
         style="fill-opacity:1;fill-rule:nonzero;stroke:none"
         d="m 109.85938,224.41797 c -1.125,-0.3086 -2.31641,0.20703 -2.86719,1.23828 l -5.15235,9.69922 -9.124996,-21.12891 c 0.09766,0.0195 0.195312,0.0352 0.296875,0.0547 3.460937,0.65234 7.386721,1.39453 11.183591,-0.29688 0.45703,-0.20312 0.89063,-0.4375 1.30078,-0.6875 0.13282,-0.082 0.25391,-0.17578 0.38672,-0.26171 0.26563,-0.17969 0.53516,-0.35938 0.78125,-0.55469 0.14063,-0.10938 0.26953,-0.22656 0.40235,-0.34375 0.22265,-0.19141 0.44531,-0.37891 0.65234,-0.58203 0.12891,-0.125 0.25,-0.25391 0.37109,-0.38282 0.19922,-0.20703 0.39844,-0.41796 0.58594,-0.63281 0.10938,-0.1289 0.21485,-0.26172 0.32422,-0.39062 0.1875,-0.23047 0.375,-0.46485 0.55078,-0.70313 0.0898,-0.11719 0.17578,-0.23828 0.26563,-0.35937 0.1914,-0.26953 0.3789,-0.53516 0.5625,-0.8086 0.0547,-0.0859 0.11328,-0.16797 0.16797,-0.2539 0.32421,-0.49219 0.63671,-0.98438 0.9375,-1.47266 l 8.96875,20.76563 z m -36.187505,10.9375 -5.152344,-9.69922 c -0.441406,-0.82813 -1.300781,-1.32422 -2.207031,-1.32422 -0.21875,0 -0.441406,0.0273 -0.660156,0.0859 l -10.59375,2.89844 9.320312,-21.57813 c 0.125,0.17188 0.25,0.34375 0.375,0.51563 0.07813,0.10937 0.152344,0.21093 0.230469,0.32031 0.164063,0.23437 0.332031,0.47656 0.5,0.72265 0.05469,0.0781 0.109375,0.15625 0.164063,0.23829 1.898437,2.75781 4.050781,5.88671 7.625,7.25781 0.0078,0.004 0.01563,0.004 0.01953,0.008 0.359375,0.13672 0.722656,0.25 1.085937,0.34375 0.128907,0.0312 0.257813,0.0547 0.390625,0.082 0.238282,0.0547 0.480469,0.10547 0.71875,0.14063 0.152344,0.0234 0.304688,0.0391 0.457032,0.0547 0.21875,0.0273 0.4375,0.0469 0.65625,0.0586 0.160156,0.008 0.316406,0.0156 0.476562,0.0195 0.09375,0.004 0.191406,0.0117 0.285156,0.0117 0.07422,0 0.144532,-0.0117 0.21875,-0.0117 0.441407,-0.008 0.878907,-0.0312 1.316407,-0.0703 0.05469,-0.008 0.113281,-0.008 0.171875,-0.0156 0.5,-0.0508 1,-0.125 1.492187,-0.21094 0.105469,-0.0195 0.210938,-0.0391 0.316406,-0.0586 0.429688,-0.082 0.851563,-0.16797 1.265625,-0.25781 0.07031,-0.0156 0.136719,-0.0312 0.203125,-0.043 0.06641,-0.0156 0.136719,-0.0312 0.207032,-0.0469 z M 55.40625,191.46875 c -1.054687,-2.36719 -0.515625,-5.21094 0.05469,-8.21875 0.347656,-1.83984 0.707031,-3.74219 0.671875,-5.57422 -0.03516,-1.91406 -0.5,-3.85547 -0.949219,-5.73047 -0.667969,-2.79687 -1.300781,-5.4414 -0.488281,-7.5664 0.820312,-2.12891 3.058593,-3.66797 5.429687,-5.30079 1.589844,-1.09375 3.230469,-2.22656 4.539063,-3.62109 1.25,-1.33984 2.257812,-2.99609 3.226562,-4.59766 1.59375,-2.61328 3.09375,-5.08593 5.464844,-6.14453 2.367187,-1.05078 5.210937,-0.51562 8.21875,0.0547 1.839844,0.34766 3.746094,0.70313 5.574219,0.67188 1.914062,-0.0352 3.855468,-0.5 5.730468,-0.94532 2.800782,-0.67187 5.441407,-1.30468 7.566402,-0.48828 2.12891,0.81641 3.66797,3.05469 5.30078,5.42578 1.09375,1.58985 2.22657,3.23438 3.625,4.53907 1.33594,1.2539 2.99219,2.25781 4.59375,3.23046 2.61719,1.58985 5.08594,3.08985 6.14063,5.46094 1.05859,2.36719 0.51953,5.21094 -0.0508,8.21875 -0.34766,1.83985 -0.70703,3.7461 -0.67188,5.57813 0.0352,1.91406 0.5,3.85156 0.94922,5.72656 0.66797,2.80078 1.30078,5.44141 0.48438,7.57031 -0.81641,2.125 -3.05469,3.66797 -5.42578,5.29688 -1.58985,1.09375 -3.23438,2.22656 -4.53907,3.625 -0.77343,0.82422 -1.44531,1.77343 -2.07812,2.7539 -0.0273,0.0391 -0.0508,0.0781 -0.0781,0.11719 -0.36718,0.57031 -0.72265,1.14844 -1.07422,1.72266 -1.36328,2.24609 -2.66796,4.38281 -4.51171,5.60937 -0.30079,0.20313 -0.61329,0.38672 -0.94922,0.53516 -0.89063,0.39453 -1.84375,0.5664 -2.851564,0.59765 -1.671875,0.0469 -3.488281,-0.29687 -5.367188,-0.65234 -0.820312,-0.15234 -1.652343,-0.30469 -2.484375,-0.42969 -0.05469,-0.004 -0.105468,-0.0156 -0.15625,-0.0234 -0.273437,-0.0391 -0.542968,-0.0664 -0.816406,-0.0937 -0.1875,-0.0234 -0.375,-0.0469 -0.558594,-0.0625 -0.277343,-0.0234 -0.550781,-0.0312 -0.828125,-0.0391 -0.132812,-0.004 -0.265625,-0.0195 -0.402343,-0.0195 l -0.01172,0 c -0.01563,0 -0.02734,0.004 -0.03906,0.004 -0.09375,0 -0.1875,-0.0117 -0.28125,-0.008 -0.621093,0.0117 -1.25,0.0781 -1.875,0.16406 -0.02344,0.004 -0.04687,0 -0.07031,0 -0.109375,0.0195 -0.21875,0.043 -0.328125,0.0625 -0.457031,0.0742 -0.914063,0.15625 -1.367188,0.25 -0.140625,0.0273 -0.277343,0.0547 -0.414062,0.0859 -0.558594,0.125 -1.121094,0.2539 -1.671875,0.38671 -2.800781,0.66797 -5.445313,1.30079 -7.570313,0.48438 -2.125,-0.81641 -3.667968,-3.05469 -5.296875,-5.42578 -0.796875,-1.15625 -1.617187,-2.33594 -2.539062,-3.39844 -0.02734,-0.0352 -0.05469,-0.0703 -0.08203,-0.10156 -0.1875,-0.21485 -0.390625,-0.40625 -0.589844,-0.60938 -0.136719,-0.14062 -0.269531,-0.29297 -0.414063,-0.42968 -0.01172,-0.0117 -0.03125,-0.0234 -0.04297,-0.0352 -1.332032,-1.23438 -2.964844,-2.23047 -4.550782,-3.19531 -2.617187,-1.58985 -5.089843,-3.08985 -6.144531,-5.46094 m 71.699225,38.64062 -12.24609,-28.35546 c 0.91015,-0.875 2.09765,-1.70704 3.36718,-2.57813 2.75782,-1.89844 5.88672,-4.05078 7.25782,-7.625 1.37109,-3.57812 0.48828,-7.26953 -0.29297,-10.52734 -0.40235,-1.69141 -0.78516,-3.28907 -0.8125,-4.66016 -0.0234,-1.3125 0.27343,-2.88672 0.58984,-4.55078 0.65625,-3.46094 1.39453,-7.38672 -0.29297,-11.18359 -1.6914,-3.79688 -5.10547,-5.8711 -8.11719,-7.69922 -1.44531,-0.87891 -2.8125,-1.71094 -3.77343,-2.60938 -1.00391,-0.9375 -1.9336,-2.28906 -2.92188,-3.72265 -1.89844,-2.75782 -4.05078,-5.88672 -7.625,-7.25782 -3.570316,-1.37109 -7.265629,-0.48828 -10.523441,0.29297 -1.691406,0.40235 -3.289063,0.78516 -4.660156,0.8125 -1.304688,0.0352 -2.886719,-0.27344 -4.550782,-0.58984 -3.464843,-0.65235 -7.386718,-1.39844 -11.183593,0.29297 -3.796875,1.6914 -5.871094,5.10547 -7.699219,8.11718 -0.882813,1.44532 -1.710938,2.8125 -2.609375,3.77344 -0.9375,1.00391 -2.289063,1.9336 -3.722656,2.92188 -2.761719,1.89453 -5.886719,4.05078 -7.261719,7.625 -1.371094,3.57422 -0.484375,7.26562 0.292969,10.52343 0.40625,1.69141 0.789062,3.28907 0.8125,4.66016 0.02734,1.31641 -0.269532,2.88672 -0.585938,4.55078 -0.65625,3.46094 -1.398437,7.38672 0.292969,11.1836 1.6875,3.79687 5.101562,5.87109 8.117187,7.69921 0.527344,0.32032 1.035157,0.63672 1.527344,0.94922 l -12.07814,27.95712 c -0.378906,0.88282 -0.222656,1.90625 0.410156,2.62891 0.628907,0.72656 1.621094,1.02734 2.546875,0.77344 l 13.679688,-3.74219 6.652344,12.52734 c 0.4375,0.81641 1.289062,1.32813 2.210937,1.32813 0.03125,0 0.06641,-0.004 0.101563,-0.004 0.957031,-0.0391 1.8125,-0.625 2.191406,-1.50781 L 87.757813,215.35547 99.3125,242.11328 c 0.382813,0.88281 1.23438,1.46875 2.19531,1.50781 0.0352,0 0.0703,0.004 0.10157,0.004 0.92187,0 1.77343,-0.51172 2.20703,-1.32813 l 6.65625,-12.52734 13.67968,3.74219 c 0.92579,0.2539 1.91407,-0.0469 2.54688,-0.77344 0.62891,-0.72266 0.78906,-1.74609 0.40625,-2.62891"
         id="path15"
         inkscape:connector-curvature="0" />
    </g>
    <g
       clip-path="url(#clip2)"
       id="g17"
       style="clip-rule:nonzero">
      <path
      class="mycolor"
         style="fill:none;stroke-width:0.5;stroke-linecap:butt;stroke-linejoin:miter;stroke-miterlimit:10;stroke-opacity:1"
         d="M -0.001825,0.00123125 C -1.126825,0.309825 -2.318231,-0.2058 -2.869013,-1.23705 l -5.152343,-9.699219 -9.125,21.128906 c 0.09766,-0.01953 0.195312,-0.03516 0.296875,-0.05469 3.460937,-0.652344 7.386718,-1.394531 11.183593,0.296875 0.457032,0.203125 0.890625,0.4375 1.300782,0.6875 0.132812,0.08203 0.253906,0.175781 0.386718,0.261719 0.265625,0.179687 0.535157,0.359375 0.78125,0.554687 0.140625,0.109375 0.269532,0.226563 0.402344,0.34375 0.222656,0.191406 0.445313,0.378906 0.652344,0.582031 0.128906,0.125 0.25,0.253907 0.371094,0.382813 0.199218,0.207031 0.398437,0.417969 0.585937,0.632812 0.109375,0.128907 0.214844,0.261719 0.324219,0.390625 0.1875,0.230469 0.375,0.464844 0.550781,0.703125 0.089844,0.117188 0.175781,0.238282 0.2656252,0.359375 0.1914058,0.269532 0.3789058,0.535157 0.5624998,0.808594 0.054688,0.08594 0.113281,0.167969 0.167969,0.253906 0.324219,0.492188 0.636719,0.984375 0.9375,1.472657 l 8.96875,-20.765625 z m -36.1875,-10.93750025 -5.152344,9.699219 c -0.441406,0.828125 -1.300781,1.3242187 -2.207031,1.3242187 -0.21875,0 -0.441406,-0.0273437 -0.660156,-0.08593745 l -10.59375,-2.89843725 9.320312,21.578125 c 0.125,-0.171875 0.25,-0.34375 0.375,-0.515625 0.07813,-0.109375 0.152344,-0.210938 0.230469,-0.320313 0.164062,-0.234375 0.332031,-0.476562 0.5,-0.722656 0.05469,-0.07813 0.109375,-0.15625 0.164062,-0.238281 1.898438,-2.757813 4.050782,-5.886719 7.625,-7.257813 0.0078,-0.00391 0.01563,-0.00391 0.01953,-0.00781 0.359375,-0.136719 0.722656,-0.25 1.085937,-0.34375 0.128906,-0.03125 0.257813,-0.054688 0.390625,-0.082032 0.238281,-0.054687 0.480469,-0.105468 0.71875,-0.140625 0.152344,-0.023437 0.304688,-0.039062 0.457031,-0.054687 0.21875,-0.027344 0.4375,-0.046875 0.65625,-0.058594 0.160157,-0.00781 0.316407,-0.015625 0.476563,-0.019531 0.09375,-0.00391 0.191406,-0.011719 0.285156,-0.011719 0.07422,0 0.144531,0.011719 0.21875,0.011719 0.441406,0.00781 0.878906,0.03125 1.316406,0.070312 0.05469,0.00781 0.113282,0.00781 0.171875,0.015625 0.5,0.050782 1,0.125 1.492188,0.210938 0.105469,0.019531 0.210937,0.039062 0.316406,0.058594 0.429688,0.082031 0.851563,0.167968 1.265625,0.257812 0.07031,0.015625 0.136719,0.03125 0.203125,0.042969 0.06641,0.015625 0.136719,0.03125 0.207031,0.046875 z M -54.45495,32.95045 c -1.054688,2.367187 -0.515625,5.210937 0.05469,8.21875 0.347657,1.839844 0.707032,3.742187 0.671875,5.574219 -0.03516,1.914062 -0.5,3.855468 -0.949218,5.730468 -0.667969,2.796875 -1.300782,5.441407 -0.488282,7.566407 0.820313,2.128906 3.058594,3.667968 5.429688,5.300781 1.589844,1.09375 3.230469,2.226562 4.539062,3.621094 1.25,1.339843 2.257813,2.996093 3.226563,4.597656 1.59375,2.613281 3.09375,5.085937 5.464844,6.144531 2.367187,1.050781 5.210937,0.515625 8.21875,-0.05469 1.839843,-0.347657 3.746093,-0.703125 5.574218,-0.671875 1.914063,0.03516 3.855469,0.5 5.730469,0.945312 2.800781,0.671875 5.441406,1.304688 7.566406,0.488281 2.128907,-0.816406 3.667969,-3.054687 5.300782,-5.425781 1.09375,-1.589844 2.226562,-3.234375 3.625,-4.539062 1.335937,-1.253907 2.992187,-2.257813 4.59375,-3.230469 2.617187,-1.589844 5.085937,-3.089844 6.140625,-5.460938 C 11.302862,59.38795 10.7638,56.5442 10.193487,53.536387 9.845831,51.696544 9.486456,49.790294 9.521612,47.958262 9.556769,46.0442 10.021612,44.1067 10.470831,42.2317 11.1388,39.430919 11.771612,36.790294 10.955206,34.661387 10.1388,32.536387 7.900519,30.993419 5.529425,29.364512 3.939581,28.270762 2.29505,27.13795 0.990362,25.739512 0.216925,24.915294 -0.45495,23.966075 -1.087763,22.985606 c -0.027343,-0.03906 -0.050781,-0.07813 -0.078125,-0.117187 -0.367187,-0.570313 -0.722656,-1.148438 -1.074218,-1.722657 -1.363282,-2.246093 -2.667969,-4.382812 -4.511719,-5.609375 -0.300781,-0.203125 -0.613281,-0.386718 -0.949219,-0.535156 -0.890625,-0.394531 -1.84375,-0.566406 -2.851562,-0.597656 -1.671875,-0.04687 -3.488282,0.296875 -5.367188,0.652344 -0.820312,0.152343 -1.652344,0.304687 -2.484375,0.429687 -0.05469,0.0039 -0.105469,0.01563 -0.15625,0.02344 -0.273437,0.03906 -0.542969,0.06641 -0.816406,0.09375 -0.1875,0.02344 -0.375,0.04687 -0.558594,0.0625 -0.277344,0.02344 -0.550781,0.03125 -0.828125,0.03906 -0.132812,0.0039 -0.265625,0.01953 -0.402344,0.01953 l -0.01172,0 c -0.01563,0 -0.02734,-0.0039 -0.03906,-0.0039 -0.09375,0 -0.1875,0.01172 -0.28125,0.0078 -0.621094,-0.01172 -1.25,-0.07813 -1.875,-0.164063 -0.02344,-0.0039 -0.04687,0 -0.07031,0 -0.109375,-0.01953 -0.21875,-0.04297 -0.328125,-0.0625 -0.457032,-0.07422 -0.914063,-0.15625 -1.367188,-0.25 -0.140625,-0.02734 -0.277344,-0.05469 -0.414062,-0.08594 -0.558594,-0.125 -1.121094,-0.253907 -1.671875,-0.386719 -2.800782,-0.667969 -5.445313,-1.300781 -7.570313,-0.484375 -2.125,0.816406 -3.667969,3.054687 -5.296875,5.425781 -0.796875,1.15625 -1.617187,2.335938 -2.539062,3.398438 -0.02734,0.03516 -0.05469,0.07031 -0.08203,0.101562 -0.1875,0.214844 -0.390625,0.40625 -0.589843,0.609375 -0.136719,0.140625 -0.269532,0.292969 -0.414063,0.429688 -0.01172,0.01172 -0.03125,0.02344 -0.04297,0.03516 -1.332031,1.234375 -2.964843,2.230469 -4.550781,3.195312 -2.617187,1.589844 -5.089844,3.089844 -6.144531,5.460938 z M 17.244269,-5.690175 4.998175,22.665294 c 0.910156,0.875 2.097656,1.707031 3.367187,2.578125 2.757813,1.898437 5.886719,4.050781 7.257813,7.625 1.371094,3.578125 0.488281,7.269531 -0.292969,10.527343 -0.402344,1.691407 -0.785156,3.289063 -0.8125,4.660157 -0.02344,1.3125 0.273438,2.886718 0.589844,4.550781 0.65625,3.460937 1.394531,7.386719 -0.292969,11.183594 -1.691406,3.796875 -5.105469,5.871093 -8.117187,7.699218 -1.445313,0.878907 -2.8125,1.710938 -3.773438,2.609375 C 1.92005,75.036387 0.990362,76.38795 0.00208125,77.821544 -1.896356,80.579356 -4.0487,83.708262 -7.622919,85.079356 c -3.570312,1.371094 -7.265625,0.488281 -10.523437,-0.292969 -1.691407,-0.402343 -3.289063,-0.785156 -4.660157,-0.8125 -1.304687,-0.03516 -2.886718,0.273438 -4.550781,0.589844 -3.464844,0.652344 -7.386719,1.398438 -11.183594,-0.292969 -3.796875,-1.691406 -5.871093,-5.105468 -7.699218,-8.117187 -0.882813,-1.445313 -1.710938,-2.8125 -2.609375,-3.773438 -0.9375,-1.003906 -2.289063,-1.933593 -3.722657,-2.921875 -2.761718,-1.894531 -5.886718,-4.050781 -7.261718,-7.625 -1.371094,-3.574218 -0.484375,-7.265625 0.292968,-10.523437 0.40625,-1.691406 0.789063,-3.289063 0.8125,-4.660156 0.02734,-1.316407 -0.269531,-2.886719 -0.585937,-4.550782 -0.65625,-3.460937 -1.398438,-7.386718 0.292969,-11.183593 1.6875,-3.796875 5.101562,-5.871094 8.117187,-7.699219 0.527344,-0.320313 1.035156,-0.636719 1.527344,-0.949219 L -61.45495,-5.690175 c -0.378906,-0.882813 -0.222656,-1.90625 0.410156,-2.628906 0.628906,-0.726563 1.621094,-1.027344 2.546875,-0.773438 l 13.679688,3.742188 6.652343,-12.527344 c 0.4375,-0.816406 1.289063,-1.328125 2.210938,-1.328125 0.03125,0 0.06641,0.0039 0.101562,0.0039 0.957032,0.03906 1.8125,0.625 2.191407,1.507813 L -22.103388,9.063731 -10.5487,-17.694081 c 0.382812,-0.882813 1.234375,-1.46875 2.195312,-1.507813 0.035157,0 0.070313,-0.0039 0.101563,-0.0039 0.921875,0 1.773437,0.511719 2.207031,1.328125 l 6.65625,12.527344 13.679688,-3.742188 c 0.925781,-0.253906 1.914062,0.046875 2.546875,0.773438 0.628906,0.722656 0.789062,1.746093 0.40625,2.628906 z m 0,0"
         transform="matrix(1,0,0,-1,109.8612,224.4192)"
         id="path19"
         inkscape:connector-curvature="0" />
    </g>
    <path
     class="mycolor"
       style="fill:none;stroke-width:6.5;stroke-linecap:butt;stroke-linejoin:miter;stroke-miterlimit:10;stroke-opacity:1"
       d="m -3.6875e-4,7.9375e-4 -65.76953125,0 0,200.37890625 144.5,0 0,-200.37890625 -40.351563,0"
       transform="matrix(1,0,0,-1,69.0199,203.6297)"
       id="path21"
       inkscape:connector-curvature="0" />
    <path
     class="mycolor"
       style="fill:none;stroke-width:6.5;stroke-linecap:butt;stroke-linejoin:miter;stroke-miterlimit:10;stroke-opacity:1"
       d="m 0.0015625,-0.0012375 -38.8320315,0 0,158.1093775 116.460938,0 0,-158.1093775 -14.332032,0"
       transform="matrix(1,0,0,-1,56.1,176.9597)"
       id="path23"
       inkscape:connector-curvature="0" />
    <path
     class="mycolor"
       style="fill:none;stroke-width:6.5;stroke-linecap:butt;stroke-linejoin:miter;stroke-miterlimit:10;stroke-opacity:1"
       d="m 116.16406,180.01362 -81.332029,0 0,17.33204 81.332029,0 z m 0,0"
       transform="matrix(1,0,0,-1,0,243.873)"
       id="path25"
       inkscape:connector-curvature="0" />
    <path
     class="mycolor"
       style="fill:none;;stroke-width:6.5;stroke-linecap:butt;stroke-linejoin:miter;stroke-miterlimit:10;stroke-opacity:1"
       d="m 0.00113125,-0.00124375 81.33203175,0"
       transform="matrix(1,0,0,-1,34.8309,88.5261)"
       id="path27"
       inkscape:connector-curvature="0" />
    <path
     class="mycolor"
       style="fill:none;stroke-width:6.5;stroke-linecap:butt;stroke-linejoin:miter;stroke-miterlimit:10;stroke-opacity:1"
       d="m 0.00113125,7e-4 81.33203175,0"
       transform="matrix(1,0,0,-1,34.8309,103.4382)"
       id="path29"
       inkscape:connector-curvature="0" />
    <path
     class="mycolor"
       style="fill:none;stroke-width:6.5;stroke-linecap:butt;stroke-linejoin:miter;stroke-miterlimit:10;stroke-opacity:1"
       d="m 0.00113125,-0.001225 81.33203175,0"
       transform="matrix(1,0,0,-1,34.8309,118.7019)"
       id="path31"
       inkscape:connector-curvature="0" />
  </g>
</svg>
