<?xml version="1.0" encoding="utf-8"?>
<!-- Generator: Adobe Illustrator 21.0.0, SVG Export Plug-In . SVG Version: 6.00 Build 0)  -->
<svg version="1.1" id="Layer_2" xmlns="http://www.w3.org/2000/svg" xmlns:xlink="http://www.w3.org/1999/xlink" x="0px" y="0px"
	 viewBox="0 0 121.2 105.7" style="enable-background:new 0 0 121.2 105.7;" xml:space="preserve">
<path class="mycolor" d="M121.2,0H0v92.4h67.8l-3.1,7.2c-0.2,0.5-0.1,1,0.2,1.4c0.3,0.4,0.9,0.5,1.4,0.4l5.7-1.6l2.8,5.2c0.2,0.4,0.7,0.7,1.2,0.7h0
	c0.5,0,1-0.3,1.2-0.8l4.7-11l4.7,11c0.2,0.5,0.7,0.8,1.2,0.8c0.5,0,0.9-0.3,1.2-0.7l2.8-5.2l5.7,1.6c0.5,0.1,1,0,1.4-0.4
	c0.3-0.4,0.4-0.9,0.2-1.4l-3.1-7.2h25.3V0z M94.4,66.2c-0.6-0.4-1.2-0.7-1.6-1.1c-0.4-0.4-0.8-1-1.2-1.6c-0.8-1.2-1.8-2.6-3.4-3.2
	c-1.6-0.6-3.2-0.2-4.7,0.1c-0.7,0.2-1.4,0.3-1.9,0.3c-0.5,0-1.2-0.1-1.9-0.2c-1.5-0.3-3.3-0.6-5,0.1c-1.7,0.8-2.6,2.3-3.4,3.6
	c-0.4,0.6-0.7,1.2-1.1,1.6c-0.4,0.4-1,0.8-1.6,1.2c-1.2,0.8-2.6,1.8-3.2,3.4c-0.1,0.2-0.1,0.4-0.2,0.7H18.8v-54h83.7v54h-4.1
	c-0.1-0.5-0.2-1-0.4-1.5C97.2,68,95.7,67,94.4,66.2z M114.7,85.9H96c0.9-0.7,1.8-1.5,2.3-2.7c0.6-1.6,0.2-3.2-0.1-4.7
	c-0.1-0.3-0.1-0.5-0.2-0.8h10.9v-67H12.3v67h53.6c0,0.4-0.1,0.9-0.2,1.4c-0.3,1.5-0.6,3.3,0.1,5c0.3,0.8,0.8,1.4,1.4,1.9H6.5V6.5
	h108.2V85.9z M97.4,22.1h-43v6.5h43V22.1z M97.4,33.4h-43v6.5h43V33.4z M97.4,44.6h-43v6.5h43V44.6z M35,22.1
	c-7.1,0-12.4,9.2-12.4,21.3c0,12.1,5.3,21.3,12.4,21.3s12.4-9.2,12.4-21.3C47.5,31.3,42.1,22.1,35,22.1z M35,58.2
	c-2.4,0-5.9-5.9-5.9-14.8s3.6-14.8,5.9-14.8S41,34.5,41,43.4S37.4,58.2,35,58.2z"/>
</svg>
