<?xml version="1.0" encoding="UTF-8" standalone="no"?>
<!-- Created with Inkscape (http://www.inkscape.org/) -->

<svg
   xmlns:dc="http://purl.org/dc/elements/1.1/"
   xmlns:cc="http://creativecommons.org/ns#"
   xmlns:rdf="http://www.w3.org/1999/02/22-rdf-syntax-ns#"
   xmlns:svg="http://www.w3.org/2000/svg"
   xmlns="http://www.w3.org/2000/svg"
   xmlns:sodipodi="http://sodipodi.sourceforge.net/DTD/sodipodi-0.dtd"
   xmlns:inkscape="http://www.inkscape.org/namespaces/inkscape"
   id="svg2"
   version="1.1"
   inkscape:version="0.91 r13725"
   xml:space="preserve"
   width="39.930626"
   height="53"
   viewBox="0 0 39.930626 53"
   sodipodi:docname="medal.svg"><metadata
     id="metadata8"><rdf:RDF><cc:Work
         rdf:about=""><dc:format>image/svg+xml</dc:format><dc:type
           rdf:resource="http://purl.org/dc/dcmitype/StillImage" /><dc:title></dc:title></cc:Work></rdf:RDF></metadata><defs
     id="defs6"><clipPath
       clipPathUnits="userSpaceOnUse"
       id="clipPath16"><path
         d="m 0,105 79.108,0 0,-105 L 0,0 0,105 Z"
         id="path18"
         inkscape:connector-curvature="0" /></clipPath></defs><sodipodi:namedview
     pagecolor="#ffffff"
     bordercolor="#666666"
     borderopacity="1"
     objecttolerance="10"
     gridtolerance="10"
     guidetolerance="10"
     inkscape:pageopacity="0"
     inkscape:pageshadow="2"
     inkscape:window-width="742"
     inkscape:window-height="480"
     id="namedview4"
     showgrid="false"
     fit-margin-top="0"
     fit-margin-left="0"
     fit-margin-right="0"
     fit-margin-bottom="0"
     inkscape:zoom="1.7980952"
     inkscape:cx="49.442622"
     inkscape:cy="65.625"
     inkscape:window-x="0"
     inkscape:window-y="0"
     inkscape:window-maximized="0"
     inkscape:current-layer="g10" /><g
     id="g10"
     inkscape:groupmode="layer"
     inkscape:label="Vector Smart Object16"
     transform="matrix(1.25,0,0,-1.25,-1.9187974e-4,53)"><g
       id="g12"
       transform="matrix(0.40380952,0,0,0.40380952,9.1517499e-5,0)"><g
         id="g14"
         clip-path="url(#clipPath16)"><g
           id="g20"
           transform="translate(61.6582,19.2036)"><path
             d="m 0,0 c -1.126,0.308 -2.319,-0.205 -2.868,-1.239 l -5.152,-9.698 -9.126,21.13 c 0.098,-0.018 0.196,-0.036 0.295,-0.055 3.463,-0.654 7.388,-1.394 11.184,0.297 0.459,0.204 0.89,0.436 1.301,0.687 0.135,0.082 0.256,0.177 0.386,0.263 0.268,0.179 0.535,0.358 0.784,0.553 0.14,0.11 0.268,0.229 0.402,0.344 0.222,0.19 0.444,0.38 0.652,0.582 0.128,0.125 0.248,0.256 0.372,0.384 0.199,0.208 0.396,0.416 0.583,0.632 0.111,0.129 0.218,0.261 0.325,0.392 0.189,0.231 0.374,0.463 0.551,0.7 0.09,0.12 0.178,0.241 0.265,0.362 0.192,0.268 0.38,0.535 0.563,0.807 0.056,0.085 0.113,0.169 0.169,0.255 0.323,0.492 0.638,0.985 0.937,1.473 L 10.593,-2.898 0,0 Z m -36.188,-10.937 -5.152,9.698 c -0.443,0.832 -1.301,1.328 -2.208,1.328 -0.219,0 -0.441,-0.029 -0.66,-0.089 l -10.593,-2.898 9.32,21.577 c 0.124,-0.169 0.249,-0.34 0.374,-0.515 0.076,-0.107 0.152,-0.209 0.229,-0.319 0.165,-0.236 0.332,-0.478 0.5,-0.721 0.055,-0.081 0.11,-0.159 0.166,-0.24 1.899,-2.759 4.051,-5.887 7.626,-7.259 0.006,-0.002 0.012,-0.003 0.019,-0.006 0.36,-0.138 0.722,-0.249 1.085,-0.344 0.129,-0.033 0.259,-0.056 0.389,-0.084 0.24,-0.053 0.48,-0.104 0.721,-0.14 0.152,-0.023 0.304,-0.038 0.456,-0.055 0.219,-0.024 0.437,-0.046 0.655,-0.058 0.16,-0.009 0.319,-0.015 0.477,-0.019 0.096,-0.002 0.192,-0.01 0.287,-0.01 0.073,0 0.145,0.01 0.218,0.011 0.441,0.007 0.879,0.029 1.315,0.071 0.057,0.006 0.114,0.008 0.172,0.013 0.502,0.053 1,0.127 1.493,0.214 0.107,0.018 0.212,0.038 0.318,0.058 0.427,0.079 0.849,0.165 1.266,0.257 0.067,0.015 0.134,0.029 0.201,0.044 0.068,0.015 0.138,0.029 0.206,0.045 l -8.88,-20.559 z m -18.266,43.886 c -1.054,2.369 -0.517,5.211 0.053,8.22 0.348,1.84 0.708,3.743 0.673,5.576 -0.035,1.913 -0.5,3.853 -0.949,5.729 -0.67,2.798 -1.303,5.442 -0.487,7.568 0.817,2.127 3.056,3.668 5.426,5.299 1.59,1.094 3.233,2.225 4.54,3.623 1.252,1.339 2.257,2.994 3.229,4.594 1.591,2.617 3.093,5.089 5.462,6.145 l 0,0 c 2.37,1.053 5.211,0.516 8.22,-0.054 1.84,-0.348 3.747,-0.701 5.576,-0.673 1.913,0.035 3.853,0.5 5.729,0.949 2.799,0.671 5.442,1.304 7.568,0.487 2.127,-0.817 3.668,-3.056 5.3,-5.426 1.093,-1.59 2.224,-3.233 3.622,-4.54 1.339,-1.252 2.994,-2.257 4.594,-3.23 2.617,-1.59 5.089,-3.091 6.144,-5.461 1.055,-2.369 0.517,-5.211 -0.053,-8.22 -0.348,-1.84 -0.708,-3.743 -0.673,-5.575 0.035,-1.914 0.5,-3.854 0.949,-5.73 0.67,-2.798 1.303,-5.441 0.487,-7.568 C 10.139,32.535 7.9,30.994 5.53,29.363 3.94,28.27 2.297,27.139 0.99,25.741 0.218,24.915 -0.455,23.965 -1.089,22.987 -1.114,22.948 -1.139,22.909 -1.165,22.87 -1.532,22.299 -1.89,21.721 -2.239,21.146 -3.605,18.898 -4.91,16.763 -6.751,15.535 c -0.303,-0.201 -0.616,-0.384 -0.95,-0.533 -0.889,-0.396 -1.844,-0.567 -2.85,-0.597 -1.675,-0.05 -3.49,0.294 -5.37,0.65 -0.819,0.155 -1.652,0.306 -2.485,0.429 -0.052,0.008 -0.102,0.017 -0.154,0.024 -0.273,0.039 -0.544,0.066 -0.816,0.096 -0.187,0.021 -0.374,0.045 -0.561,0.061 -0.277,0.023 -0.551,0.03 -0.826,0.04 -0.133,0.004 -0.268,0.019 -0.401,0.02 l -0.015,0 c -0.013,0 -0.025,-0.005 -0.038,-0.005 -0.093,10e-4 -0.187,0.01 -0.279,0.009 -0.624,-0.012 -1.25,-0.08 -1.876,-0.167 -0.024,-0.002 -0.047,0.003 -0.07,0 -0.111,-0.016 -0.221,-0.043 -0.331,-0.061 -0.457,-0.073 -0.913,-0.155 -1.367,-0.251 -0.138,-0.028 -0.274,-0.054 -0.411,-0.084 -0.562,-0.124 -1.121,-0.254 -1.675,-0.387 -2.798,-0.67 -5.443,-1.303 -7.568,-0.486 -2.127,0.816 -3.668,3.056 -5.299,5.426 -0.795,1.156 -1.614,2.337 -2.537,3.4 -0.029,0.033 -0.055,0.069 -0.084,0.102 -0.187,0.213 -0.39,0.407 -0.587,0.608 -0.139,0.142 -0.27,0.294 -0.415,0.429 l 0,0.001 c 0,0 0,0 -10e-4,0 -0.013,0.013 -0.03,0.024 -0.043,0.037 -1.331,1.234 -2.966,2.23 -4.55,3.192 -2.617,1.59 -5.089,3.092 -6.144,5.461 M 17.245,-5.69 4.998,22.665 c 0.909,0.874 2.098,1.707 3.366,2.579 2.76,1.899 5.887,4.051 7.26,7.626 1.372,3.575 0.488,7.267 -0.292,10.525 -0.405,1.691 -0.788,3.288 -0.813,4.659 -0.025,1.316 0.273,2.887 0.587,4.551 0.656,3.462 1.398,7.387 -0.293,11.184 -1.689,3.797 -5.103,5.871 -8.114,7.701 -1.448,0.879 -2.815,1.709 -3.776,2.609 -1.002,0.936 -1.933,2.289 -2.919,3.721 -1.899,2.76 -4.051,5.888 -7.626,7.26 -3.573,1.372 -7.266,0.489 -10.524,-0.292 -1.691,-0.405 -3.289,-0.787 -4.659,-0.813 -1.306,-0.035 -2.888,0.272 -4.552,0.588 -3.464,0.655 -7.388,1.398 -11.184,-0.293 l 0,0 c -3.796,-1.69 -5.871,-5.104 -7.701,-8.116 -0.879,-1.446 -1.71,-2.814 -2.609,-3.775 -0.936,-1.002 -2.289,-1.933 -3.721,-2.919 -2.76,-1.898 -5.887,-4.051 -7.26,-7.626 -1.372,-3.574 -0.487,-7.267 0.292,-10.524 0.405,-1.691 0.788,-3.289 0.813,-4.659 0.025,-1.317 -0.272,-2.888 -0.587,-4.552 -0.655,-3.463 -1.398,-7.387 0.293,-11.183 1.689,-3.797 5.103,-5.872 8.115,-7.701 0.528,-0.321 1.036,-0.635 1.528,-0.949 L -61.453,-5.69 c -0.381,-0.883 -0.223,-1.905 0.407,-2.631 0.63,-0.726 1.622,-1.026 2.547,-0.772 l 13.681,3.742 6.654,-12.525 c 0.435,-0.819 1.286,-1.328 2.208,-1.328 0.034,0 0.067,0.001 0.101,0.002 0.96,0.039 1.813,0.625 2.194,1.507 l 11.557,26.757 11.557,-26.757 c 0.381,-0.882 1.234,-1.468 2.194,-1.507 0.034,-10e-4 0.068,-0.002 0.102,-0.002 0.921,0 1.772,0.509 2.207,1.328 L 0.61,-5.351 14.291,-9.093 c 0.925,-0.252 1.916,0.047 2.547,0.772 0.63,0.726 0.788,1.748 0.407,2.631"
             style="fill:#ffffff;fill-opacity:1;fill-rule:nonzero;stroke:none"
             id="path22"
             inkscape:connector-curvature="0" /></g></g></g></g></svg>