<?xml version="1.0" encoding="UTF-8" standalone="no"?>
<!-- Created with Inkscape (http://www.inkscape.org/) -->

<svg
   xmlns:dc="http://purl.org/dc/elements/1.1/"
   xmlns:cc="http://creativecommons.org/ns#"
   xmlns:rdf="http://www.w3.org/1999/02/22-rdf-syntax-ns#"
   xmlns:svg="http://www.w3.org/2000/svg"
   xmlns="http://www.w3.org/2000/svg"
   xmlns:sodipodi="http://sodipodi.sourceforge.net/DTD/sodipodi-0.dtd"
   xmlns:inkscape="http://www.inkscape.org/namespaces/inkscape"
   id="svg2"
   version="1.1"
   inkscape:version="0.91 r13725"
   xml:space="preserve"
   width="53.496094"
   height="38"
   viewBox="0 0 53.496094 38"
   sodipodi:docname="payment.svg"><metadata
     id="metadata8"><rdf:RDF><cc:Work
         rdf:about=""><dc:format>image/svg+xml</dc:format><dc:type
           rdf:resource="http://purl.org/dc/dcmitype/StillImage" /><dc:title></dc:title></cc:Work></rdf:RDF></metadata><defs
     id="defs6"><clipPath
       clipPathUnits="userSpaceOnUse"
       id="clipPath16"><path
         d="m 0,402.899 567.198,0 L 567.198,0 0,0 0,402.899 Z"
         id="path18"
         inkscape:connector-curvature="0" /></clipPath></defs><sodipodi:namedview
     pagecolor="#ffffff"
     bordercolor="#666666"
     borderopacity="1"
     objecttolerance="10"
     gridtolerance="10"
     guidetolerance="10"
     inkscape:pageopacity="0"
     inkscape:pageshadow="2"
     inkscape:window-width="1246"
     inkscape:window-height="765"
     id="namedview4"
     showgrid="false"
     fit-margin-top="0"
     fit-margin-left="0"
     fit-margin-right="0"
     fit-margin-bottom="0"
     inkscape:zoom="0.4686038"
     inkscape:cx="354.49875"
     inkscape:cy="251.81188"
     inkscape:window-x="0"
     inkscape:window-y="0"
     inkscape:window-maximized="0"
     inkscape:current-layer="g10" /><g
     id="g10"
     inkscape:groupmode="layer"
     inkscape:label="Vector Smart Object11"
     transform="matrix(1.25,0,0,-1.25,0,37.999998)"><g
       id="g12"
       transform="scale(0.07545315,0.07545315)"><g
         id="g14"
         ><path
         class="mycolor"
           d="m 545.916,190.085 -127.688,0 0,42.563 127.688,0 0,-42.563 z m -42.562,170.252 -255.377,0 c 0,21.281 9.529,21.281 21.281,21.281 l 234.096,0 0,-21.281 z m 42.562,0 -21.281,0 0,23.941 c 0,11.763 -9.53,18.621 -21.281,18.621 l -234.76,0 c -23.144,0 -41.899,-16.086 -41.899,-39.238 l 0,-115.538 c 4.518,2.31 9.996,3.026 14.581,1.981 2.633,-0.6 4.857,-1.724 6.701,-3.214 l 0,92.165 297.939,0 0,-85.126 -127.688,0 c -11.751,0 -21.282,-6.859 -21.282,-18.621 l 0,-45.223 c 0,-11.762 9.531,-21.282 21.282,-21.282 l 127.688,0 0,-85.125 -176.938,0 c -0.147,-2.094 -0.193,-4.187 -0.117,-6.295 1.457,-3.361 1.953,-6.932 1.438,-10.427 0.322,-1.523 0.662,-3.043 1.017,-4.559 l 174.6,0 c 11.752,0 21.282,9.519 21.282,21.281 l 0,258.037 c 0,11.762 -9.53,18.622 -21.282,18.622"
           style="fill-opacity:1;fill-rule:nonzero;stroke:none"
           id="path20"
           inkscape:connector-curvature="0" /><g
           id="g22"
           transform="translate(362.2119,210.356)"><path
           class="mycolor"
             d="m 0,0 -342.677,0 0,11.674 c 0,7.968 6.484,14.45 14.451,14.45 l 313.773,0 C -6.485,26.124 0,19.642 0,11.674 L 0,0 Z m 0,-46.558 -342.677,0 0,28.522 342.677,0 0,-28.522 z m 0,-129.813 c 0,-7.968 -6.485,-14.449 -14.453,-14.449 l -313.773,0 c -7.967,0 -14.451,6.481 -14.451,14.449 l 0,111.778 342.677,0 0,-111.778 z m -14.453,220.53 -313.773,0 c -17.914,0 -32.486,-14.573 -32.486,-32.485 l 0,-188.045 c 0,-17.912 14.572,-32.485 32.486,-32.485 l 313.773,0 c 17.915,0 32.488,14.573 32.488,32.485 l 0,188.045 c 0,17.912 -14.573,32.485 -32.488,32.485"
             style="fill-opacity:1;fill-rule:nonzero;stroke:none"
             id="path24"
             inkscape:connector-curvature="0" /></g><g
           id="g26"
           transform="translate(362.2119,210.356)"><path
           class="mycolor"
             d="m 0,0 -342.677,0 0,11.674 c 0,7.968 6.484,14.45 14.451,14.45 l 313.773,0 C -6.485,26.124 0,19.642 0,11.674 L 0,0 Z m 0,-46.558 -342.677,0 0,28.522 342.677,0 0,-28.522 z m 0,-129.813 c 0,-7.968 -6.485,-14.449 -14.453,-14.449 l -313.773,0 c -7.967,0 -14.451,6.481 -14.451,14.449 l 0,111.778 342.677,0 0,-111.778 z m -14.453,220.53 -313.773,0 c -17.914,0 -32.486,-14.573 -32.486,-32.485 l 0,-188.045 c 0,-17.912 14.572,-32.485 32.486,-32.485 l 313.773,0 c 17.915,0 32.488,14.573 32.488,32.485 l 0,188.045 c 0,17.912 -14.573,32.485 -32.488,32.485 z"
             style="fill:none;stroke-width:3;stroke-linecap:butt;stroke-linejoin:miter;stroke-miterlimit:10;stroke-dasharray:none;stroke-opacity:1"
             id="path28"
             inkscape:connector-curvature="0" /></g><g
           id="g30"
           transform="translate(52.9737,99.2056)"><path
           class="mycolor"
             d="m 0,0 103.402,0 c 4.982,0 9.018,4.037 9.018,9.018 0,4.981 -4.036,9.017 -9.018,9.017 L 0,18.035 c -4.981,0 -9.019,-4.036 -9.019,-9.017 C -9.019,4.037 -4.981,0 0,0"
             style="fill-opacity:1;fill-rule:nonzero;stroke:none"
             id="path32"
             inkscape:connector-curvature="0" /></g><g
           id="g34"
           transform="translate(52.9737,99.2056)"><path
           class="mycolor"
             d="m 0,0 103.402,0 c 4.982,0 9.018,4.037 9.018,9.018 0,4.981 -4.036,9.017 -9.018,9.017 L 0,18.035 c -4.981,0 -9.019,-4.036 -9.019,-9.017 C -9.019,4.037 -4.981,0 0,0 Z"
             style="fill:none;stroke-width:3;stroke-linecap:butt;stroke-linejoin:miter;stroke-miterlimit:10;stroke-dasharray:none;stroke-opacity:1"
             id="path36"
             inkscape:connector-curvature="0" /></g><g
           id="g38"
           transform="translate(52.9737,52.651)"><path
           class="mycolor"
             d="m 0,0 103.402,0 c 4.982,0 9.018,4.037 9.018,9.018 0,4.981 -4.036,9.018 -9.018,9.018 L 0,18.036 c -4.981,0 -9.019,-4.037 -9.019,-9.018 C -9.019,4.037 -4.981,0 0,0"
             style="fill-opacity:1;fill-rule:nonzero;stroke:none"
             id="path40"
             inkscape:connector-curvature="0" /></g><g
           id="g42"
           transform="translate(52.9737,52.651)"><path
           class="mycolor"
             d="m 0,0 103.402,0 c 4.982,0 9.018,4.037 9.018,9.018 0,4.981 -4.036,9.018 -9.018,9.018 L 0,18.036 c -4.981,0 -9.019,-4.037 -9.019,-9.018 C -9.019,4.037 -4.981,0 0,0 Z"
             style="fill:none;stroke-width:3;stroke-linecap:butt;stroke-linejoin:miter;stroke-miterlimit:10;stroke-dasharray:none;stroke-opacity:1"
             id="path44"
             inkscape:connector-curvature="0" /></g></g></g></g></svg>