<?xml version="1.0" encoding="UTF-8" standalone="no"?>
<!-- Generator: Adobe Illustrator 21.0.0, SVG Export Plug-In . SVG Version: 6.00 Build 0)  -->

<svg
   xmlns:dc="http://purl.org/dc/elements/1.1/"
   xmlns:cc="http://creativecommons.org/ns#"
   xmlns:rdf="http://www.w3.org/1999/02/22-rdf-syntax-ns#"
   xmlns:svg="http://www.w3.org/2000/svg"
   xmlns="http://www.w3.org/2000/svg"
   xmlns:sodipodi="http://sodipodi.sourceforge.net/DTD/sodipodi-0.dtd"
   xmlns:inkscape="http://www.inkscape.org/namespaces/inkscape"
   version="1.1"
   id="Layer_1"
   x="0px"
   y="0px"
   viewBox="0 0 50.121085 33"
   xml:space="preserve"
   inkscape:version="0.91 r13725"
   sodipodi:docname="plane.svg"
   width="50.121086"
   height="33"><metadata
     id="metadata15"><rdf:RDF><cc:Work
         rdf:about=""><dc:format>image/svg+xml</dc:format><dc:type
           rdf:resource="http://purl.org/dc/dcmitype/StillImage" /><dc:title></dc:title></cc:Work></rdf:RDF></metadata><defs
     id="defs13" /><sodipodi:namedview
     pagecolor="#ffffff"
     bordercolor="#666666"
     borderopacity="1"
     objecttolerance="10"
     gridtolerance="10"
     guidetolerance="10"
     inkscape:pageopacity="0"
     inkscape:pageshadow="2"
     inkscape:window-width="1261"
     inkscape:window-height="658"
     id="namedview11"
     showgrid="false"
     fit-margin-top="0"
     fit-margin-left="0"
     fit-margin-right="0"
     fit-margin-bottom="0"
     inkscape:zoom="5.7738093"
     inkscape:cx="25.176641"
     inkscape:cy="16.5"
     inkscape:window-x="0"
     inkscape:window-y="0"
     inkscape:window-maximized="0"
     inkscape:current-layer="Layer_1" /><style
     type="text/css"
     id="style3">
</style><g
     id="g5"
     transform="matrix(1,0,0,0.99564197,-0.02335932,0.14381495)"><path
       d="m 24.9,33 c -0.2,0 -0.4,-0.2 -0.4,-0.5 0.2,-1.2 0.5,-4.3 0.7,-5.6 0.1,-1.1 0.2,-2.2 0.3,-3.3 0.1,-1.1 0.3,-2.2 0.4,-3.3 0.1,-1 0.2,-2.1 0.3,-3.1 l 0,0 c 0,-0.1 -0.1,-0.2 -0.3,-0.2 -0.5,0.2 -0.9,0.4 -1.3,0.6 -3.2,1.6 -6.5,2.6 -9.9,3.4 -1.4,0.3 -2.9,0.5 -4.4,0.6 -0.6,0.1 -1.2,0.1 -1.8,0 C 8.1,21.5 7.6,21.3 7.3,21 5.5,19.2 3.7,17.4 1.9,15.6 1.3,15 0.7,14.3 0.1,13.7 c 0,0 0,0 0,-0.1 -0.2,-0.5 0,-1 0.5,-1.2 C 0.8,12.3 1.1,12.2 1.4,12.1 1.6,12 1.8,12 2,12 c 0.7,0.2 1.4,0.4 2,0.6 2.2,0.7 4.5,1.5 6.7,2.2 0.2,0.1 0.5,0 0.7,-0.1 2.3,-1.1 4.6,-2.2 6.8,-3.3 2.5,-1.2 5,-2.4 7.5,-3.6 2.5,-1.2 5,-2.4 7.4,-3.6 2.2,-1.1 4.4,-2.1 6.6,-3.2 1,-0.5 2,-1 3.1,-1.1 0.3,0 3.6,-0.1 4,0 1.4,0.3 2.8,0.5 3.3,2.1 0,0 0.1,0.7 0,0.9 -0.3,1.3 -1.4,2.3 -2.4,3 -0.9,0.7 -2,1.1 -3,1.6 -0.9,0.5 -1.8,0.9 -2.8,1.3 -1.6,0.8 -3.3,1.6 -4.9,2.3 -0.4,0.2 -0.6,0.4 -0.7,0.8 -1.5,4.5 -3.1,8.9 -4.7,13.4 -0.7,2 -2.1,6.1 -2.4,7.1 -0.1,0.2 -0.2,0.3 -0.4,0.3 L 24.9,33 Z M 47.6,3.3 C 47.8,3 47.7,2.5 47.3,2.4 46.8,2.3 46.3,2.2 45.8,2.2 44.6,2.1 43.4,2.1 42.2,2.6 41,3.1 39.8,3.7 38.6,4.3 c -2.5,1.2 -5,2.4 -7.4,3.6 -4.3,2 -8.6,4.1 -12.9,6.1 -1.9,0.9 -3.9,1.9 -5.8,2.8 -0.6,0.3 -1.3,0.5 -2.1,0.2 C 9,16.5 7.5,16.1 6,15.6 5.6,15.5 5.3,15.4 4.8,15.3 c 0.2,0.3 4.4,4.3 5.4,4 0,0 0.1,0 0.1,0 1.5,-0.2 3,-0.4 4.4,-0.7 3.4,-0.8 6.7,-2 9.9,-3.6 0.6,-0.3 1.3,-0.4 2.1,-0.3 1.3,0.3 1.7,1.6 1.7,2.6 0,0.5 -0.1,1 -0.2,1.5 -0.1,1.1 -0.2,2.2 -0.3,3.3 -0.1,1.1 -0.2,2.3 -0.4,3.4 -0.1,1.1 -0.2,2.2 -0.3,3.3 -0.1,1 -0.2,2 -0.3,3.1 0,0 0,0.1 0.1,0.1 l 0,0 c 0,0 0.1,0 0.1,0 0.1,-0.2 0.3,-0.3 0.3,-0.5 0.8,-2.4 1.7,-4.7 2.5,-7.1 1.5,-4.3 3.1,-8.7 4.5,-13 0.4,-1.1 1,-1.7 2,-2.2 3.1,-1.4 6.1,-2.9 9.2,-4.4 0.8,-0.3 1.5,-0.8 2,-1.5 z"
       id="path7"
       inkscape:connector-curvature="0"
       class="mycolor"
       style="stroke:none;" /><path
       d="M 26.7,5.1 C 26,5.4 25.4,5.7 24.8,6 23.3,6.7 21.7,7.5 20.2,8.2 19.8,8.4 19.4,8.6 19,8.7 18.9,8.8 18.6,8.7 18.5,8.6 16.3,7.4 14.1,6 12,4.6 11.6,4.3 11.2,4.1 10.8,3.8 10.3,3.5 10.3,3.2 10.8,3 c 1,-0.5 2,-0.9 2.9,-1.4 1.2,-0.8 2.3,-0.3 3.3,0.1 1.8,0.6 3.7,1.3 5.5,2 1.3,0.4 2.5,0.9 3.8,1.3 0.2,0 0.2,0 0.4,0.1 z m -6,0.4 C 20.6,5.4 20.5,5.4 20.5,5.3 18.8,4.7 17.1,4.1 15.4,3.5 c -0.1,0 -0.3,0 -0.5,0.1 0,0 0,0.1 0,0.1 1.3,0.8 2.6,1.7 3.9,2.5 0.1,0.1 0.3,0.1 0.4,0 0.4,-0.2 0.9,-0.5 1.5,-0.7 z"
       id="path9"
       inkscape:connector-curvature="0"
       class="mycolor"
       style="stroke:none;" /></g></svg>