<?xml version="1.0" encoding="UTF-8" standalone="no"?>
<!-- Created with Inkscape (http://www.inkscape.org/) -->

<svg
   xmlns:dc="http://purl.org/dc/elements/1.1/"
   xmlns:cc="http://creativecommons.org/ns#"
   xmlns:rdf="http://www.w3.org/1999/02/22-rdf-syntax-ns#"
   xmlns:svg="http://www.w3.org/2000/svg"
   xmlns="http://www.w3.org/2000/svg"
   xmlns:sodipodi="http://sodipodi.sourceforge.net/DTD/sodipodi-0.dtd"
   xmlns:inkscape="http://www.inkscape.org/namespaces/inkscape"
   id="svg2"
   version="1.1"
   inkscape:version="0.91 r13725"
   xml:space="preserve"
   width="47.069145"
   height="47"
   viewBox="0 0 47.069145 47.000001"
   sodipodi:docname="responses.svg"><metadata
     id="metadata8"><rdf:RDF><cc:Work
         rdf:about=""><dc:format>image/svg+xml</dc:format><dc:type
           rdf:resource="http://purl.org/dc/dcmitype/StillImage" /><dc:title></dc:title></cc:Work></rdf:RDF></metadata><defs
     id="defs6"><clipPath
       clipPathUnits="userSpaceOnUse"
       id="clipPath16"><path
         d="m 0,104.61 104.764,0 L 104.764,0 0,0 0,104.61 Z"
         id="path18"
         inkscape:connector-curvature="0" /></clipPath></defs><sodipodi:namedview
     pagecolor="#ffffff"
     bordercolor="#666666"
     borderopacity="1"
     objecttolerance="10"
     gridtolerance="10"
     guidetolerance="10"
     inkscape:pageopacity="0"
     inkscape:pageshadow="2"
     inkscape:window-width="742"
     inkscape:window-height="480"
     id="namedview4"
     showgrid="false"
     fit-margin-top="0"
     fit-margin-left="0"
     fit-margin-right="0"
     fit-margin-bottom="0"
     inkscape:zoom="1.8047988"
     inkscape:cx="65.477501"
     inkscape:cy="65.380877"
     inkscape:window-x="0"
     inkscape:window-y="0"
     inkscape:window-maximized="0"
     inkscape:current-layer="g10" /><g
     id="g10"
     inkscape:groupmode="layer"
     inkscape:label="Vector Smart Object12"
     transform="matrix(1.25,0,0,-1.25,0,47.000376)"><g
       id="g12"
       transform="matrix(0.3594313,0,0,0.3594313,0,1.9217061e-4)"><g
         id="g14"
         ><g
           id="g20"
           transform="translate(99.7636,58.7153)"><path
           class="mycolor"
             d="m 0,0 -6.526,0 c -1.381,0 -2.5,-1.119 -2.5,-2.5 l 0,-9.11 -10.878,10.878 C -20.373,-0.263 -21.009,0 -21.672,0 l -14.393,0 c -0.002,0 -0.003,0 -0.005,0 l -20.123,0 0,40.895 L 0,40.895 0,0 Z m -38.57,-38.57 -34.522,0 c -0.663,0 -1.299,-0.263 -1.767,-0.733 l -10.878,-10.877 0,9.11 c 0,1.381 -1.119,2.5 -2.5,2.5 l -6.527,0 0,40.895 32.839,0 0.758,-5.186 c 0.004,-0.025 0.013,-0.048 0.018,-0.072 0.012,-0.073 0.032,-0.142 0.05,-0.213 0.023,-0.083 0.046,-0.165 0.077,-0.244 0.025,-0.067 0.054,-0.131 0.085,-0.194 0.038,-0.078 0.078,-0.153 0.123,-0.225 0.036,-0.058 0.074,-0.115 0.115,-0.17 0.051,-0.069 0.105,-0.135 0.164,-0.199 0.045,-0.05 0.091,-0.098 0.139,-0.144 0.065,-0.06 0.132,-0.113 0.202,-0.166 0.052,-0.04 0.105,-0.081 0.162,-0.117 0.075,-0.048 0.155,-0.088 0.235,-0.128 0.059,-0.029 0.114,-0.06 0.175,-0.084 0.093,-0.037 0.189,-0.063 0.287,-0.089 0.054,-0.015 0.105,-0.035 0.162,-0.046 0.155,-0.03 0.316,-0.048 0.48,-0.048 l 20.123,0 0,-33.57 z m 41.07,84.465 -61.193,0 c -1.381,0 -2.5,-1.119 -2.5,-2.5 l 0,-36.07 -36.071,0 c -1.381,0 -2.5,-1.119 -2.5,-2.5 l 0,-45.895 c 0,-1.381 1.119,-2.5 2.5,-2.5 l 6.527,0 0,-12.645 c 0,-1.012 0.609,-1.923 1.543,-2.31 0.309,-0.128 0.634,-0.19 0.956,-0.19 0.651,0 1.29,0.254 1.768,0.732 l 14.413,14.413 35.987,0 c 1.381,0 2.5,1.119 2.5,2.5 l 0,36.07 10.863,0 14.413,-14.413 c 0.479,-0.479 1.117,-0.733 1.769,-0.733 0.321,0 0.646,0.063 0.956,0.191 0.933,0.387 1.543,1.298 1.543,2.309 L -4.026,-5 2.5,-5 C 3.881,-5 5,-3.881 5,-2.5 l 0,45.895 c 0,1.381 -1.119,2.5 -2.5,2.5"
             style="fill-opacity:1;fill-rule:nonzero;stroke:none"
             id="path22"
             inkscape:connector-curvature="0" /></g><g
           id="g24"
           transform="translate(53.75,87.3735)"><path
           class="mycolor"
             d="m 0,0 35.833,0 c 1.381,0 2.5,1.119 2.5,2.5 0,1.381 -1.119,2.5 -2.5,2.5 L 0,5 C -1.381,5 -2.5,3.881 -2.5,2.5 -2.5,1.119 -1.381,0 0,0"
             style="fill-opacity:1;fill-rule:nonzero;stroke:none"
             id="path26"
             inkscape:connector-curvature="0" /></g><g
           id="g28"
           transform="translate(53.75,76.707)"><path
           class="mycolor"
             d="m 0,0 35.833,0 c 1.381,0 2.5,1.119 2.5,2.5 0,1.381 -1.119,2.5 -2.5,2.5 L 0,5 C -1.381,5 -2.5,3.881 -2.5,2.5 -2.5,1.119 -1.381,0 0,0"
             style="fill-opacity:1;fill-rule:nonzero;stroke:none"
             id="path30"
             inkscape:connector-curvature="0" /></g><g
           id="g32"
           transform="translate(53.75,66.04)"><path
           class="mycolor"
             d="m 0,0 35.833,0 c 1.381,0 2.5,1.119 2.5,2.5 0,1.381 -1.119,2.5 -2.5,2.5 L 0,5 C -1.381,5 -2.5,3.881 -2.5,2.5 -2.5,1.119 -1.381,0 0,0"
             style="fill-opacity:1;fill-rule:nonzero;stroke:none"
             id="path34"
             inkscape:connector-curvature="0" /></g></g></g></g></svg>