<?xml version="1.0" encoding="UTF-8" standalone="no"?>
<!-- Generator: Adobe Illustrator 21.0.0, SVG Export Plug-In . SVG Version: 6.00 Build 0)  -->

<svg
   xmlns:dc="http://purl.org/dc/elements/1.1/"
   xmlns:cc="http://creativecommons.org/ns#"
   xmlns:rdf="http://www.w3.org/1999/02/22-rdf-syntax-ns#"
   xmlns:svg="http://www.w3.org/2000/svg"
   xmlns="http://www.w3.org/2000/svg"
   xmlns:sodipodi="http://sodipodi.sourceforge.net/DTD/sodipodi-0.dtd"
   xmlns:inkscape="http://www.inkscape.org/namespaces/inkscape"
   version="1.1"
   id="Layer_1"
   x="0px"
   y="0px"
   viewBox="0 0 66.999999 44.115295"
   xml:space="preserve"
   inkscape:version="0.91 r13725"
   sodipodi:docname="tickets.svg"
   width="67"
   height="44.115295"><metadata
     id="metadata11"><rdf:RDF><cc:Work
         rdf:about=""><dc:format>image/svg+xml</dc:format><dc:type
           rdf:resource="http://purl.org/dc/dcmitype/StillImage" /><dc:title></dc:title></cc:Work></rdf:RDF></metadata><defs
     id="defs9" /><sodipodi:namedview
     pagecolor="#ffffff"
     bordercolor="#666666"
     borderopacity="1"
     objecttolerance="10"
     gridtolerance="10"
     guidetolerance="10"
     inkscape:pageopacity="0"
     inkscape:pageshadow="2"
     inkscape:window-width="1448"
     inkscape:window-height="800"
     id="namedview7"
     showgrid="false"
     fit-margin-top="0"
     fit-margin-left="0"
     fit-margin-right="0"
     fit-margin-bottom="0"
     inkscape:zoom="4.16309"
     inkscape:cx="35.033346"
     inkscape:cy="23"
     inkscape:window-x="0"
     inkscape:window-y="0"
     inkscape:window-maximized="0"
     inkscape:current-layer="Layer_1" /><style
     type="text/css"
     id="style3">
</style><path
     class="st0"
     d="m 62.5,10.7 -0.2,0 -1.1,-5 C 60.8,3.8 59.6,2.1 57.9,1.1 56.2,0.1 54.2,-0.3 52.3,0.2 L 5.7,11 c -4,0.9 -6.5,4.9 -5.6,8.9 l 4.6,19.9 c 0.4,1.9 1.6,3.6 3.3,4.6 1.2,0.7 2.5,1.1 3.9,1.1 0.1,0 0.1,0 0.2,0 0.8,0.3 1.7,0.5 2.6,0.5 l 47.7,0 c 4.1,0 7.4,-3.3 7.4,-7.4 l 0,-20.5 C 69.9,14 66.6,10.7 62.5,10.7 Z M 13,42.5 c -1.2,0.3 -2.4,0.1 -3.4,-0.6 -1,-0.6 -1.7,-1.6 -2,-2.8 L 3.1,19.2 C 2.5,16.8 4,14.4 6.4,13.9 L 52.9,3.1 C 53.2,3 53.6,3 53.9,3 c 0.8,0 1.6,0.2 2.3,0.7 1,0.6 1.7,1.6 2,2.8 l 4.6,19.9 c 0.6,2.4 -0.9,4.8 -3.3,5.3 L 13,42.5 Z m 54,-3.9 c 0,2.5 -2,4.5 -4.5,4.5 l -38.8,0 36.5,-8.5 c 4,-0.9 6.5,-4.9 5.6,-8.9 L 63,13.7 c 2.2,0.2 4,2.1 4,4.4 l 0,20.5 z m -15.9,2.3 3.9,0 0,-3.8 -3.8,0 0,3.8 z M 35.4,19.7 28,21.4 16.5,13.2 l -2.4,1.2 5.7,8.9 -3.4,0.8 -4.6,-3.3 -1.3,0.7 3.6,5.7 -0.8,6.7 1.5,0 2.7,-5 3.4,-0.8 -1.2,10.5 2.7,0 6.7,-12.4 7.3,-1.7 c 2.2,-0.5 3,-1.8 3.2,-2.8 l -0.2,-0.9 c -0.6,-0.7 -1.8,-1.6 -4,-1.1 z m -20.3,7.2 0,0 c 0.1,0 0.1,0 0,0 0.1,0 0.1,0 0,0 l 0,0 z m 34.1,-6.2 -3.7,0.9 0.9,3.7 3.7,-0.9 -0.9,-3.7 z m -2.1,7.8 0.9,3.7 3.7,-0.9 -0.9,-3.7 -3.7,0.9 z m 0.5,-14.7 -3.7,0.9 0.9,3.7 3.7,-0.9 -0.9,-3.7 z M 46,6.8 42.3,7.7 43.2,11.4 46.9,10.5 46,6.8 Z"
     id="path5"
     inkscape:connector-curvature="0"
     transform="matrix(0.95871021,0,0,0.95871021,0.07990438,0.0146264)"
     style="fill:#ffffff" /></svg>