<?xml version="1.0" encoding="UTF-8" standalone="no"?>
<!-- Created with Inkscape (http://www.inkscape.org/) -->

<svg
   xmlns:dc="http://purl.org/dc/elements/1.1/"
   xmlns:cc="http://creativecommons.org/ns#"
   xmlns:rdf="http://www.w3.org/1999/02/22-rdf-syntax-ns#"
   xmlns:svg="http://www.w3.org/2000/svg"
   xmlns="http://www.w3.org/2000/svg"
   xmlns:sodipodi="http://sodipodi.sourceforge.net/DTD/sodipodi-0.dtd"
   xmlns:inkscape="http://www.inkscape.org/namespaces/inkscape"
   id="svg2"
   version="1.1"
   inkscape:version="0.91 r13725"
   xml:space="preserve"
   width="37.999928"
   height="38"
   viewBox="0 0 37.999928 38"
   sodipodi:docname="whywe.svg"><metadata
     id="metadata8"><rdf:RDF><cc:Work
         rdf:about=""><dc:format>image/svg+xml</dc:format><dc:type
           rdf:resource="http://purl.org/dc/dcmitype/StillImage" /><dc:title></dc:title></cc:Work></rdf:RDF></metadata><defs
     id="defs6"><clipPath
       clipPathUnits="userSpaceOnUse"
       id="clipPath16"><path
         d="M 0,105 105,105 105,0 0,0 0,105 Z"
         id="path18"
         inkscape:connector-curvature="0" /></clipPath></defs><sodipodi:namedview
     pagecolor="#ffffff"
     bordercolor="#666666"
     borderopacity="1"
     objecttolerance="10"
     gridtolerance="10"
     guidetolerance="10"
     inkscape:pageopacity="0"
     inkscape:pageshadow="2"
     inkscape:window-width="742"
     inkscape:window-height="480"
     id="namedview4"
     showgrid="false"
     fit-margin-top="0"
     fit-margin-left="0"
     fit-margin-right="0"
     fit-margin-bottom="0"
     inkscape:zoom="1.7980952"
     inkscape:cx="65.625"
     inkscape:cy="65.625"
     inkscape:window-x="0"
     inkscape:window-y="0"
     inkscape:window-maximized="0"
     inkscape:current-layer="g10" /><g
     id="g10"
     inkscape:groupmode="layer"
     inkscape:label="Vector Smart Object10"
     transform="matrix(1.25,0,0,-1.25,0,38)"><g
       id="g12"
       transform="scale(0.28952381,0.28952381)"><g
         id="g14"
         ><g
           id="g20"
           transform="translate(94.1358,50)"><path
           class="mycolor"
             d="m 0,0 c 3.233,0 5.864,-2.617 5.864,-5.833 0,-3.217 -2.631,-5.834 -5.864,-5.834 -1.381,0 -2.5,-1.119 -2.5,-2.5 0,-1.38 1.119,-2.5 2.5,-2.5 3.233,0 5.864,-2.616 5.864,-5.833 0,-3.216 -2.631,-5.833 -5.864,-5.833 -1.381,0 -2.5,-1.119 -2.5,-2.5 0,-1.381 1.119,-2.5 2.5,-2.5 3.233,0 5.864,-2.617 5.864,-5.834 C 5.864,-42.383 3.233,-45 0,-45 l -67.479,0 0,61.667 24.717,0 c 1.381,0 2.5,1.119 2.5,2.5 l 0,25 c 0,3.216 2.631,5.833 5.865,5.833 3.233,0 5.864,-2.617 5.864,-5.833 l 0,-25 c 0,-1.381 1.119,-2.5 2.5,-2.5 l 26.033,0 c 3.233,0 5.864,-2.617 5.864,-5.834 C 5.864,7.617 3.233,5 0,5 -1.381,5 -2.5,3.881 -2.5,2.5 -2.5,1.119 -1.381,0 0,0 m -89.136,16.667 16.656,0 0,-61.667 -16.656,0 0,61.667 z m 100,-22.5 c 0,3.347 -1.53,6.344 -3.929,8.333 2.399,1.989 3.929,4.986 3.929,8.333 0,5.974 -4.874,10.834 -10.864,10.834 l -23.533,0 0,22.5 c 0,5.973 -4.874,10.833 -10.864,10.833 -5.991,0 -10.865,-4.86 -10.865,-10.833 l 0,-22.5 -46.374,0 c -1.381,0 -2.5,-1.119 -2.5,-2.5 l 0,-66.667 c 0,-1.381 1.119,-2.5 2.5,-2.5 L 0,-50 c 5.99,0 10.864,4.86 10.864,10.833 0,3.348 -1.53,6.345 -3.929,8.334 2.399,1.989 3.929,4.986 3.929,8.333 0,3.347 -1.53,6.345 -3.929,8.333 2.399,1.989 3.929,4.987 3.929,8.334"
             style="fill-opacity:1;fill-rule:nonzero;stroke:none"
             id="path22"
             inkscape:connector-curvature="0" /></g></g></g></g></svg>